<svg width="1500" height="1500" viewBox="0 0 1500 1500" fill="none" xmlns="http://www.w3.org/2000/svg">
<circle cx="749.629" cy="750" r="585.5" fill="#DAD7CB" fill-opacity="0.5"/>
<circle cx="749.629" cy="750" r="225" fill="white"/>
<path d="M754.028 520.526C753.642 507.401 753.457 497.661 753.838 495.489C759.632 472.168 722.434 308.88 753.932 299.538C774.924 308.358 761.314 338.862 759.944 355.684C759.863 388.829 762.443 454.609 765.529 520.962C761.704 520.721 757.869 520.576 754.028 520.526Z" fill="#0088CE"/>
<path d="M701.428 525.947C691.517 485.246 681.468 444.639 670.41 404.505C666.499 394.393 655.974 380.138 663.47 370.297C667.559 364.921 673.641 372.272 675.112 375.831C683.266 395.514 684.605 420.388 688.117 441.342C691.986 464.445 697.06 486.71 703.965 509.086C711.274 532.802 704.49 484.922 704.661 479.359C697.326 426.113 716.089 362.977 683.3 317.708C677.627 308.832 672.594 300.319 672.864 289.205C673.514 259.498 706.743 267.394 711.062 291.467C713.035 353.744 708.783 417.345 714.706 479.76C715.337 494.198 716.443 508.581 717.973 522.907C712.444 523.714 706.926 524.726 701.428 525.947Z" fill="#0088CE"/>
<path d="M674.361 533.739C663.778 497.672 651.567 462.046 634.046 427.325C624.315 399.255 571.995 328.751 597.636 306.648C616.086 298.994 616.831 325.692 615.38 338.091C611.026 370.131 629.444 397.627 642.857 425.123C648.849 435.913 668.047 487.436 658.38 444.814C652.938 406.099 635.398 367.702 634.197 328.418C633.361 313.213 656.648 297.219 659.604 319.587C660.208 339.55 645.939 359.907 653.393 380.533C666.702 429.35 676.696 479.519 687.221 529.586C682.913 530.837 678.625 532.222 674.361 533.739Z" fill="#0088CE"/>
<path d="M732.552 521.255C724.985 497.02 717.442 471.609 735.12 465.207C756.741 469.701 748.368 500.09 745.73 520.569C741.34 520.671 736.946 520.899 732.552 521.255Z" fill="#0088CE"/>
<path d="M567.466 475.631C562.128 465.361 479.491 442.618 505.242 436.28C514.981 434.249 543.248 453.992 546.894 447.784C536.192 435.311 524.438 417.751 511.323 406.769C496.922 395.621 477.281 390.04 469.646 372.128C462.042 357.361 474.502 334.709 492.423 341.321C518.216 350.495 515.118 382.385 524.964 403.104C552.306 453.146 605.755 495.547 643.231 537.787C636.043 495.384 569.239 400.085 534.552 370.22C518.79 362.678 508.36 326.95 536.056 334.913C552.667 344.627 551.562 367.431 561.234 382.401C577.013 409.291 598.625 432.801 613.316 460.52C614.522 462.413 615.427 463.522 615.814 463.483C606.631 431.849 587.732 400.434 575.214 369.516C560.958 331.977 570.531 339.537 534.131 323.062C530.937 321.618 528.075 319.514 525.823 316.835C498.04 283.741 550.446 259.553 565.008 305.295C565.334 306.332 565.719 307.354 566.173 308.334C605.017 391.446 630.047 463.133 658.415 540.091C651.936 542.956 645.531 546.143 639.22 549.659C639.078 549.738 638.936 549.819 638.794 549.899C620.21 521.611 597.032 496.414 567.466 475.631Z" fill="#0088CE"/>
<path d="M593.073 530.658C576.478 500.259 529.115 504.354 514.538 474.443C512.651 457.942 532.718 458.416 541.548 468.206C575.477 493.097 599.339 526.281 619.992 561.633C618.429 562.715 616.884 563.813 615.356 564.928C608.49 553.167 601.16 541.686 593.073 530.658Z" fill="#0088CE"/>
<path d="M591.215 585.22C586.014 574.651 579.432 561.667 576 551.179C573.473 543.463 583.941 538.378 588.38 545.174C594.255 554.164 598.017 564.995 601.533 575.847C597.984 578.879 594.544 582.005 591.215 585.22Z" fill="#0088CE"/>
<path d="M560.707 580.951C546.951 561.25 399.478 481.88 413.156 452.009C433.606 441.996 447.634 472.309 459.405 484.405C477.74 500.491 510.339 527.115 547.006 556.522C517.816 518.489 491.629 479.25 474.36 438.715C457.278 398.609 437.07 433.78 426.579 405.105C421.757 376.719 456.891 378.102 465.829 399.985C502.008 468.981 531.332 529.732 580.468 583.241C582.82 585.112 585.178 586.982 587.535 588.854C584.803 591.615 582.15 594.437 579.576 597.316C579.461 597.176 579.345 597.035 579.23 596.895C569.325 588.744 562.072 582.641 560.707 580.951Z" fill="#0088CE"/>
<path d="M566.084 613.917C542.862 603.683 518.783 592.655 525.584 575.135C543.174 561.814 560.545 588.056 574.232 603.517C571.41 606.913 568.693 610.381 566.084 613.917Z" fill="#0088CE"/>
<path d="M352.056 506.283C330.105 486.256 357.907 466.416 378.882 478.994C427.093 518.466 472.208 563.499 523.121 600.084C534.407 609.101 545.965 617.725 557.758 625.991C554.718 630.716 551.857 635.543 549.18 640.459C512.002 621.158 474.803 602.024 437.298 583.959C427.109 580.256 409.448 578.81 406.965 566.69C405.604 560.075 415.142 560.327 418.791 561.56C438.981 568.363 458.599 583.712 476.694 594.847C496.641 607.126 516.752 617.948 538.148 627.463C560.82 637.554 520.291 611.174 516.212 607.387C471.278 577.894 436.057 522.238 380.391 517.167C369.974 515.603 360.25 513.795 352.056 506.283Z" fill="#0088CE"/>
<path d="M430.573 626.36C403.028 615.231 315.507 608.276 315.72 574.423C322.088 555.491 342.69 572.489 351.077 581.736C372.349 606.088 405.176 610.296 434.71 618.276C446.779 620.858 498.217 640.281 459.752 619.532C427.009 598.169 386.548 586.131 356.165 561.199C344.162 551.828 347.428 523.768 366.222 536.252C381.658 548.925 387.609 573.063 408.049 581.013C453.577 603.093 497.942 628.56 542.58 653.559C540.68 657.647 538.901 661.788 537.246 665.974C503.118 650.228 468.251 635.997 430.573 626.36Z" fill="#0088CE"/>
<path d="M280.873 713.904C264.747 709.92 255.879 685.636 272.645 676.485C296.519 663.089 318.505 686.395 340.588 692.604C396.267 704.918 463.359 692.54 519.827 692.089C483.156 669.616 367.432 657.267 322.123 663.755C306.075 670.669 272.3 655.028 296.514 639.402C314.756 633.277 331.209 649.107 348.847 651.667C379.48 657.464 411.403 656.645 441.946 663.808C444.165 664.144 445.596 664.193 445.822 663.876C415.952 649.989 379.857 643.565 348.334 632.661C310.68 618.712 322.671 616.473 286.321 633.058C283.133 634.514 279.665 635.286 276.166 635.221C232.964 634.385 249.209 578.999 293.244 598.113C294.239 598.549 295.262 598.932 296.298 599.234C384.447 624.63 454.907 652.919 531.53 682.16C529.352 689.144 527.505 696.231 525.996 703.393C492.476 698.794 458.264 699.685 423.175 708.286C411.929 705.553 340.448 752.846 352.61 729.279C357.485 720.608 390.945 712.299 388.668 705.47C372.234 705.329 351.275 702.633 334.377 705.29C316.508 708.808 299.387 719.932 280.873 713.904Z" fill="#0088CE"/>
<path d="M387.472 747.376C373.8 737.945 387.355 723.141 400.537 722.927C441.591 713.74 482.27 717.585 522.473 725.273C522.262 727.157 522.073 729.044 521.908 730.935C508.543 728.375 495.084 726.345 481.468 725.186C447.655 717.694 419.591 756.067 387.472 747.376Z" fill="#0088CE"/>
<path d="M277.392 768.035C252.836 752.998 276.985 727.44 299.348 735.099C354.908 748.388 404.703 761.538 455.948 766.888C473.351 764.557 491.646 762.046 510.124 759.466C501.562 757.131 492.693 754.511 485.699 751.542C478.224 748.372 481.278 737.142 489.318 738.268C499.946 739.754 510.57 744.038 521.049 748.521C520.901 762.571 522.039 776.704 524.516 790.742C501.108 800.521 476.545 810.364 468.534 793.372C469.601 783.872 476.021 779.519 484.634 777.694C477.555 777.329 470.491 776.908 463.454 776.415C455.36 778.084 446.318 780.075 436.759 782.183C381.875 794.286 309.9 810.158 301.833 790.045C307.043 773.477 326.684 775.78 343.2 777.717C348.337 778.319 353.173 778.886 357.177 778.838C371.806 777.508 392.769 775.062 417.304 771.946C388.297 768.227 360.264 762.66 334.134 754.146C292.687 740.637 305.891 778.991 277.392 768.035Z" fill="#0088CE"/>
<path d="M299.083 871.723C269.444 873.838 274.215 840.019 297.783 833.48C321.239 830.538 344.968 828.47 368.751 826.398C407.653 823.008 446.697 819.606 484.922 812.344C499.221 810.376 513.422 807.942 527.526 805.09C528.847 810.515 530.373 815.916 532.107 821.283C492.516 834.932 453.03 848.708 414.11 863.445C411.933 864.53 409.58 865.965 407.12 867.466C398.615 872.653 388.838 878.616 380.697 873.536C374.964 869.966 381.717 863.225 385.124 861.43C398.985 854.11 415.987 850.202 432.184 846.48L432.185 846.48C438.002 845.143 443.716 843.829 449.143 842.39C471.785 836.39 493.483 829.268 515.12 820.313C531.637 813.483 511.857 817.386 497.421 820.233C491.813 821.34 487.011 822.287 485.457 822.384C467.877 826.5 448.912 827.788 429.884 829.08C392.266 831.635 354.399 834.207 326.492 858.683C318.182 865.156 310.173 870.958 299.083 871.723Z" fill="#0088CE"/>
<path d="M323.444 945.003C314.108 927.344 340.621 924.121 353.102 924.413C380.041 925.544 402.363 911.202 424.186 897.18C428.534 894.387 432.861 891.606 437.202 888.963C439.978 887.063 445.678 883.905 451.659 880.59C467.617 871.746 485.579 861.792 455.364 871.676C439.25 875.495 423.395 881.472 407.506 887.461C385.885 895.61 364.202 903.782 341.721 906.577C326.659 908.822 308.569 887.123 330.566 882.101C338.571 881.108 346.867 882.525 355.219 883.952C367.545 886.058 379.997 888.186 391.825 882.618C432.871 867.203 475.16 854.172 517.515 841.12C524.029 839.113 530.545 837.104 537.059 835.087C538.706 839.255 540.483 843.396 542.392 847.505C507.475 861.393 473.147 876.862 440.213 897.53C432.77 900.916 422.426 907.812 410.833 915.541C380.307 935.893 341.123 962.017 323.444 945.003Z" fill="#0088CE"/>
<path d="M340.265 1015.56C309.897 1046.3 280.941 996.367 325.132 977.615C326.133 977.194 327.115 976.716 328.049 976.173C397.095 935.688 458.461 906.481 522.127 876.18C531.423 871.756 540.768 867.307 550.194 862.798C552.006 866.05 553.886 869.24 555.83 872.369L475.191 915.085C476.964 913.707 477.985 912.703 477.91 912.321C459.058 919.755 440.631 930.844 422.344 941.848C410.906 948.731 399.523 955.581 388.125 961.482C369.776 970.483 362.486 972.252 358.034 976.799C353.739 981.186 352.085 988.159 345.692 1006.71C344.552 1010.02 342.723 1013.07 340.265 1015.56Z" fill="#0088CE"/>
</svg>
