<svg width="1501" height="1501" viewBox="0 0 1501 1501" fill="none" xmlns="http://www.w3.org/2000/svg">
<circle cx="750" cy="750.5" r="585.5" fill="#DAD7CB" fill-opacity="0.5"/>
<path d="M707.385 524.894C698.587 483.792 689.65 442.778 679.685 402.212C676.058 391.996 665.935 377.452 673.705 367.825C677.942 362.566 683.816 370.083 685.187 373.682C692.787 393.585 693.43 418.487 696.354 439.531C699.576 462.732 704.025 485.131 710.3 507.692C716.944 531.604 711.501 483.55 711.828 477.995C705.985 424.565 726.508 361.978 694.997 315.81C689.574 306.779 684.782 298.129 685.362 287.028C686.843 257.351 719.838 266.172 723.483 290.356C723.713 352.664 717.683 416.122 721.859 478.678C722.088 493.273 722.802 507.828 723.952 522.334C718.366 522.99 712.841 523.845 707.385 524.894Z" fill="#0088CE"/>
<path d="M644.226 547.003C626.407 518.07 603.879 492.119 574.792 470.432C569.742 460.017 487.774 434.971 513.692 429.356C523.483 427.598 551.188 448.124 555.005 442.021C544.657 429.254 533.399 411.37 520.596 400.026C506.512 388.48 487.035 382.352 479.904 364.234C472.717 349.26 485.805 326.965 503.534 334.076C529.06 343.967 525.073 375.758 534.335 396.745C560.267 447.532 612.508 491.411 648.789 534.683C642.789 492.094 578.677 394.965 544.839 364.142C529.294 356.162 519.867 320.157 547.33 328.891C563.662 339.066 561.921 361.83 571.169 377.065C586.19 404.385 607.136 428.49 621.046 456.609C622.199 458.535 623.073 459.669 623.461 459.641C615.166 427.763 597.152 395.831 585.504 364.576C572.304 326.653 581.662 334.477 545.737 316.991C542.585 315.458 539.782 313.274 537.606 310.534C510.76 276.675 563.821 253.963 577.098 300.095C577.395 301.14 577.751 302.172 578.177 303.164C614.74 387.464 637.772 459.919 664.028 537.782C657.26 540.548 650.654 543.629 644.226 547.003Z" fill="#0088CE"/>
<path d="M771.517 521.646C767.712 521.311 763.881 521.069 760.025 520.921C760.004 507.592 760.089 497.676 760.535 495.495C766.978 472.344 734.363 308.08 766.11 299.623C786.847 309.028 772.389 339.138 770.549 355.915C769.54 389.104 770.284 455.11 771.517 521.646Z" fill="#0088CE"/>
<path d="M680.123 531.897C670.53 495.416 659.299 459.331 642.697 424.007C633.754 395.676 583.426 323.735 609.676 302.358C628.333 295.223 628.331 321.933 626.534 334.286C621.285 366.192 638.928 394.192 651.566 422.052C657.254 433.005 675.003 485.046 666.532 442.169C662.175 403.317 645.715 364.445 645.614 325.143C645.204 309.92 668.928 294.585 671.257 317.027C671.304 336.998 656.47 356.948 663.344 377.774C675.315 427.078 683.915 477.648 693.064 528.125C688.698 529.259 684.383 530.518 680.123 531.897Z" fill="#0088CE"/>
<path d="M577.799 599.409C555.339 587.234 531.839 574.208 540.109 557.178C545.602 553.685 550.794 553.625 555.704 555.697C550.725 548.897 545.831 542.062 541.055 535.193C496.685 499.362 426.494 445.994 438.112 425.281C459.312 416.972 470.817 448.33 481.561 461.346C489.698 469.756 500.908 480.852 514.14 493.688C501.83 473.054 491.095 452.131 482.754 430.927C466.8 390.359 445.616 424.951 435.932 395.994C431.906 367.483 466.988 369.848 475.311 391.973C498.16 438.679 518.062 481.628 542.928 521.341C557.078 534.828 572.335 549.245 587.894 563.868C585.25 557.748 582.822 551.627 581.21 546.189C578.899 538.406 589.504 533.616 593.752 540.534C599.459 549.824 602.937 560.95 606.191 572.063C601.5 575.868 596.961 579.853 592.586 584.009C582.977 574.694 575.894 567.688 574.638 565.843C573.674 564.188 571.892 562.087 569.44 559.605C576.207 568.385 583.387 576.998 591.08 585.452C586.462 589.917 582.031 594.573 577.799 599.409Z" fill="#0088CE"/>
<path d="M558.711 624.479C523.093 602.117 487.443 579.913 451.397 558.762C441.544 554.239 424.06 551.355 422.576 539.074C421.76 532.369 431.245 533.4 434.781 534.926C454.348 543.355 472.647 560.256 489.771 572.831C508.65 586.699 527.809 599.127 548.357 610.358C570.129 622.267 531.888 592.665 528.133 588.558C485.758 555.493 455.2 497.146 400.134 487.545C389.88 485.136 380.337 482.539 372.784 474.383C352.542 452.63 381.871 435.128 401.749 449.377C446.575 492.655 487.861 541.221 535.616 581.843C546.257 591.873 557.209 601.524 568.431 610.829C565.031 615.255 561.788 619.807 558.711 624.479Z" fill="#0088CE"/>
<path d="M620.381 561.43C613.785 549.344 606.71 537.528 598.848 526.154C583.11 495.303 535.651 498.072 521.918 467.764C520.493 451.217 540.539 452.253 549.091 462.286C582.43 488.208 605.399 522.195 625.102 558.254C623.515 559.294 621.941 560.352 620.381 561.43Z" fill="#0088CE"/>
<path d="M738.658 521.081C731.732 496.517 724.717 470.64 742.671 464.702C764.304 469.832 754.814 500.351 751.666 520.752C751.471 520.752 751.276 520.75 751.082 520.75C746.914 520.75 742.771 520.863 738.658 521.081Z" fill="#0088CE"/>
<path d="M544.696 648.883C511.847 630.319 478.14 613.204 441.232 600.473C414.688 587.131 328.027 573.05 331.004 539.328C338.898 520.98 358.042 539.603 365.645 549.504C384.857 575.512 417.231 582.388 446.014 592.752C457.832 596.312 507.512 619.871 470.871 596.05C439.982 572.085 400.639 556.782 372.394 529.453C361.196 519.133 366.743 491.433 384.455 505.411C398.804 519.302 402.764 543.845 422.486 553.437C466.191 579.241 508.452 608.344 551.031 636.99C548.807 640.884 546.694 644.85 544.696 648.883Z" fill="#0088CE"/>
<path d="M427.167 681.52C416.18 677.878 341.076 719.175 355.122 696.68C360.688 688.436 394.718 682.887 393.004 675.895C376.637 674.412 355.969 670.013 338.91 671.282C320.814 673.328 302.841 683.018 284.88 675.497C269.135 670.21 262.279 645.282 279.737 637.531C304.625 626.129 324.635 651.154 346.136 659.146C400.624 675.966 468.503 669.109 524.818 673.272C490.105 647.879 375.776 626.118 330.088 628.884C313.53 634.464 281.146 616.118 306.555 602.521C325.237 597.907 340.341 615.027 357.711 619.019C387.768 627.299 419.652 629.09 449.507 638.723C451.693 639.24 453.114 639.406 453.365 639.108C424.73 622.827 389.279 613.477 358.753 600.035C322.363 583.057 334.497 581.804 296.914 595.366C293.617 596.557 290.098 597.043 286.616 596.692C243.627 592.33 264.341 538.457 306.668 561.104C307.624 561.62 308.612 562.084 309.621 562.47C395.545 595.035 463.544 629.044 537.669 664.51C534.944 671.231 532.527 678.109 530.436 685.127C497.282 677.734 462.982 675.791 427.167 681.52Z" fill="#0088CE"/>
<path d="M483.884 703.124C450.796 692.896 419.692 728.848 388.39 717.563C375.535 707.048 390.253 693.399 403.408 694.263C445.215 688.44 485.576 695.662 525.145 706.67C524.783 708.529 524.443 710.395 524.126 712.269C510.882 708.578 497.5 705.415 483.884 703.124Z" fill="#0088CE"/>
<path d="M521.541 768.38C497.154 775.882 471.465 783.494 465.105 765.691C466.284 760.137 469.168 756.574 473.148 754.391C463.96 753.086 454.816 751.677 445.748 750.13C389.092 756.833 306.007 768.391 299.518 746.166C308.429 725.212 338.873 738.954 355.689 740.396C366.23 740.467 380.074 740.282 396.188 739.909C374.736 734.582 354.081 728.083 334.677 719.953C294.472 703.105 304.5 742.41 276.99 729.162C253.745 712.171 279.9 688.671 301.563 698.13C349.173 713.725 392.373 728.85 436.435 738.755C456.652 738.089 478.557 737.261 500.9 736.354C495.514 734.252 490.329 732.037 485.949 729.739C478.758 725.968 482.719 715.026 490.639 716.804C501.255 719.185 511.634 724.43 521.846 729.833C521.331 735.502 521.02 741.23 520.923 747.01C507.586 747.347 497.66 747.498 495.467 747.104C492.519 746.358 487.324 746.292 480.481 746.68C493.686 748.417 507.113 749.576 520.893 750.036C520.892 750.338 520.889 750.641 520.889 750.943C520.889 756.809 521.11 762.624 521.541 768.38Z" fill="#0088CE"/>
<path d="M404.124 830.139C393.996 834.007 379.696 844.471 369.887 836.932C364.529 832.821 371.905 826.77 375.47 825.314C395.189 817.245 420.069 816.013 441.038 812.591C464.157 808.821 486.443 803.843 508.849 797.036C532.597 789.828 484.685 796.406 479.125 796.211C425.847 803.317 362.793 784.282 317.383 816.876C308.483 822.511 299.948 827.506 288.837 827.189C259.132 826.411 267.17 793.216 291.262 789C353.548 787.296 417.13 791.822 479.57 786.167C494.138 785.594 508.653 784.537 523.111 783.047C523.889 788.62 524.867 794.128 526.036 799.565C485.18 809.327 444.416 819.224 404.124 830.139Z" fill="#0088CE"/>
<path d="M426.787 866.601C398.675 876.212 327.947 928.227 305.954 902.491C298.38 884.008 325.081 883.379 337.474 884.883C369.495 889.375 397.07 871.075 424.624 857.781C435.44 851.835 487.044 832.859 444.381 842.342C405.643 847.617 367.171 864.993 327.881 866.025C312.673 866.794 296.78 843.439 319.161 840.579C339.126 840.06 359.421 854.419 380.079 847.053C429.052 833.929 479.367 824.139 529.579 813.806C530.808 818.147 532.163 822.436 533.637 826.668C497.436 837.114 461.668 849.187 426.787 866.601Z" fill="#0088CE"/>
<path d="M370.883 1030.76C356.083 1038.3 333.485 1025.74 340.174 1007.85C349.459 982.1 381.335 985.334 402.096 975.578C452.256 948.452 494.887 895.185 537.289 857.891C494.854 864.896 399.269 931.29 369.255 965.848C361.646 981.578 325.873 991.854 333.955 964.193C343.74 947.624 366.538 948.826 381.55 939.219C408.508 923.556 432.11 902.046 459.892 887.474C461.791 886.276 462.904 885.376 462.867 884.989C431.194 894.035 399.698 912.799 368.726 925.183C331.126 939.277 338.727 929.737 322.095 966.066C320.638 969.253 318.521 972.106 315.833 974.347C282.619 1001.99 258.657 949.477 304.463 935.113C305.5 934.791 306.524 934.411 307.505 933.961C390.863 895.438 462.715 870.707 539.879 842.638C542.798 849.354 546.029 855.903 549.552 862.268C521.115 880.749 495.759 903.852 474.806 933.388C464.514 938.681 441.415 1021.22 435.188 995.443C433.199 985.696 453.063 957.513 446.871 953.841C434.352 964.489 416.741 976.167 405.703 989.235C394.493 1003.59 388.828 1023.2 370.883 1030.76Z" fill="#0088CE"/>
<path d="M473.39 986.311C456.882 988.127 457.443 968.063 467.27 959.275C492.35 925.395 525.707 901.655 561.215 881.13C562.29 882.694 563.383 884.245 564.495 885.781C552.64 892.627 541.064 899.938 529.943 908.02C499.473 924.483 503.364 971.864 473.39 986.311Z" fill="#0088CE"/>
<path d="M550.39 925.18C542.664 927.674 537.624 917.185 544.439 912.775C553.516 906.899 564.451 903.173 575.392 899.683C578.39 903.221 581.494 906.667 584.697 910.016C574.07 915.186 560.959 921.772 550.39 925.18Z" fill="#0088CE"/>
<path d="M578.232 938.984C558.333 952.453 476.83 1098.76 447.16 1084.65C437.445 1064.05 467.96 1050.47 480.225 1038.87C495.221 1022.27 519.252 993.806 546.225 961.249C511.007 987.415 474.78 1010.64 437.491 1026.33C397.311 1043.24 432.394 1063.6 403.674 1073.97C375.267 1078.67 376.802 1043.54 398.724 1034.7C463.343 1001.17 520.736 973.594 571.817 930.217C576.753 924.208 581.72 918.145 586.688 912.074C589.925 915.375 593.261 918.579 596.69 921.682C593.345 924.411 589.99 927.133 586.626 929.844C582.365 934.77 579.344 938.112 578.232 938.984Z" fill="#0088CE"/>
<path d="M611.359 933.895C600.764 957.025 589.373 981.091 571.907 974.017C558.793 956.168 585.535 939.118 601.17 925.632C604.485 928.48 607.883 931.236 611.359 933.895Z" fill="#0088CE"/>
<path d="M500.542 1146.53C480.198 1168.18 460.764 1140.1 473.646 1119.31C513.814 1071.68 559.496 1027.22 596.817 976.842C606.031 965.646 614.853 954.171 623.318 942.453C627.968 945.561 632.738 948.504 637.619 951.275C617.762 988.201 598.072 1025.15 579.448 1062.42C575.597 1072.56 573.894 1090.19 561.74 1092.5C555.105 1093.77 555.496 1084.23 556.782 1080.6C563.877 1060.51 579.51 1041.12 590.907 1023.19C603.474 1003.42 614.587 983.471 624.412 962.214C634.83 939.692 607.866 979.833 604.02 983.857C573.878 1028.36 517.715 1062.77 511.836 1118.35C510.121 1128.75 508.171 1138.44 500.542 1146.53Z" fill="#0088CE"/>
<path d="M568.147 1183.85C549.309 1177.21 566.604 1156.85 575.972 1148.6C600.63 1127.69 605.315 1094.92 613.722 1065.51C616.48 1053.48 636.647 1002.33 615.342 1040.49C593.507 1072.92 580.882 1113.2 555.512 1143.22C545.968 1155.08 517.957 1151.41 530.714 1132.8C543.609 1117.55 567.832 1111.95 576.077 1091.63C598.826 1046.4 624.947 1002.4 650.602 958.106C654.643 960.069 658.75 961.918 662.919 963.648C646.673 997.553 631.932 1032.22 621.747 1069.76C610.218 1097.14 601.993 1184.55 568.147 1183.85Z" fill="#0088CE"/>
<path d="M628.364 1224.28C626.9 1267.47 571.757 1250.42 591.508 1206.67C591.959 1205.68 592.356 1204.66 592.673 1203.63C619.347 1115.86 648.656 1045.82 679.007 969.625C685.918 971.902 692.973 973.86 700.155 975.482C695.072 1008.93 695.467 1043.14 703.556 1078.35C700.659 1089.55 746.911 1161.71 723.523 1149.21C714.923 1144.21 707.1 1110.63 700.239 1112.81C699.859 1129.24 696.86 1150.16 699.271 1167.09C702.528 1185.01 713.404 1202.29 707.107 1220.72C702.889 1236.78 678.48 1245.3 669.573 1228.4C656.524 1204.34 680.147 1182.69 686.676 1160.7C699.797 1105.21 688.395 1037.94 688.764 981.472C665.761 1017.81 651.732 1133.35 657.562 1178.74C664.242 1194.89 648.113 1228.43 632.839 1204C626.981 1185.67 643.047 1169.45 645.863 1151.85C652.105 1121.3 651.75 1089.37 659.355 1058.93C659.724 1056.72 659.793 1055.29 659.479 1055.06C645.16 1084.72 638.213 1120.72 626.852 1152.08C612.358 1189.53 610.293 1177.51 626.348 1214.1C627.758 1217.31 628.48 1220.78 628.364 1224.28Z" fill="#0088CE"/>
<path d="M742.123 1114.62C732.495 1128.15 717.889 1114.38 717.867 1101.2C709.278 1060.02 713.713 1019.4 721.984 979.313C723.861 979.55 725.744 979.764 727.634 979.955C724.881 993.282 722.658 1006.71 721.3 1020.31C713.318 1054.01 751.279 1082.63 742.123 1114.62Z" fill="#0088CE"/>
<path d="M761.181 1224.99C745.789 1249.32 720.585 1224.8 728.568 1202.55C748.574 1123.97 768.132 1057 765.634 980.683C769.077 980.468 772.498 980.178 775.898 979.814C773.034 1045.28 767.525 1111.3 748.118 1168.05C734.009 1209.29 772.55 1196.65 761.181 1224.99Z" fill="#0088CE"/>
<path d="M747.716 1016.46C744.438 1023.89 733.254 1020.67 734.496 1012.65C736.136 1002.04 740.575 991.478 745.213 981.062C747.163 981.111 749.119 981.135 751.082 981.135C753.783 981.135 756.473 981.088 759.152 980.995C755.956 992.328 752.173 1006.37 747.716 1016.46Z" fill="#0088CE"/>
<circle cx="750.129" cy="750" r="225" fill="white"/>
</svg>
