<svg width="1501" height="1501" viewBox="0 0 1501 1501" fill="none" xmlns="http://www.w3.org/2000/svg">
<circle cx="750" cy="750.5" r="585.5" fill="#DAD7CB" fill-opacity="0.5"/>
<path d="M707.238 530.157C700.721 488.232 694.136 447.638 694.43 441.66C691.427 379.821 676.711 321.025 638.233 269.189C636.382 257.755 565.076 210.22 591.514 212.294C601.391 213.424 622.034 241.048 627.441 236.295C621.196 221.099 615.553 200.725 606.547 186.182C596.373 171.07 579.484 159.614 577.854 140.216C575.275 123.806 594.213 106.215 609.147 118.118C630.758 134.929 617.804 164.237 620.637 187.003C630.893 243.095 668.315 300.137 690.631 352.009C697.12 309.49 663.622 198.033 640.071 158.787C627.466 146.68 628.797 109.483 652.588 125.74C665.305 140.178 657.099 161.481 661.588 178.737C668.122 209.218 681.257 238.333 686.509 269.252C687.055 271.439 687.569 272.773 687.954 272.847C689.171 239.93 681.091 204.168 678.91 170.88C677.161 130.761 683.875 140.948 654.492 113.87C651.917 111.502 649.856 108.599 648.561 105.339C632.582 65.1901 689.925 58.6879 689.391 106.687C689.374 107.769 689.42 108.864 689.545 109.941C705.084 241.182 700.833 340.917 709.825 472.635C710.706 480.68 711.889 492.689 714.619 499.7C715.323 500.919 715.742 499.174 715.894 495.542C715.904 410.559 729.304 329.379 716.622 244.234C716.19 214.525 688.663 131.161 719.954 118.224C739.873 116.746 732.199 142.331 726.921 153.647C712.736 182.695 721.577 214.592 725.683 244.91C727.986 257.039 730.03 311.981 734.242 268.473C741.233 230.008 736.629 188.049 747.83 150.374C751.812 135.677 778.946 127.805 774.732 149.969C769.038 169.116 749.1 183.961 749.698 205.874C744.005 312.582 722.389 420.357 723.55 527.599C718.049 528.255 712.61 529.111 707.238 530.157Z" fill="#0088CE"/>
<path d="M737.522 526.368C742.476 428.927 753.414 331.089 758.325 233.982C757.784 223.153 752.27 206.322 762.475 199.325C768.044 195.508 771.51 204.392 771.792 208.228C773.358 229.47 766.805 253.516 763.562 274.514C759.982 297.665 757.809 320.401 757.338 343.807C756.837 368.614 765.428 321.03 767.336 315.806C777.094 262.945 814.723 208.903 797.813 155.627C795.216 145.415 793.109 135.758 796.853 125.29C806.801 97.2934 835.868 115.213 832.407 139.435C814.724 199.184 790.723 258.234 776.74 319.344C757.692 386.65 749.574 456.236 747.54 526.02C744.182 526.063 740.843 526.179 737.522 526.368Z" fill="#0088CE"/>
<path d="M669.203 541.135C666.455 533.607 664.003 526.555 662.058 520.423C628.839 422.202 570.135 309.13 561.427 204.902C557.8 161.451 527.577 188.517 526.622 157.988C530.96 129.52 563.881 141.867 565.496 165.458C579.648 251.238 588.917 324.584 628.07 398.465C628.593 389.471 622.568 361.905 622.628 343.604C622.658 335.487 634.186 333.941 636.269 341.79C641.574 361.795 637.303 385.826 640.172 405.703C644.671 450.451 663.161 494.3 680.074 537.243C676.408 538.45 672.783 539.747 669.203 541.135Z" fill="#0088CE"/>
<path d="M686.862 535.128C686.383 533.332 686.03 532.023 685.868 531.418C665.895 465.351 666.502 394.991 645.27 329.477C639.063 295.396 592.803 284.42 588.357 251.439C591.748 235.184 610.639 241.931 615.957 253.995C664.098 321.662 664.889 407.672 683.12 483.905C687.38 478.549 672.028 394.084 683.196 418.287C692.856 455.387 694.12 494.027 697.513 532.276C693.929 533.142 690.377 534.093 686.862 535.128Z" fill="#0088CE"/>
<path d="M618.908 568.476C569.663 482.83 525.483 393.429 476.51 307.999C470.201 299.18 456.466 288.001 461.27 276.598C463.891 270.376 471.608 275.977 473.919 279.052C486.719 296.077 494.203 319.851 502.824 339.27C512.326 360.683 522.786 380.985 535.041 400.932C548.028 422.073 529.538 377.396 528.318 371.97C507.956 322.222 510.405 256.416 467.381 220.732C459.676 213.545 452.682 206.559 450.175 195.728C443.412 166.796 477.553 166.162 487.733 188.411C505.152 248.238 516.876 310.892 538.143 369.863C558.862 437.986 590.386 501.975 627.229 562.745C624.411 564.594 621.637 566.505 618.908 568.476Z" fill="#0088CE"/>
<path d="M632.222 559.562C612.978 524.987 590.531 488.948 580.625 456.522C580.036 454.6 582.556 453.297 583.806 454.866C594.256 467.891 587.032 455.477 583.255 441.086C580.238 416.622 529.191 367.82 554.278 350.69C580.903 349.439 574.6 395.615 580.535 412.591C587.2 439.666 596.223 466.961 608.422 491.444C622.725 515.867 580.652 384.43 579.939 375.374C579.74 351.342 503.059 202.461 531.247 185.574C553.775 188.889 548.184 221.82 551.055 238.459C566.892 300.71 622.925 479.173 645.878 551.753C641.227 554.2 636.673 556.805 632.222 559.562Z" fill="#0088CE"/>
<path d="M595.975 587.457C567.026 554.774 538.074 522.595 535.007 517.262C499.055 466.858 454.894 425.345 394.503 402.532C386.765 393.912 301.079 392.462 324.444 379.916C333.365 375.528 365.665 387.612 367.644 380.689C354.176 371.28 338.415 357.19 322.978 349.821C306.249 342.607 285.848 342.097 273.991 326.658C262.952 314.246 269.377 289.21 288.375 291.152C315.644 293.615 320.586 325.275 335.275 342.897C374.222 384.545 436.539 412.309 483.353 443.889C465.829 404.609 377.401 328.942 336.374 308.653C319.225 305.279 300.24 273.266 329.044 274.084C347.547 279.358 352.158 301.716 365.262 313.808C387.234 335.921 414.022 353.316 435.153 376.49C436.795 378.035 437.948 378.881 438.311 378.734C421.543 350.382 395.416 324.662 375.588 297.835C352.431 265.026 363.587 269.968 324.229 263.068C320.783 262.468 317.479 261.14 314.628 259.097C279.483 233.955 324.213 197.49 349.708 238.161C350.279 239.081 350.91 239.977 351.598 240.815C435.608 342.834 485.94 429.042 564.7 535.001C569.79 541.293 577.278 550.758 583.364 555.181C584.615 555.825 584.024 554.131 582.188 550.993C536.262 479.489 503.657 403.946 446.965 339.166C430.543 314.403 362.325 259.146 381.658 231.348C397.618 219.338 404.99 245.012 406.667 257.385C410.433 289.491 435.112 311.549 454.954 334.837C463.447 343.796 494.864 388.917 474.891 350.035C459.982 313.895 433.429 281.081 422.488 243.33C417.895 228.813 436.469 207.523 444.903 228.447C450.462 247.634 441.711 270.901 454.059 289.014C507.549 382.926 547.928 486.562 607.982 576.885C603.855 580.267 599.85 583.794 595.975 587.457Z" fill="#0088CE"/>
<path d="M570.098 616.516C562.733 610.962 555.947 605.674 550.344 601.025C469.306 536.345 358.797 472.943 295.135 389.96C268.597 355.364 257.799 394.471 240.494 369.303C228.756 343.007 263.129 335.6 277.238 354.575C335.511 419.095 382.954 475.793 455.828 516.789C451.407 508.94 431.437 489.004 421.595 473.574C417.233 466.729 426.097 459.197 432.093 464.675C447.37 478.639 456.765 501.165 469.923 516.338C498.567 552.401 539.046 579.739 577.29 607.385C574.816 610.365 572.417 613.409 570.098 616.516Z" fill="#0088CE"/>
<path d="M581.659 602.277C579.021 599.856 577.03 598.054 576.318 597.406C523.804 552.617 486.285 493.093 433.01 449.45C409.367 424.132 364.514 439.902 342.946 414.558C337.013 399.048 356.554 394.514 367.549 401.79C444.626 432.699 491.782 504.634 548.325 558.917C549.011 552.105 490.443 489.343 512.922 503.67C541.963 530.455 564.384 563.437 588.739 594.609C586.321 597.11 583.96 599.667 581.659 602.277Z" fill="#0088CE"/>
<path d="M547.908 652.999C512.252 634.168 472.58 615.992 445.948 593.798C444.403 592.511 445.798 590.041 447.703 590.67C463.579 595.845 450.736 589.414 439.695 579.441C423.773 560.624 354.336 547.747 365.946 519.675C387.538 504.046 407.553 546.135 421.815 557.089C442.219 576.093 464.717 593.99 488.331 607.795C513.674 620.397 406.491 533.462 400.936 526.275C387.609 506.277 241.915 423.698 256.253 394.131C276.918 384.568 290.274 415.183 301.788 427.533C349.75 471.515 497.551 592.707 554.97 639.602C552.471 643.978 550.115 648.445 547.908 652.999Z" fill="#0088CE"/>
<path d="M541.461 667.609C452.594 622.648 365.979 571.571 277.497 526.542C267.389 522.618 249.774 520.786 247.549 508.614C246.336 501.973 255.859 502.433 259.477 503.74C279.51 510.976 298.792 526.769 316.64 538.296C336.317 551.009 356.187 562.268 377.364 572.247C399.808 582.824 359.872 555.57 355.879 551.696C311.598 521.222 277.609 464.819 222.068 458.523C211.685 456.729 202.009 454.713 193.979 447.023C172.477 426.519 200.695 407.293 221.397 420.334C268.735 460.854 312.857 506.857 362.945 544.554C418.249 590.759 480.493 627.361 545.44 658.266C544.046 661.344 542.719 664.459 541.461 667.609Z" fill="#0088CE"/>
<path d="M532.406 695.47C489.649 683.791 446.611 672.427 441.041 669.602C383.357 647.116 323.673 636.565 260.649 650.549C249.454 647.574 176.965 693.285 189.645 669.992C194.706 661.435 228.349 653.858 226.214 646.982C209.792 646.485 188.889 643.326 171.937 645.614C153.989 648.739 136.64 659.484 118.265 653.06C102.231 648.72 93.8956 624.253 110.855 615.475C135.02 602.602 156.493 626.385 178.435 633.085C233.83 646.605 301.176 635.71 357.64 636.496C321.467 613.226 206.041 598.341 160.602 603.832C144.405 610.401 110.988 594.011 135.537 578.922C153.907 573.202 170.008 589.384 187.595 592.325C218.089 598.795 250.029 598.68 280.401 606.498C282.62 606.892 284.048 606.968 284.272 606.647C254.716 592.106 218.77 584.894 187.487 573.306C150.145 558.535 162.186 556.561 125.477 572.341C122.264 573.726 118.771 574.423 115.267 574.275C72.0923 572.485 89.5492 517.479 133.154 537.548C134.136 538.005 135.154 538.409 136.188 538.734C262.35 578.089 351.674 622.658 475.601 668.184C483.305 670.661 494.753 674.48 502.268 674.848C503.668 674.702 502.245 673.608 498.991 671.987C421.406 637.309 352.755 591.956 269.844 568.8C242.542 557.074 155.203 548.197 156.156 514.351C162.933 495.561 183.161 513.006 191.34 522.44C212.073 547.242 244.803 552.183 274.158 560.802C286.17 563.647 337.168 584.195 299.163 562.601C266.897 540.526 226.709 527.612 196.881 502.016C185.088 492.384 188.97 464.4 207.486 477.288C222.645 490.298 228.065 514.558 248.315 522.952C345.16 572.575 436.279 637.725 536.801 680.4C535.167 685.35 533.7 690.375 532.406 695.47Z" fill="#0088CE"/>
<path d="M528.292 715.463C523.941 714.739 520.59 714.212 519.497 714.037C451.029 705.32 387.039 676.061 318.562 668.719C284.915 660.482 256.021 698.24 224.096 688.845C210.638 679.117 224.505 664.622 237.689 664.69C319.109 648.342 397.959 682.707 474.997 697.162C471.843 691.087 388.464 670.646 415.119 670.323C454.692 676.932 492.054 692.627 530.106 705.486C529.429 708.786 528.824 712.112 528.292 715.463Z" fill="#0088CE"/>
<path d="M526.169 733.528C516.431 732.894 507.348 732.153 499.745 731.29C396.518 721.549 269.333 729.017 170.621 694.446C129.471 680.032 141.852 718.667 113.59 707.085C89.3682 691.511 114.072 666.491 136.269 674.641C220.36 696.714 291.106 718.174 374.532 712.567C366.535 708.421 338.908 702.676 322.223 695.155C314.824 691.817 318.116 680.66 326.133 681.96C346.562 685.278 366.76 698.981 386.078 704.471C430.286 719.122 479.733 719.682 527.362 721.931C526.867 725.767 526.468 729.634 526.169 733.528Z" fill="#0088CE"/>
<path d="M526.838 775.664C486.484 779.352 443.019 785.895 408.385 781.825C406.387 781.592 406.206 778.762 408.146 778.247C424.271 773.911 410 775.539 395.305 773.215C371.69 766.148 306.491 793.284 300.885 763.428C310.436 738.544 350.19 762.869 368.119 764.255C395.59 769.031 424.21 771.737 451.531 770.404C479.644 767.119 342.38 752.833 333.8 749.847C311.714 740.373 144.568 750.771 140.43 718.173C152.517 698.876 180.426 717.228 196.816 721.284C261.302 731.98 452.72 752.916 525.709 760.758C525.923 765.771 526.301 770.741 526.838 775.664Z" fill="#0088CE"/>
<path d="M230.543 817.489C219.932 819.722 204.176 827.808 195.664 818.827C191.021 813.927 199.25 809.11 202.994 808.23C223.728 803.349 248.505 806.049 269.751 805.956C293.178 805.859 315.973 804.438 339.163 801.231C363.74 797.833 315.399 796.814 309.939 795.75C256.203 794.407 196.926 765.723 146.963 790.784C137.285 794.951 128.078 798.547 117.152 796.492C87.9416 791.059 101.078 759.542 125.543 759.159C187.327 767.248 249.411 781.686 311.958 785.908C383.722 794.432 456.059 791.055 527.539 781.409C527.994 784.778 528.524 788.124 529.127 791.444C429.993 802.35 329.395 806.868 230.543 817.489Z" fill="#0088CE"/>
<path d="M166.256 1010.44C150.454 1015.56 130.11 999.615 139.522 982.998C152.734 959.017 183.711 967.213 205.75 960.842C259.538 941.912 310.001 896.003 357.729 865.824C314.719 866.087 209.899 916.659 174.835 946.076C164.855 960.425 127.91 964.946 140.233 938.899C152.497 924.074 174.824 928.836 191.162 921.695C220.24 910.459 246.933 892.919 276.645 882.88C278.718 881.998 279.956 881.282 279.969 880.89C247.268 884.853 213.218 898.444 180.685 905.822C141.336 913.844 150.344 905.613 128.212 938.881C126.277 941.796 123.733 944.287 120.717 946.077C83.5725 968.159 68.1533 912.547 115.642 905.542C116.714 905.389 117.787 905.172 118.831 904.879C246.008 868.941 345.174 857.489 473.85 827.942C481.657 825.809 493.332 822.755 499.828 818.959C500.921 818.072 499.132 817.933 495.521 818.353C411.589 831.678 329.312 831.181 247.212 857.067C217.938 862.155 139.926 902.421 122.239 873.547C117.655 854.107 144.127 857.672 156.131 861.109C187.044 870.561 217.16 856.824 246.458 848.011C258.075 843.834 312.016 833.194 268.386 835.862C229.301 834.992 188.584 846.123 149.618 840.973C134.479 839.346 122.446 813.783 144.996 814.467C164.799 817.086 182.589 834.448 204.137 830.419C312.419 819.089 424.391 823.909 531.954 804.722C533.204 809.823 534.628 814.855 536.219 819.813C494.063 833.37 451.878 847.33 445.675 848.005C385.073 860.674 329.314 884.433 284.158 930.568C273.156 934.189 237.398 1012.07 235.298 985.635C234.865 975.703 258.907 950.982 253.364 946.388C239.336 954.94 220.1 963.71 207.149 974.886C193.822 987.306 185.157 1005.78 166.256 1010.44Z" fill="#0088CE"/>
<path d="M274.454 982.612C257.867 981.813 261.567 962.097 272.647 954.952C331.922 896.79 416.743 882.513 489.171 852.547C483.212 849.18 402.202 877.595 424.354 862.767C461.017 846.732 500.772 839.47 539.573 829.5C540.762 832.692 542.021 835.85 543.349 838.972C539.535 840.645 536.637 841.945 535.664 842.378C473.549 872.47 403.966 882.91 342.595 914.159C309.91 925.636 306.329 973.045 274.454 982.612Z" fill="#0088CE"/>
<path d="M191.847 1058.25C163.051 1058.43 170.08 1023.98 193.125 1018.68C275.622 991.244 346.605 970.582 413.428 920.322C404.464 921.216 378.184 931.492 360.099 934.305C352.078 935.548 348.743 924.405 356.168 921.116C375.093 912.737 399.496 913.185 418.677 907.233C463.513 895.413 505.072 869.056 546.022 845.012C547.651 848.548 549.368 852.035 551.172 855.469C542.939 860.094 535.186 864.286 528.541 867.617C436.75 915.836 334.289 991.556 232.719 1016.51C190.375 1026.91 221.847 1052.51 191.847 1058.25Z" fill="#0088CE"/>
<path d="M398.773 972.412C375.082 976.443 240.345 1075.9 219.176 1050.77C218.853 1028 252.255 1028.27 268.223 1022.78C327.843 996.906 498.34 911.43 564.732 877.983C567.601 882.171 570.607 886.257 573.745 890.235C542.219 915.027 509.687 943.593 478.772 958.786C476.969 959.674 475.28 957.394 476.629 955.91C487.819 943.515 476.718 952.628 463.114 958.653C439.445 965.535 399.415 1023.72 378.501 1001.68C373.016 975.6 419.607 974.452 435.418 965.884C461.082 954.985 486.588 941.721 508.811 925.772C530.638 907.754 407.599 970.263 398.773 972.412Z" fill="#0088CE"/>
<path d="M242.137 1129.18C214.655 1140.47 208.581 1106.87 228.921 1093.27C285.201 1066.53 345.182 1044.96 400.004 1014.55C464.432 982.99 522.966 941.269 577.426 894.779C579.583 897.373 581.797 899.917 584.066 902.411C507.118 964.966 425.581 1023.05 348.768 1085.27C341.068 1092.9 332.224 1108.25 320.2 1105.32C313.64 1103.73 317.938 1095.22 320.605 1092.44C335.369 1077.09 357.644 1065.91 375.438 1054.3C395.06 1041.5 413.433 1027.94 431.169 1012.66C449.966 996.462 408.813 1021.84 403.65 1023.91C357.79 1051.95 292.436 1060.04 264.076 1108.21C258.21 1116.96 252.429 1124.98 242.137 1129.18Z" fill="#0088CE"/>
<path d="M399.506 1282.21C389.015 1295.09 363.274 1292.74 362.159 1273.68C360.239 1246.37 390.704 1236.44 405.756 1219.12C440.656 1174.03 458.119 1108.08 481.823 1056.83C445.843 1080.39 385.259 1179.76 371.776 1223.5C371.183 1240.97 342.609 1264.82 338.82 1236.26C341.074 1217.15 362.409 1209.03 372.255 1194.16C390.578 1168.94 403.475 1139.72 422.98 1115.16C424.244 1113.3 424.894 1112.02 424.691 1111.69C399.378 1132.77 378.158 1162.66 354.839 1186.52C326.146 1214.61 329.244 1202.81 328.714 1242.77C328.671 1246.26 327.886 1249.74 326.324 1252.88C307.113 1291.59 263.978 1253.25 300.06 1221.59C300.877 1220.88 301.661 1220.11 302.379 1219.3C389.683 1120.09 466.754 1056.64 558.786 961.982C564.186 955.953 572.333 947.051 575.729 940.337C576.165 938.999 574.587 939.853 571.782 942.166C508.523 998.914 439.153 1043.16 384.25 1109.46C362.425 1129.62 318.763 1205.79 288.235 1191.14C273.832 1177.3 298 1165.92 309.947 1162.29C341.041 1153.45 358.877 1125.57 378.7 1102.26C386.189 1092.45 425.719 1054.24 390.522 1080.16C357.225 1100.64 329.069 1132.09 293.548 1148.92C279.949 1155.77 255.969 1140.83 275.279 1129.16C293.333 1120.62 317.698 1125.54 333.608 1110.46C417.905 1042.57 513.928 986.104 593.578 912.246C597.389 915.955 601.33 919.531 605.396 922.964C577.815 956.682 550.778 990.256 546.013 994.126C501.992 1037.66 468.059 1087.88 455.176 1151.14C447.901 1160.15 460.143 1244.97 444.029 1223.91C438.274 1215.8 445.049 1181.99 437.899 1181.14C430.76 1195.94 419.365 1213.74 414.555 1230.16C410.103 1247.82 412.855 1268.05 399.506 1282.21Z" fill="#0088CE"/>
<path d="M475.274 1200.11C460.91 1208.45 453.316 1189.88 458.744 1177.87C476.957 1096.84 540.445 1038.81 585.01 974.332C578.178 974.738 525.564 1042.57 536.119 1018.1C557.783 985.371 586.526 958.117 613.263 929.312C616.055 931.464 618.898 933.552 621.792 935.574C620.18 938.028 618.999 939.848 618.538 940.554C582.703 999.543 529.929 1046.08 495.348 1105.64C474.127 1133.02 496.852 1174.78 475.274 1200.11Z" fill="#0088CE"/>
<path d="M446.949 1308.48C422.863 1324.26 410.066 1291.51 426.546 1274.55C480.94 1206.73 529.342 1150.85 558.183 1072.37C551.14 1077.98 534.645 1100.88 520.983 1113.06C514.922 1118.45 506.072 1110.91 510.523 1104.11C521.87 1086.8 542.609 1073.93 555.487 1058.52C586.164 1024.88 606.579 981.175 627.514 939.442C630.749 941.558 634.042 943.594 637.391 945.545C633.446 952.973 629.663 959.835 626.256 965.619C575.336 1055.94 530.383 1175.15 458.622 1251.24C428.704 1282.96 469.033 1287.38 446.949 1308.48Z" fill="#0088CE"/>
<path d="M577.725 1125.67C560.171 1142.09 502.495 1299.31 470.983 1289.99C458.174 1271.17 486.197 1252.99 496.501 1239.62C531.518 1185.94 624.595 1024.52 662.648 958.203C667.498 960.262 672.435 962.154 677.451 963.875C665.205 1001.07 653.942 1041.35 636.989 1070.24C635.973 1071.97 633.307 1071 633.616 1069.02C636.129 1052.51 631.882 1066.23 623.847 1078.75C607.883 1097.53 606.518 1168.14 576.927 1161.27C557.982 1142.52 596.237 1115.9 604.714 1100.04C620.131 1076.81 634.113 1051.69 643.876 1026.14C652.17 999.076 583.909 1119.02 577.725 1125.67Z" fill="#0088CE"/>
<path d="M533.337 1342.79C516.62 1367.36 493.043 1342.66 502.528 1320.1C534.773 1266.78 572.952 1215.74 601.962 1160.17C637.776 1099.32 663.406 1033.39 683.129 965.739C686.312 966.737 689.525 967.666 692.768 968.524C663.204 1061.98 627.64 1154.28 598.148 1247.41C595.926 1258.02 596.997 1275.7 585.352 1279.88C578.998 1282.17 577.897 1272.69 578.596 1268.91C582.462 1247.97 594.894 1226.36 603.351 1206.87C612.68 1185.38 620.542 1163.94 626.929 1141.42C633.698 1117.55 613.331 1161.4 610.162 1165.97C587.329 1214.64 537.236 1257.38 540.096 1313.2C540.021 1323.74 539.612 1333.62 533.337 1342.79Z" fill="#0088CE"/>
<path d="M671.735 1399.67C677.021 1442.55 619.902 1434.31 632.58 1388.02C632.871 1386.97 633.103 1385.9 633.255 1384.83C651.476 1253.93 680.857 1158.53 705.532 1028.83C706.718 1020.83 708.616 1008.91 707.752 1001.44C707.379 1000.08 706.532 1001.66 705.465 1005.13C683.923 1087.34 650.392 1162.48 641.088 1248.06C633.978 1276.91 639.485 1364.52 605.938 1369.11C586.293 1365.5 600.201 1342.69 608.173 1333.08C629.255 1308.57 628.784 1275.48 632.493 1245.11C633.339 1232.79 645.281 1179.12 630.184 1220.15C613.675 1255.58 607.498 1297.34 587.117 1330.95C579.541 1344.16 551.298 1344.9 560.989 1324.52C571.348 1307.44 594.398 1298.14 599.372 1276.79C631.97 1174.83 680.293 1075.89 706.311 971.662C711.663 972.728 717.084 973.603 722.565 974.282C718.266 1016.33 714.369 1057.01 712.576 1062.7C699.813 1123.28 699.152 1183.88 723.241 1243.78C722.135 1255.31 779.07 1319.36 754.02 1310.65C744.751 1307.06 731.782 1275.11 725.347 1278.33C727.538 1294.62 727.835 1315.76 732.861 1332.11C738.875 1349.3 752.31 1364.66 748.973 1383.84C747.309 1400.37 724.532 1412.59 713.102 1397.29C696.456 1375.55 716.413 1350.48 719.44 1327.74C723.731 1270.88 701.982 1206.22 693.536 1150.39C676.486 1189.87 680.652 1306.18 693.491 1350.11C702.617 1365.02 691.905 1400.66 673.009 1378.91C664.365 1361.72 677.701 1343.19 677.731 1325.36C679.133 1294.22 673.803 1262.73 676.556 1231.49C676.582 1229.23 676.423 1227.81 676.069 1227.64C666.552 1259.18 665.307 1295.82 658.983 1328.57C650.51 1367.83 646.596 1356.27 668.16 1389.91C670.051 1392.85 671.309 1396.18 671.735 1399.67Z" fill="#0088CE"/>
<path d="M766.993 1273.59C759.594 1288.45 743.029 1277.14 740.941 1264.12C711.516 1186.46 732.542 1103.06 734.222 1024.7C728.743 1028.8 722.193 1114.4 717.521 1088.15C717.576 1050.16 725.991 1012.8 732.38 975.28C736.092 975.576 739.829 975.782 743.59 975.896C743.596 976.886 743.599 977.622 743.602 978.037C746.183 1047.01 727.769 1114.92 731.709 1183.67C729.078 1218.22 771.048 1240.55 766.993 1273.59Z" fill="#0088CE"/>
<path d="M803.036 1379.63C791.627 1406.07 762.908 1385.78 767.323 1362.55C775.367 1275.99 784.983 1202.69 765.827 1121.3C763.043 1129.86 761.887 1158.06 757.192 1175.75C755.107 1183.59 743.563 1182.17 743.536 1174.04C743.473 1153.35 753.693 1131.18 755.954 1111.23C762.832 1067.49 756.369 1021.15 750.938 975.999C754.797 975.992 758.633 975.887 762.444 975.688C763.07 982.597 763.56 989.047 763.849 994.706C771.098 1098.14 799.238 1222.4 781.253 1325.43C773.753 1368.38 809.847 1349.86 803.036 1379.63Z" fill="#0088CE"/>
<path d="M980.206 1358.52L1048.9 1262.83L854.284 1335.38L980.206 1358.52Z" fill="#008770"/>
<path d="M915.533 115.34L803.693 152.412L1003.81 208.098L915.533 115.34Z" fill="#008770"/>
<path d="M1157.98 238.991L1040.73 227.355L1200.9 359.63L1157.98 238.991Z" fill="#008770"/>
<path d="M1329.16 450.56L1226.8 392.249L1319.3 578.202L1329.16 450.56Z" fill="#008770"/>
<path d="M1399.5 713.439L1329.7 618.544L1338.56 826.046L1399.5 713.439Z" fill="#008770"/>
<path d="M1255.35 1060.32L1356.81 982.213L1331.66 867.134L1255.35 1060.32Z" fill="#008770"/>
<path d="M1208.52 1210.39L1232.33 1095.03L1084.06 1240.48L1208.52 1210.39Z" fill="#008770"/>
<path d="M1073.4 1248.39L1115.99 1151.25L958.192 1251.55L1073.4 1248.39Z" fill="#008770"/>
<path d="M844.679 1336.07L923.075 1264.66L738.144 1292.13L844.679 1336.07Z" fill="#008770"/>
<path d="M783.791 165.928L692.266 219.477L878.87 231.062L783.791 165.928Z" fill="#008770"/>
<path d="M1020.39 229.414L914.991 241.128L1080.77 327.604L1020.39 229.414Z" fill="#008770"/>
<path d="M1210.71 383.65L1109.68 351.469L1225.92 497.879L1210.71 383.65Z" fill="#008770"/>
<path d="M1321.85 601.939L1242.63 531.45L1289.28 712.512L1321.85 601.939Z" fill="#008770"/>
<path d="M1259.86 934.328L1334.57 846.564L1290.88 749.945L1259.86 934.328Z" fill="#008770"/>
<path d="M1246.7 1075.23L1246.08 969.186L1142.74 1124.99L1246.7 1075.23Z" fill="#008770"/>
<path d="M1115.55 1117.37L1134.55 1025.36L1016.3 1141.37L1115.55 1117.37Z" fill="#008770"/>
<path d="M933.477 1235.51L988.264 1159.18L833.044 1217.05L933.477 1235.51Z" fill="#008770"/>
<path d="M881.909 244.063L792.727 273.618L952.298 318.027L881.909 244.063Z" fill="#008770"/>
<path d="M1075.26 342.665L981.75 333.397L1109.47 438.872L1075.26 342.665Z" fill="#008770"/>
<path d="M1211.76 511.395L1130.12 464.9L1203.91 613.189L1211.76 511.395Z" fill="#008770"/>
<path d="M1219.28 810.856L1267.86 721.059L1212.2 645.37L1219.28 810.856Z" fill="#008770"/>
<path d="M1233.83 935.383L1213.77 843.604L1152.91 997.685L1233.83 935.383Z" fill="#008770"/>
<path d="M1139.75 1005.49L1139.26 922.253L1058.16 1044.57L1139.75 1005.49Z" fill="#008770"/>
<path d="M1003.74 1141.39L1037.16 1065.16L913.32 1143.91L1003.74 1141.39Z" fill="#008770"/>
<path d="M824.213 1210.23L885.745 1154.19L740.566 1175.73L824.213 1210.23Z" fill="#008770"/>
<path d="M776.43 291.768L704.574 333.809L851.067 342.896L776.43 291.768Z" fill="#008770"/>
<path d="M962.133 341.609L879.412 350.774L1009.51 418.663L962.133 341.609Z" fill="#008770"/>
<path d="M1111.51 462.66L1032.21 437.405L1123.46 552.329L1111.51 462.66Z" fill="#008770"/>
<path d="M1173.17 720.776L1198.74 634.017L1136.56 578.666L1173.17 720.776Z" fill="#008770"/>
<path d="M1208.73 826.02L1174.43 750.176L1150.08 894.887L1208.73 826.02Z" fill="#008770"/>
<path d="M1127.39 898.491L1112.02 826.715L1063.88 947.56L1127.39 898.491Z" fill="#008770"/>
<path d="M1034.22 1041.4L1049.41 969.289L956.493 1060.53L1034.22 1041.4Z" fill="#008770"/>
<path d="M891.383 1134.54L934.506 1074.58L812.91 1120.46L891.383 1134.54Z" fill="#008770"/>
<path d="M854.721 358.601L784.848 382.054L909.508 416.243L854.721 358.601Z" fill="#008770"/>
<path d="M1005.56 435.088L932.472 428.163L1031.98 510.262L1005.56 435.088Z" fill="#008770"/>
<path d="M1105.17 646.374L1111.71 566.643L1048.02 530.549L1105.17 646.374Z" fill="#008770"/>
<path d="M1154.81 730.585L1111.53 671.526L1116.48 801.048L1154.81 730.585Z" fill="#008770"/>
<path d="M1039.02 943.673L1038.65 880.927L977.513 973.135L1039.02 943.673Z" fill="#008770"/>
<path d="M936.484 1046.13L961.676 988.661L868.32 1048.03L936.484 1046.13Z" fill="#008770"/>
<path d="M801.145 1098.03L847.532 1055.77L738.086 1072.02L801.145 1098.03Z" fill="#008770"/>
<path d="M765.123 405.624L710.953 437.317L821.389 444.168L765.123 405.624Z" fill="#008770"/>
<path d="M905.119 443.198L842.758 450.107L940.831 501.286L905.119 443.198Z" fill="#008770"/>
<path d="M1017.73 534.455L957.95 515.415L1026.73 602.053L1017.73 534.455Z" fill="#008770"/>
<path d="M1064.21 729.04L1083.49 663.635L1036.61 621.907L1064.21 729.04Z" fill="#008770"/>
<path d="M1091.02 808.38L1065.16 751.204L1046.8 860.296L1091.02 808.38Z" fill="#008770"/>
<path d="M1020.97 855.668L1009.88 803.915L975.169 891.049L1020.97 855.668Z" fill="#008770"/>
<path d="M953.783 958.71L964.736 906.716L897.74 972.503L953.783 958.71Z" fill="#008770"/>
<path d="M850.792 1025.87L881.886 982.638L794.211 1015.72L850.792 1025.87Z" fill="#008770"/>
<path d="M824.358 466.387L773.977 483.297L863.862 507.949L824.358 466.387Z" fill="#008770"/>
<path d="M933.122 521.537L880.42 516.543L952.168 575.74L933.122 521.537Z" fill="#008770"/>
<path d="M1004.94 673.882L1009.66 616.393L963.733 590.368L1004.94 673.882Z" fill="#008770"/>
<path d="M1040.74 734.601L1009.53 692.018L1013.09 785.408L1040.74 734.601Z" fill="#008770"/>
<path d="M994.837 795.493L977.452 754.052L962.188 832.215L994.837 795.493Z" fill="#008770"/>
<path d="M954.982 892.035L955.945 846.929L910.388 912.355L954.982 892.035Z" fill="#008770"/>
<path d="M879.607 964.268L898.754 923.305L830.799 964.692L879.607 964.268Z" fill="#008770"/>
<path d="M781.76 999.724L815.772 969.978L737.159 980.173L781.76 999.724Z" fill="#008770"/>
<path d="M769.578 501.591L730.198 523.623L809.074 530.059L769.578 501.591Z" fill="#008770"/>
<path d="M869.002 530.506L824.242 534.627L893.417 572.739L869.002 530.506Z" fill="#008770"/>
<path d="M952.885 646.33L947.78 597.62L905.367 583.126L952.885 646.33Z" fill="#008770"/>
<path d="M992.296 691.366L959.563 660.741L977.221 738.105L992.296 691.366Z" fill="#008770"/>
<circle cx="750.129" cy="750" r="225" fill="white"/>
</svg>
