<svg width="1500" height="1501" viewBox="0 0 1500 1501" fill="none" xmlns="http://www.w3.org/2000/svg">
<circle cx="749.629" cy="750.625" r="585.5" fill="#DAD7CB" fill-opacity="0.5"/>
<circle cx="749.629" cy="750.625" r="225" fill="white"/>
<path d="M804.22 341.523C814.27 377.033 805.34 415.803 780.35 445.233C755.59 474.393 750.8 502.483 750.46 518.483C761.26 481.623 783.04 459.433 800.34 446.963C831.88 424.243 851.16 388.453 851.9 351.213C853.44 274.193 801.57 241.233 785.64 232.963C779.49 229.773 774.25 226.313 769.6 222.393C749.86 205.733 719.45 168.033 735.28 101.633H669.76C667.87 113.433 659.49 183.613 715.43 242.723C723.11 250.843 732.45 258.133 743.96 265.023C774.81 283.473 795.08 309.213 804.22 341.523Z" fill="#AA9C8F"/>
<path d="M906.3 368.683C907 405.573 888.53 440.813 856.89 462.933C825.54 484.853 813.77 510.803 809.38 526.193C829.19 493.283 855.88 477.353 875.78 469.683C912.06 455.713 939.79 425.983 949.96 390.163C971 316.053 929.2 271.013 915.88 258.973C910.74 254.323 906.55 249.653 903.05 244.673C888.19 223.543 868.34 179.363 900.51 119.153L837.14 102.523C832.31 113.463 806.39 179.213 845.5 250.583C850.87 260.383 858.04 269.813 867.43 279.393C892.58 305.073 905.66 335.113 906.3 368.683Z" fill="#AA9C8F"/>
<path d="M1003.32 424.848C994.07 460.568 966.79 489.528 930.36 502.318C894.27 514.988 875.95 536.818 867.58 550.458C895.51 524.088 925.51 515.928 946.74 513.908C985.44 510.218 1020.15 489.048 1039.58 457.288C1079.79 391.578 1051.65 336.948 1042.07 321.768C1038.37 315.908 1035.59 310.278 1033.56 304.548C1024.93 280.198 1017.71 232.298 1064.9 182.978L1008.34 149.898C1000.75 159.128 958.09 215.478 976.54 294.748C979.07 305.638 983.45 316.648 989.91 328.398C1007.22 359.898 1011.73 392.348 1003.31 424.848H1003.32Z" fill="#AA9C8F"/>
<path d="M1078.42 500.733C1060.31 532.883 1026.52 553.883 988.03 556.903C949.89 559.893 926.59 576.293 915 587.333C948.76 569.013 979.85 568.823 1000.89 572.313C1039.24 578.673 1078.22 567.113 1105.15 541.403C1160.87 488.203 1147.69 428.183 1142.32 411.053C1140.25 404.443 1139 398.283 1138.51 392.223C1136.42 366.473 1141.72 318.323 1199.98 282.753L1153.8 236.273C1144.09 243.253 1088.4 286.773 1085.91 368.113C1085.57 379.283 1086.97 391.043 1090.2 404.073C1098.85 438.963 1094.89 471.483 1078.41 500.733H1078.42Z" fill="#AA9C8F"/>
<path d="M1129.86 589.357C1104.39 616.057 1066.47 628.077 1028.42 621.517C990.72 615.017 964.1 625.167 950.15 633.017C987.38 623.587 1017.56 631.057 1037.09 639.617C1072.69 655.227 1113.31 653.637 1145.75 635.347C1212.86 597.517 1214.88 536.097 1213.89 518.177C1213.51 511.257 1213.82 504.987 1214.84 498.987C1219.16 473.517 1236.16 428.157 1301.39 408.037L1268.08 351.617C1256.95 355.987 1192.26 384.447 1169.8 462.667C1166.71 473.407 1165.18 485.157 1165.1 498.577C1164.89 534.517 1153.03 565.067 1129.86 589.357Z" fill="#AA9C8F"/>
<path d="M1159.29 697.825C1127.56 716.665 1087.8 718.015 1052.93 701.425C1018.38 684.995 990.01 687.585 974.46 691.375C1012.86 692.335 1039.9 707.675 1056.4 721.185C1086.47 745.825 1126.01 755.245 1162.19 746.395C1237.02 728.075 1255.53 669.475 1259.42 651.955C1260.92 645.195 1262.91 639.235 1265.51 633.735C1276.54 610.375 1305.15 571.285 1373.39 569.515L1356.54 506.195C1344.65 507.395 1274.67 517.345 1231.94 586.615C1226.07 596.125 1221.42 607.025 1217.73 619.925C1207.83 654.485 1188.17 680.695 1159.3 697.835L1159.29 697.825Z" fill="#AA9C8F"/>
<path d="M1159.63 800.709C1124.23 811.109 1085.37 802.579 1055.69 777.889C1026.28 753.419 998.14 748.918 982.14 748.738C1019.11 759.168 1041.52 780.719 1054.16 797.899C1077.2 829.209 1113.19 848.118 1150.42 848.488C1227.45 849.248 1259.88 797.049 1267.99 781.029C1271.12 774.849 1274.52 769.568 1278.4 764.878C1294.86 744.968 1332.25 714.179 1398.81 729.339L1398.15 663.818C1386.33 662.038 1316.07 654.378 1257.53 710.918C1249.49 718.688 1242.29 728.088 1235.52 739.668C1217.38 770.698 1191.85 791.238 1159.64 800.699L1159.63 800.709Z" fill="#AA9C8F"/>
<path d="M1131.83 907.194C1094.93 907.874 1059.71 889.374 1037.61 857.714C1015.72 826.344 989.77 814.564 974.38 810.164C1007.28 829.994 1023.19 856.704 1030.84 876.604C1044.78 912.894 1074.49 940.644 1110.31 950.844C1184.4 971.944 1229.48 930.164 1241.53 916.864C1246.18 911.734 1250.86 907.534 1255.84 904.044C1276.98 889.194 1321.18 869.384 1381.36 901.594L1398.04 838.234C1387.11 833.394 1321.37 807.434 1249.97 846.484C1240.16 851.844 1230.73 859.014 1221.14 868.394C1195.44 893.524 1165.39 906.584 1131.82 907.194H1131.83Z" fill="#AA9C8F"/>
<path d="M1076.78 1002.65C1041.02 993.544 1011.95 966.384 999.02 930.004C986.21 893.964 964.3 875.734 950.63 867.414C977.11 895.244 985.39 925.204 987.5 946.434C991.34 985.114 1012.65 1019.74 1044.49 1039.05C1110.36 1079 1164.88 1050.65 1180.02 1041C1185.86 1037.28 1191.48 1034.47 1197.21 1032.42C1221.52 1023.7 1269.39 1016.28 1318.91 1063.27L1351.76 1006.58C1342.5 999.024 1285.98 956.594 1206.79 975.364C1195.91 977.944 1184.92 982.354 1173.19 988.864C1141.76 1006.3 1109.32 1010.94 1076.79 1002.65H1076.78Z" fill="#AA9C8F"/>
<path d="M1000.99 1078.21C968.78 1060.21 947.67 1026.49 944.52 988.008C941.41 949.878 924.92 926.638 913.85 915.078C932.28 948.778 932.58 979.868 929.16 1000.92C922.93 1039.29 934.61 1078.23 960.42 1105.08C1013.8 1160.62 1073.78 1147.24 1090.89 1141.81C1097.49 1139.72 1103.65 1138.45 1109.71 1137.94C1135.45 1135.76 1183.61 1140.9 1219.38 1199.04L1265.7 1152.7C1258.69 1143.02 1214.99 1087.47 1133.63 1085.25C1122.46 1084.94 1110.7 1086.39 1097.69 1089.66C1062.83 1098.43 1030.3 1094.57 1000.99 1078.2V1078.21Z" fill="#AA9C8F"/>
<path d="M908.05 1131.84C881.57 1106.14 869.86 1068.12 876.74 1030.13C883.56 992.488 873.63 965.778 865.91 951.758C875.03 989.068 867.3 1019.19 858.57 1038.64C842.66 1074.11 843.91 1114.74 861.92 1147.34C899.18 1214.77 960.58 1217.3 978.51 1216.47C985.43 1216.15 991.7 1216.51 997.69 1217.58C1023.12 1222.11 1068.33 1239.5 1087.9 1304.89L1144.6 1272.06C1140.33 1260.9 1112.42 1195.96 1034.38 1172.84C1023.66 1169.66 1011.93 1168.03 998.52 1167.84C962.58 1167.33 932.14 1155.21 908.04 1131.83L908.05 1131.84Z" fill="#AA9C8F"/>
<path d="M803.39 1159.83C784.51 1128.13 783.1 1088.37 799.64 1053.48C816.02 1018.91 813.39 990.542 809.58 974.992C808.67 1013.39 793.37 1040.45 779.88 1056.97C755.28 1087.07 745.92 1126.63 754.82 1162.79C773.24 1237.59 831.87 1256.02 849.4 1259.88C856.16 1261.37 862.13 1263.36 867.63 1265.95C891 1276.94 930.13 1305.5 932.01 1373.73L995.3 1356.79C994.08 1344.9 984.03 1274.94 914.71 1232.3C905.19 1226.44 894.29 1221.81 881.38 1218.13C846.81 1208.28 820.57 1188.66 803.39 1159.81V1159.83Z" fill="#AA9C8F"/>
<path d="M694.07 1159.5C684.17 1123.95 693.26 1085.22 718.37 1055.89C743.25 1026.84 748.16 998.756 748.56 982.766C737.6 1019.59 715.74 1041.68 698.38 1054.08C666.74 1076.67 647.32 1112.38 646.42 1149.61C644.56 1226.63 696.29 1259.8 712.19 1268.13C718.32 1271.35 723.56 1274.83 728.19 1278.77C747.86 1295.51 778.12 1333.34 762.01 1399.68L827.53 1399.95C829.47 1388.16 838.15 1318.01 782.45 1258.67C774.8 1250.52 765.5 1243.19 754.01 1236.25C723.24 1217.67 703.07 1191.85 694.07 1159.5Z" fill="#AA9C8F"/>
<path d="M589.06 1130.63C588.81 1093.73 607.71 1058.72 639.62 1036.99C671.24 1015.46 683.32 989.653 687.89 974.312C667.69 1006.98 640.8 1022.58 620.8 1030.01C584.36 1043.54 556.26 1072.93 545.66 1108.62C523.72 1182.47 564.97 1228.02 578.14 1240.22C583.22 1244.93 587.36 1249.66 590.8 1254.67C605.4 1275.98 624.71 1320.4 591.81 1380.21L654.98 1397.61C659.94 1386.73 686.66 1321.3 648.42 1249.46C643.17 1239.59 636.11 1230.08 626.84 1220.38C602 1194.4 589.29 1164.2 589.06 1130.63Z" fill="#AA9C8F"/>
<path d="M497.2 1076.81C506.4 1041.07 533.62 1012.07 570.03 999.217C606.1 986.487 624.38 964.627 632.73 950.977C604.84 977.387 574.85 985.597 553.63 987.657C514.94 991.407 480.26 1012.64 460.88 1044.43C420.77 1110.2 449 1164.79 458.61 1179.96C462.31 1185.81 465.11 1191.44 467.15 1197.17C475.81 1221.5 483.11 1269.39 436.01 1318.79L492.62 1351.77C500.2 1342.53 542.77 1286.11 524.19 1206.87C521.64 1195.99 517.25 1184.99 510.77 1173.24C493.41 1141.77 488.84 1109.32 497.21 1076.81H497.2Z" fill="#AA9C8F"/>
<path d="M421.23 1000.06C439.38 967.925 473.2 946.975 511.7 944.015C549.84 941.085 573.17 924.715 584.77 913.695C550.98 931.965 519.89 932.115 498.86 928.595C460.52 922.185 421.53 933.685 394.55 959.355C338.75 1012.48 351.85 1072.52 357.19 1089.66C359.25 1096.27 360.49 1102.43 360.97 1108.5C363.02 1134.25 357.65 1182.39 299.34 1217.88L345.46 1264.42C355.18 1257.46 410.93 1214.02 413.54 1132.67C413.9 1121.5 412.51 1109.73 409.3 1096.71C400.7 1061.81 404.71 1029.29 421.22 1000.06H421.23Z" fill="#AA9C8F"/>
<path d="M367.89 906.508C393.74 880.168 431.82 868.688 469.78 875.778C507.38 882.808 534.15 873.038 548.21 865.388C510.85 874.298 480.78 866.398 461.37 857.558C425.99 841.438 385.35 842.468 352.66 860.288C285.02 897.158 282.14 958.548 282.87 976.488C283.15 983.408 282.75 989.678 281.65 995.658C276.97 1021.06 259.33 1066.18 193.82 1085.37L226.32 1142.26C237.51 1138.05 302.6 1110.51 326.16 1032.61C329.4 1021.91 331.1 1010.19 331.37 996.768C332.09 960.828 344.38 930.458 367.89 906.498V906.508Z" fill="#AA9C8F"/>
<path d="M340.59 802.522C372.36 783.752 412.12 782.492 446.95 799.152C481.46 815.662 509.84 813.132 525.4 809.372C487 808.322 460 792.932 443.53 779.372C413.52 754.662 373.99 745.152 337.8 753.932C262.93 772.082 244.29 830.642 240.36 848.162C238.84 854.922 236.84 860.872 234.23 866.372C223.15 889.702 194.45 928.732 126.21 930.352L142.92 993.702C154.82 992.522 224.81 982.732 267.7 913.562C273.59 904.062 278.27 893.182 281.99 880.292C291.97 845.762 311.68 819.592 340.59 802.512V802.522Z" fill="#AA9C8F"/>
<path d="M341.28 693.564C376.86 683.764 415.56 692.954 444.82 718.154C473.81 743.114 501.86 748.104 517.86 748.554C481.08 737.494 459.04 715.564 446.69 698.174C424.19 666.474 388.53 646.954 351.31 645.944C274.3 643.864 240.98 695.504 232.61 711.384C229.38 717.504 225.88 722.734 221.93 727.354C205.13 746.974 167.22 777.134 100.93 760.834L100.47 826.354C112.26 828.334 182.38 837.194 241.87 781.664C250.04 774.034 257.4 764.754 264.37 753.294C283.04 722.574 308.91 702.484 341.28 693.564Z" fill="#AA9C8F"/>
<path d="M369.3 591.343C406.2 590.933 441.29 609.673 463.16 641.493C484.83 673.013 510.69 684.983 526.05 689.493C493.29 669.433 477.57 642.613 470.06 622.653C456.37 586.263 426.86 558.303 391.12 547.853C317.18 526.233 271.81 567.683 259.66 580.903C254.97 586.003 250.26 590.163 245.26 593.623C224.02 608.323 179.68 627.823 119.72 595.183L102.59 658.423C113.49 663.333 179.03 689.773 250.71 651.223C260.56 645.933 270.04 638.833 279.69 629.513C305.57 604.563 335.71 591.723 369.28 591.343H369.3Z" fill="#AA9C8F"/>
<path d="M423.46 498.282C459.21 507.432 488.25 534.612 501.15 571.002C513.93 607.062 535.82 625.312 549.48 633.632C523.03 605.782 514.78 575.802 512.69 554.582C508.88 515.892 487.61 481.252 455.79 461.912C389.96 421.902 335.41 450.202 320.26 459.832C314.41 463.542 308.79 466.342 303.06 468.392C278.74 477.092 230.86 484.462 181.39 437.422L148.49 494.082C157.74 501.652 214.22 544.142 293.43 525.442C304.31 522.872 315.3 518.472 327.04 511.972C358.49 494.562 390.93 489.952 423.45 498.282H423.46Z" fill="#AA9C8F"/>
<path d="M501.44 421.194C533.52 439.434 554.38 473.304 557.24 511.814C560.07 549.964 576.38 573.334 587.37 584.964C569.19 551.124 569.12 520.034 572.7 499.014C579.22 460.694 567.82 421.664 542.21 394.624C489.24 338.684 429.16 351.624 412.01 356.924C405.39 358.964 399.23 360.184 393.16 360.654C367.41 362.644 319.28 357.144 283.94 298.734L237.28 344.724C244.22 354.464 287.51 410.324 368.85 413.154C380.02 413.544 391.79 412.184 404.82 409.014C439.74 400.504 472.25 404.604 501.44 421.194Z" fill="#AA9C8F"/>
<path d="M592.53 369.174C618.98 394.914 630.62 432.954 623.68 470.934C616.8 508.564 626.69 535.294 634.39 549.314C625.33 511.984 633.1 481.884 641.86 462.444C657.83 427.004 656.64 386.364 638.68 353.744C601.53 286.254 540.13 283.634 522.19 284.434C515.27 284.744 509 284.374 503.01 283.294C477.59 278.724 432.4 261.264 412.93 195.844L356.18 228.584C360.44 239.754 388.25 304.734 466.24 327.974C476.95 331.164 488.68 332.824 502.1 333.034C538.04 333.604 568.46 345.764 592.52 369.184L592.53 369.174Z" fill="#AA9C8F"/>
<path d="M696.57 341.413C715.46 373.113 716.86 412.873 700.34 447.763C683.96 482.333 686.6 510.713 690.41 526.253C691.31 487.853 706.61 460.783 720.1 444.273C744.69 414.163 754.06 374.603 745.15 338.453C726.72 263.653 668.09 245.233 650.56 241.363C643.8 239.873 637.83 237.893 632.33 235.303C608.96 224.313 569.82 195.763 567.94 127.523L504.65 144.463C505.87 156.353 515.93 226.313 585.26 268.943C594.78 274.803 605.68 279.433 618.59 283.103C653.16 292.953 679.4 312.563 696.58 341.413H696.57Z" fill="#AA9C8F"/>
</svg>
