<svg width="1501" height="1501" viewBox="0 0 1501 1501" fill="none" xmlns="http://www.w3.org/2000/svg">
<circle cx="750" cy="750.5" r="585.5" fill="#DAD7CB" fill-opacity="0.5"/>
<path d="M755.968 519.723C753.337 519.634 750.696 519.588 748.043 519.588C746.27 519.588 744.502 519.61 742.738 519.65C744.174 502.191 743.579 483.893 742.982 465.739C742.481 452.304 742.08 438.968 742.481 426.134C743.584 405.68 745.589 398.46 743.784 392.343C742.079 386.428 736.765 381.614 723.631 366.976C721.325 364.269 719.519 361.261 718.516 357.852C706.384 316.241 764.238 315.239 759.125 363.066C759.025 364.068 759.025 365.171 759.025 366.274C760.27 421.623 758.603 471.147 755.968 519.723Z" fill="#0088CE"/>
<path d="M695.323 525.638C694.353 523.95 693.362 522.266 692.347 520.586C692.046 515.873 680.816 504.141 669.385 492.109C652.741 474.563 635.595 456.616 651.137 459.323C655.749 460.326 662.267 467.444 668.383 474.262C675.201 481.782 681.618 488.901 684.726 486.696C683.222 481.783 681.819 476.468 680.415 470.853C677.307 458.42 673.897 445.285 668.683 434.656C665.976 429.743 662.668 425.03 659.259 420.418C651.739 409.89 644.219 399.563 644.419 386.027C643.417 369.382 664.072 353.64 677.808 366.976C691.545 379.91 688.437 397.157 685.328 414.202C683.925 421.923 682.52 429.543 682.721 436.763C685.223 465.242 694.425 494.585 705.168 523.564C701.861 524.186 698.579 524.878 695.323 525.638Z" fill="#0088CE"/>
<path d="M734.04 520.007C727.374 477.502 715.678 433.027 704.88 410.391C693.45 397.056 698.363 360.158 720.522 378.607C727.54 388.333 726.237 399.964 724.934 411.595C724.132 418.614 723.33 425.633 724.433 432.35C726.137 446.488 729.145 460.426 732.153 474.363C735.385 489.353 738.695 504.424 740.217 519.719C738.151 519.788 736.092 519.884 734.04 520.007Z" fill="#0088CE"/>
<path d="M632.585 550.499C630.662 540.957 628.936 531.444 627.453 521.979C594.123 484.973 561.21 444.837 572.326 430.546C589.371 426.736 597.292 444.985 603.91 460.226C606.015 464.938 607.92 469.45 610.026 472.859C613.777 478.147 618.337 484.39 623.549 491.403C622.176 477.145 621.489 463.051 621.659 449.195C621.959 425.533 614.339 422.424 607.721 419.717C602.106 417.411 597.092 415.405 597.995 401.367C605.014 373.393 630.081 386.529 629.479 410.192C629.981 417.912 630.482 425.432 630.983 432.852C632.731 459.275 634.397 484.596 636.998 509.306C643.643 518.071 650.915 527.563 658.618 537.553C654.561 539.259 650.563 541.078 646.628 543.006C644.536 540.726 642.409 538.408 640.259 536.061C640.702 539.219 641.169 542.37 641.659 545.515C638.593 547.11 635.568 548.773 632.585 550.499Z" fill="#0088CE"/>
<path d="M607.336 567.425C605.926 565.353 604.517 563.275 603.108 561.194C581.852 529.911 560.594 498.326 525.3 486.495C515.574 482.484 506.45 478.474 500.233 469.25C483.489 444.684 515.173 431.749 532.72 448.895C547.058 467.745 560.895 487.298 574.632 506.85C587.658 525.458 600.753 544.065 614.442 562.164C612.039 563.873 609.67 565.628 607.336 567.425Z" fill="#0088CE"/>
<path d="M664.442 535.196C654.113 524.242 644.851 512.953 644.319 498.125C649.232 482.284 667.48 490.806 671.591 503.34C676.352 511.579 680.468 520.004 684.043 528.579C677.38 530.498 670.842 532.708 664.442 535.196Z" fill="#0088CE"/>
<path d="M573.629 599.223C563.578 589.403 552.496 580.362 541.343 571.322C523.395 556.683 505.347 541.943 491.611 523.895C482.085 512.064 491.811 485.393 507.252 501.936C512.165 508.353 515.074 516.275 518.082 524.196C522.393 535.927 526.805 547.859 537.634 555.279C552.09 567.091 566.292 579.322 580.357 591.799C578.062 594.225 575.818 596.7 573.629 599.223Z" fill="#0088CE"/>
<path d="M563.087 612.304C558.479 609.672 553.807 607.105 549.064 604.611C542.446 599.898 531.216 594.382 518.683 588.266C485.695 572.123 443.282 551.268 449.097 527.405C459.725 510.46 475.868 531.816 481.884 542.745C494.518 566.709 518.181 578.842 541.343 590.673C545.955 592.979 550.468 595.385 554.98 597.792C557.799 599.201 562.908 602.199 568.409 605.459C566.593 607.706 564.819 609.988 563.087 612.304Z" fill="#0088CE"/>
<path d="M546.362 638.077C532.522 628.349 517.096 619.888 501.737 611.429C490.006 605.012 478.275 598.594 467.447 591.676C450.401 580.346 445.187 574.931 438.97 573.327C432.954 571.823 426.036 573.928 406.785 577.738C403.276 578.44 399.766 578.441 396.357 577.538C354.445 566.609 383.121 516.375 421.624 545.252C422.426 545.954 423.429 546.555 424.332 547.057C471.876 573.864 513.108 600.255 552.986 626.953C550.678 630.593 548.469 634.302 546.362 638.077Z" fill="#0088CE"/>
<path d="M588.299 583.803C580.663 577.457 573.002 571.153 565.307 564.904C563.302 563.601 560.795 562.297 558.288 560.893C549.565 556.081 539.438 550.666 539.739 541.041C539.939 534.222 549.164 536.729 552.473 538.735C565.808 547.057 577.74 559.891 589.171 572.024C591.031 574.02 592.872 575.975 594.701 577.889C592.53 579.82 590.396 581.792 588.299 583.803Z" fill="#0088CE"/>
<path d="M542.041 646.195C502.543 630.539 459.209 618.211 434.558 615.941C417.312 618.948 387.935 595.887 415.207 586.261C427.138 585.158 436.464 592.277 445.788 599.296C451.503 603.507 457.119 607.818 463.436 610.325C476.37 616.14 489.906 620.653 503.442 625.165C517.498 629.822 531.554 634.48 544.973 640.604C543.971 642.453 542.993 644.316 542.041 646.195Z" fill="#0088CE"/>
<path d="M486.697 687.932C463.134 693.347 438.971 698.861 449.198 686.93C452.406 683.42 461.831 681.515 470.855 679.71C480.881 677.705 490.206 675.799 489.906 671.989C484.893 670.786 479.578 669.182 474.064 667.578C461.831 663.969 448.796 660.159 436.965 659.256C431.35 659.056 425.635 659.557 419.919 660.058C407.085 661.161 394.351 662.264 382.82 655.246C367.981 647.625 364.973 621.856 383.422 616.842C401.57 611.729 414.806 623.26 427.841 634.59C433.857 639.703 439.672 644.817 445.989 648.327C471.229 660.621 500.59 667.699 530.459 673.21C529.345 676.351 528.296 679.522 527.316 682.723C525.847 682.71 524.373 682.707 522.894 682.718C518.683 680.613 502.84 684.223 486.697 687.932Z" fill="#0088CE"/>
<path d="M403.977 771.756C394.853 777.17 386.23 782.083 375.101 781.482C345.321 780.078 354.044 746.99 378.308 743.28C401.971 743.18 425.836 743.881 449.8 744.683C469.491 745.34 489.234 745.971 508.951 746.09C484.231 737.046 460.543 726.786 438.713 714.692C416.238 714.776 398.048 712.557 390.658 705.769C386.562 708.453 381.964 709.548 372.392 702.972C351.938 682.618 376.003 667.779 396.056 680.412C402.653 683.663 409.067 686.915 415.386 690.166C420.277 690.898 425.291 692.101 430.047 693.246C435.06 694.45 439.773 695.653 443.784 696.054C453.274 696.322 465.439 696.439 479.528 696.437C483.941 692.571 491.179 690.565 497.527 691.943C506.564 692.063 515.445 692.763 524.189 693.951C522.479 700.755 521.071 707.678 519.98 714.706C505.685 717.844 491.757 719.694 479.089 712.805C473.548 713.232 468.038 713.607 462.629 713.91C481 722.874 499.134 731.235 517.529 738.667C517.335 742.552 517.236 746.463 517.236 750.396C517.236 751.887 517.249 753.375 517.278 754.859C515.007 754.747 512.734 754.629 510.462 754.509C472.661 752.604 434.659 750.699 403.977 771.756Z" fill="#0088CE"/>
<path d="M483.389 790.205C474.265 794.316 463.837 799.128 456.317 793.112C451.003 788.901 458.523 782.985 462.133 781.582C476.772 775.967 494.218 774.062 510.762 772.257C513.255 771.961 515.73 771.682 518.179 771.399C518.444 774.329 518.763 777.244 519.136 780.141C509.67 782.381 500.225 784.662 490.809 786.996C488.503 787.899 485.996 789.002 483.389 790.205Z" fill="#0088CE"/>
<path d="M413.704 821.489C398.463 821.99 383.022 798.226 405.481 795.82C413.603 795.82 421.725 798.226 429.846 800.632C441.878 804.142 454.011 807.751 466.444 803.64C484.452 799.202 502.62 795.228 520.889 791.513C521.482 794.811 522.144 798.085 522.876 801.332C509.07 803.457 495.312 806.823 481.484 810.259C458.924 815.773 436.364 821.388 413.704 821.489Z" fill="#0088CE"/>
<path d="M481.484 838.534C448.596 855.178 406.484 876.534 390.943 857.484C383.724 838.835 410.494 838.735 422.927 840.54C449.598 844.851 473.563 833.219 496.926 821.889C501.638 819.683 506.25 817.377 510.862 815.272C513.633 813.794 519.039 811.634 524.811 809.266C525.549 812.072 526.339 814.857 527.179 817.621C522.396 819.688 517.624 821.842 512.867 824.095C505.047 826.602 493.917 832.217 481.484 838.534Z" fill="#0088CE"/>
<path d="M399.365 929.977C365.575 956.949 342.614 903.808 388.837 890.372C389.939 890.071 390.943 889.67 391.945 889.269C441.917 867.385 487.764 850.324 533.046 834.52C534.64 838.59 536.346 842.604 538.16 846.558C522.012 851.806 505.875 859.056 489.806 866.307C477.573 871.822 465.441 877.337 453.409 881.849C434.058 888.667 426.638 889.57 421.624 893.58C416.811 897.391 414.305 904.109 405.782 921.856C404.278 924.964 402.072 927.771 399.365 929.977Z" fill="#0088CE"/>
<path d="M453.208 922.558C445.187 938.199 409.091 947.724 417.814 920.151C424.131 909.924 435.361 906.716 446.591 903.507C453.409 901.602 460.327 899.596 466.042 896.087C478.476 889.169 490.208 881.147 501.939 873.026C514.124 864.643 526.385 856.187 539.361 849.132C540.261 851.031 541.187 852.916 542.137 854.786C505.815 876.952 469.825 904.209 453.208 922.558Z" fill="#0088CE"/>
<path d="M453.409 987.631C438.469 994.95 416.009 981.815 423.128 964.068C429.946 946.421 447.092 942.812 464.037 939.202C471.657 937.497 479.379 935.893 485.896 932.985C511.085 920.1 534.529 900.712 557.035 880.004C558.881 882.719 560.783 885.391 562.74 888.022C561.681 889.392 560.632 890.777 559.593 892.177C555.381 894.283 548.763 909.123 541.945 924.263C532.119 946.321 521.992 968.981 518.583 953.54C517.781 948.827 521.892 940.205 525.902 931.883C530.314 922.658 534.424 914.036 531.216 912.03C527.206 915.339 522.794 918.648 518.181 922.057C507.954 929.677 497.026 937.899 489.205 946.722C485.695 951.134 482.587 955.947 479.579 960.86C472.76 971.789 465.942 982.618 453.409 987.631Z" fill="#0088CE"/>
<path d="M553.173 1071.86C534.423 1095.02 512.966 1068.35 524.295 1046.59C538.233 1027.34 552.973 1008.59 567.712 989.737C581.202 972.497 594.723 955.256 607.665 937.649C585.414 952.381 562.811 965.628 539.862 976.32C524.05 998.717 508.969 1015.09 497.987 1014.44C497.058 1018.24 494.172 1021.67 485.194 1024.73C456.618 1028.84 459.225 1000.67 481.384 992.244C488.202 988.835 495.02 985.526 501.738 982.217C505.016 980.614 508.274 979.018 511.514 977.43C512.439 976.642 513.359 975.865 514.269 975.099C518.279 971.79 521.99 968.681 524.697 965.673C530.272 958.515 537.184 949.302 545.066 938.58C542.827 932.283 545.596 923.084 551.571 917.945C557.305 910.533 563.437 903.63 569.896 897.158C574.284 902.478 578.906 907.597 583.746 912.502C578.255 924.563 572.292 935.879 561.844 942.622C558.919 947.371 555.966 952.088 553.007 956.701C569.973 947.952 586.395 939.007 602.299 929.377C606.989 933.201 611.833 936.844 616.818 940.296C615.06 942.472 613.293 944.646 611.528 946.823C587.564 976.201 563.6 1005.68 562.397 1042.88C561.394 1053.41 560.192 1063.23 553.173 1071.86Z" fill="#0088CE"/>
<path d="M610.326 1013.3C603.808 1015.1 603.507 1005.48 604.509 1001.77C608.62 986.629 617.444 971.489 625.766 957.05C627.33 954.34 628.894 951.656 630.402 949.013C632.819 950.449 635.266 951.841 637.739 953.19C633.691 962.72 629.694 972.261 625.766 981.816C625.064 984.222 624.563 986.93 623.962 989.737C621.956 999.563 619.65 1010.79 610.326 1013.3Z" fill="#0088CE"/>
<path d="M607.819 1064.44C599.196 1076.97 570.821 1075.37 582.251 1055.81C586.963 1049.3 593.681 1044.18 600.499 1039.07C610.425 1031.45 620.552 1023.73 624.563 1011.29C631.924 993.55 639.764 975.939 647.881 958.396C650.925 959.864 654.006 961.268 657.123 962.605C650.185 975.492 644.531 989.333 638.801 1003.17C629.977 1024.53 621.154 1046.09 607.819 1064.44Z" fill="#0088CE"/>
<path d="M623.46 1104.14C604.109 1098.93 619.951 1077.27 628.674 1068.35C647.926 1049.4 652.638 1023.23 657.35 997.659C658.253 992.545 659.256 987.531 660.259 982.518C660.86 979.209 662.364 972.792 664.068 966.174C664.123 965.955 664.178 965.735 664.233 965.515C666.912 966.56 669.615 967.556 672.342 968.502C670.983 974.288 669.725 980.127 668.581 986.027C665.974 993.848 663.968 1006.18 661.662 1019.92C655.746 1056.21 648.026 1102.84 623.46 1104.14Z" fill="#0088CE"/>
<path d="M686.729 1140.04C688.433 1183.25 631.983 1170.32 648.527 1125.1C648.828 1124.1 649.229 1123.09 649.43 1121.99C661.611 1067.94 675.226 1020.24 689.514 973.717C693.759 974.826 698.051 975.818 702.387 976.688C696.62 993.447 692.813 1011.53 688.935 1029.54C686.127 1042.58 683.42 1055.61 679.911 1068.05C673.895 1087.6 670.185 1094.12 670.486 1100.53C670.687 1106.65 674.697 1112.67 683.921 1130.01C685.626 1133.12 686.628 1136.53 686.729 1140.04Z" fill="#0088CE"/>
<path d="M712.598 1092.51C720.419 1108.15 706.782 1142.84 689.737 1119.58C685.225 1108.45 689.236 1097.42 693.347 1086.5C695.853 1079.88 698.26 1073.16 698.862 1066.44C700.666 1052.3 701.168 1038.07 701.569 1023.83C702.115 1008.17 702.579 992.587 704.837 977.165C706.811 977.539 708.794 977.888 710.785 978.211C706.911 1021.32 707.52 1067.78 712.598 1092.51Z" fill="#0088CE"/>
<path d="M765.239 1130.81C762.13 1147.16 738.367 1157.48 728.24 1141.24C718.013 1125.4 725.231 1109.36 732.35 1093.61C735.659 1086.39 738.868 1079.28 740.372 1072.26C744.937 1043.59 742.966 1012.3 739.421 981.045C742.282 981.15 745.157 981.204 748.043 981.204C748.326 981.204 748.609 981.203 748.891 981.202C749.588 983.71 750.322 986.222 751.1 988.734C750.299 993.347 758.32 1007.48 766.542 1021.92C778.474 1042.98 790.806 1064.54 776.368 1058.12C772.157 1056.11 767.545 1047.59 763.233 1039.47C758.421 1030.45 753.908 1022.02 750.398 1023.43C750.699 1028.54 750.7 1034.16 750.7 1039.87C750.8 1052.6 750.9 1066.24 753.406 1077.77C754.91 1083.29 757.016 1088.6 759.122 1093.92C763.935 1105.85 768.648 1117.78 765.239 1130.81Z" fill="#0088CE"/>
<path d="M1127.39 898.491L1112.02 826.715L1063.88 947.56L1127.39 898.491Z" fill="#008770"/>
<path d="M1034.22 1041.4L1049.41 969.289L956.493 1060.53L1034.22 1041.4Z" fill="#008770"/>
<path d="M891.383 1134.54L934.506 1074.58L812.91 1120.46L891.383 1134.54Z" fill="#008770"/>
<path d="M854.721 358.601L784.848 382.054L909.508 416.243L854.721 358.601Z" fill="#008770"/>
<path d="M1005.56 435.088L932.472 428.163L1031.98 510.262L1005.56 435.088Z" fill="#008770"/>
<path d="M1105.17 646.374L1111.71 566.643L1048.02 530.549L1105.17 646.374Z" fill="#008770"/>
<path d="M1154.81 730.585L1111.53 671.526L1116.48 801.048L1154.81 730.585Z" fill="#008770"/>
<path d="M1039.02 943.673L1038.65 880.927L977.513 973.135L1039.02 943.673Z" fill="#008770"/>
<path d="M936.484 1046.13L961.676 988.661L868.32 1048.03L936.484 1046.13Z" fill="#008770"/>
<path d="M801.145 1098.03L847.532 1055.77L738.086 1072.02L801.145 1098.03Z" fill="#008770"/>
<path d="M765.123 405.624L710.953 437.317L821.389 444.168L765.123 405.624Z" fill="#008770"/>
<path d="M905.119 443.198L842.758 450.107L940.831 501.286L905.119 443.198Z" fill="#008770"/>
<path d="M1017.73 534.455L957.95 515.415L1026.73 602.053L1017.73 534.455Z" fill="#008770"/>
<path d="M1064.21 729.04L1083.49 663.635L1036.61 621.907L1064.21 729.04Z" fill="#008770"/>
<path d="M1091.02 808.38L1065.16 751.204L1046.8 860.296L1091.02 808.38Z" fill="#008770"/>
<path d="M1020.97 855.668L1009.88 803.915L975.169 891.049L1020.97 855.668Z" fill="#008770"/>
<path d="M953.783 958.71L964.736 906.716L897.74 972.503L953.783 958.71Z" fill="#008770"/>
<path d="M850.792 1025.87L881.886 982.638L794.211 1015.72L850.792 1025.87Z" fill="#008770"/>
<path d="M824.358 466.387L773.977 483.297L863.862 507.949L824.358 466.387Z" fill="#008770"/>
<path d="M933.122 521.537L880.42 516.543L952.168 575.74L933.122 521.537Z" fill="#008770"/>
<path d="M1004.94 673.882L1009.66 616.393L963.733 590.368L1004.94 673.882Z" fill="#008770"/>
<path d="M1040.74 734.601L1009.53 692.018L1013.09 785.408L1040.74 734.601Z" fill="#008770"/>
<path d="M994.837 795.493L977.452 754.052L962.188 832.215L994.837 795.493Z" fill="#008770"/>
<path d="M954.982 892.035L955.945 846.929L910.388 912.355L954.982 892.035Z" fill="#008770"/>
<path d="M879.607 964.268L898.754 923.305L830.799 964.692L879.607 964.268Z" fill="#008770"/>
<path d="M781.76 999.724L815.772 969.978L737.159 980.173L781.76 999.724Z" fill="#008770"/>
<path d="M769.578 501.591L730.198 523.623L809.074 530.059L769.578 501.591Z" fill="#008770"/>
<path d="M869.002 530.506L824.242 534.627L893.417 572.739L869.002 530.506Z" fill="#008770"/>
<path d="M952.885 646.33L947.78 597.62L905.367 583.126L952.885 646.33Z" fill="#008770"/>
<path d="M992.296 691.366L959.563 660.741L977.221 738.105L992.296 691.366Z" fill="#008770"/>
<circle cx="750.129" cy="750" r="225" fill="white"/>
</svg>
