<svg width="1501" height="1501" viewBox="0 0 1501 1501" fill="none" xmlns="http://www.w3.org/2000/svg">
<circle cx="750" cy="750.5" r="585.5" fill="#DAD7CB" fill-opacity="0.5"/>
<path d="M373.608 603.508L388.978 675.284L437.122 554.439L373.608 603.508Z" fill="#008770"/>
<path d="M466.783 460.6L451.593 532.711L544.509 441.472L466.783 460.6Z" fill="#008770"/>
<path d="M609.619 367.456L566.495 427.415L688.092 381.538L609.619 367.456Z" fill="#008770"/>
<path d="M646.281 1143.4L716.154 1119.95L591.494 1085.76L646.281 1143.4Z" fill="#008770"/>
<path d="M495.438 1066.91L568.53 1073.84L469.023 991.737L495.438 1066.91Z" fill="#008770"/>
<path d="M395.828 855.625L389.288 935.357L452.983 971.45L395.828 855.625Z" fill="#008770"/>
<path d="M346.189 771.415L389.468 830.473L384.525 700.952L346.189 771.415Z" fill="#008770"/>
<path d="M461.982 558.326L462.351 621.073L523.489 528.865L461.982 558.326Z" fill="#008770"/>
<path d="M564.518 455.871L539.326 513.338L632.682 453.969L564.518 455.871Z" fill="#008770"/>
<path d="M699.857 403.974L653.47 446.225L762.916 429.981L699.857 403.974Z" fill="#008770"/>
<path d="M735.879 1096.38L790.049 1064.68L679.613 1057.83L735.879 1096.38Z" fill="#008770"/>
<path d="M595.883 1058.8L658.244 1051.89L560.171 1000.71L595.883 1058.8Z" fill="#008770"/>
<path d="M483.273 967.545L543.052 986.584L474.267 899.947L483.273 967.545Z" fill="#008770"/>
<path d="M436.788 772.96L417.516 838.365L464.388 880.092L436.788 772.96Z" fill="#008770"/>
<path d="M409.985 693.62L435.838 750.796L454.199 641.703L409.985 693.62Z" fill="#008770"/>
<path d="M480.036 646.331L491.119 698.085L525.832 610.951L480.036 646.331Z" fill="#008770"/>
<path d="M547.219 543.289L536.266 595.284L603.262 529.497L547.219 543.289Z" fill="#008770"/>
<path d="M650.209 476.129L619.115 519.361L706.791 486.283L650.209 476.129Z" fill="#008770"/>
<path d="M676.644 1035.61L727.025 1018.7L637.14 994.051L676.644 1035.61Z" fill="#008770"/>
<path d="M567.88 980.463L620.582 985.456L548.834 926.259L567.88 980.463Z" fill="#008770"/>
<path d="M496.057 828.117L491.342 885.607L537.269 911.632L496.057 828.117Z" fill="#008770"/>
<path d="M460.267 767.398L491.472 809.981L487.908 716.592L460.267 767.398Z" fill="#008770"/>
<path d="M506.165 706.507L523.55 747.947L538.814 669.784L506.165 706.507Z" fill="#008770"/>
<path d="M546.02 609.965L545.057 655.071L590.614 589.644L546.02 609.965Z" fill="#008770"/>
<path d="M621.395 537.732L602.248 578.695L670.203 537.307L621.395 537.732Z" fill="#008770"/>
<path d="M719.242 502.276L685.23 532.022L763.843 521.827L719.242 502.276Z" fill="#008770"/>
<path d="M731.424 1000.41L770.803 978.376L691.927 971.941L731.424 1000.41Z" fill="#008770"/>
<path d="M632 971.493L676.76 967.373L607.585 929.261L632 971.493Z" fill="#008770"/>
<path d="M548.117 855.67L553.222 904.38L595.635 918.874L548.117 855.67Z" fill="#008770"/>
<path d="M508.706 810.633L541.439 841.258L523.78 763.894L508.706 810.633Z" fill="#008770"/>
<circle cx="750.129" cy="750" r="225" fill="white"/>
</svg>
