<svg width="1501" height="1501" viewBox="0 0 1501 1501" fill="none" xmlns="http://www.w3.org/2000/svg">
<circle cx="750" cy="750.5" r="585.5" fill="#DAD7CB" fill-opacity="0.5"/>
<path d="M385.449 384.628L366.449 476.64L484.699 360.634L385.449 384.628Z" fill="#008770"/>
<path d="M567.522 266.486L512.735 342.819L667.956 284.945L567.522 266.486Z" fill="#008770"/>
<path d="M619.09 1257.94L708.273 1228.38L548.702 1183.97L619.09 1257.94Z" fill="#008770"/>
<path d="M425.741 1159.34L519.25 1168.6L391.526 1063.13L425.741 1159.34Z" fill="#008770"/>
<path d="M289.238 990.605L370.877 1037.1L297.09 888.811L289.238 990.605Z" fill="#008770"/>
<path d="M281.72 691.144L233.138 780.941L288.8 856.63L281.72 691.144Z" fill="#008770"/>
<path d="M267.173 566.617L287.229 658.397L348.091 504.315L267.173 566.617Z" fill="#008770"/>
<path d="M361.247 496.515L361.737 579.747L442.835 457.434L361.247 496.515Z" fill="#008770"/>
<path d="M497.261 360.609L463.843 436.839L587.679 358.086L497.261 360.609Z" fill="#008770"/>
<path d="M676.786 291.768L615.254 347.814L760.434 326.265L676.786 291.768Z" fill="#008770"/>
<path d="M724.569 1210.23L796.425 1168.19L649.933 1159.1L724.569 1210.23Z" fill="#008770"/>
<path d="M538.866 1160.39L621.587 1151.23L491.494 1083.34L538.866 1160.39Z" fill="#008770"/>
<path d="M389.489 1039.34L468.786 1064.6L377.543 949.671L389.489 1039.34Z" fill="#008770"/>
<path d="M327.828 781.224L302.263 867.984L364.438 923.335L327.828 781.224Z" fill="#008770"/>
<path d="M292.274 675.98L326.567 751.824L350.922 607.113L292.274 675.98Z" fill="#008770"/>
<path d="M373.605 603.509L388.976 675.285L437.12 554.44L373.605 603.509Z" fill="#008770"/>
<path d="M466.78 460.601L451.591 532.711L544.507 441.473L466.78 460.601Z" fill="#008770"/>
<path d="M609.617 367.457L566.493 427.416L688.09 381.539L609.617 367.457Z" fill="#008770"/>
<path d="M646.278 1143.4L716.152 1119.95L591.492 1085.76L646.278 1143.4Z" fill="#008770"/>
<path d="M495.435 1066.91L568.527 1073.84L469.02 991.738L495.435 1066.91Z" fill="#008770"/>
<path d="M395.825 855.626L389.286 935.357L452.981 971.451L395.825 855.626Z" fill="#008770"/>
<path d="M346.187 771.416L389.466 830.474L384.522 700.953L346.187 771.416Z" fill="#008770"/>
<path d="M461.98 558.327L462.348 621.073L523.486 528.866L461.98 558.327Z" fill="#008770"/>
<path d="M564.516 455.872L539.323 513.339L632.68 453.97L564.516 455.872Z" fill="#008770"/>
<path d="M699.855 403.975L653.467 446.226L762.914 429.982L699.855 403.975Z" fill="#008770"/>
<path d="M735.877 1096.38L790.047 1064.68L679.61 1057.83L735.877 1096.38Z" fill="#008770"/>
<path d="M595.881 1058.8L658.242 1051.89L560.169 1000.71L595.881 1058.8Z" fill="#008770"/>
<path d="M483.27 967.546L543.05 986.585L474.265 899.947L483.27 967.546Z" fill="#008770"/>
<path d="M436.786 772.961L417.513 838.366L464.385 880.093L436.786 772.961Z" fill="#008770"/>
<path d="M409.983 693.62L435.835 750.797L454.196 641.704L409.983 693.62Z" fill="#008770"/>
<path d="M480.034 646.332L491.116 698.085L525.83 610.951L480.034 646.332Z" fill="#008770"/>
<path d="M547.216 543.29L536.264 595.284L603.26 529.498L547.216 543.29Z" fill="#008770"/>
<path d="M650.207 476.129L619.113 519.362L706.789 486.283L650.207 476.129Z" fill="#008770"/>
<path d="M676.641 1035.61L727.023 1018.7L637.138 994.051L676.641 1035.61Z" fill="#008770"/>
<path d="M567.878 980.463L620.58 985.457L548.831 926.26L567.878 980.463Z" fill="#008770"/>
<path d="M496.055 828.118L491.34 885.607L537.266 911.632L496.055 828.118Z" fill="#008770"/>
<path d="M460.264 767.399L491.47 809.982L487.905 716.592L460.264 767.399Z" fill="#008770"/>
<path d="M506.162 706.508L523.547 747.948L538.812 669.785L506.162 706.508Z" fill="#008770"/>
<path d="M546.017 609.965L545.054 655.072L590.611 589.645L546.017 609.965Z" fill="#008770"/>
<path d="M621.392 537.733L602.245 578.695L670.201 537.308L621.392 537.733Z" fill="#008770"/>
<path d="M719.239 502.276L685.227 532.023L763.84 521.827L719.239 502.276Z" fill="#008770"/>
<path d="M731.422 1000.41L770.801 978.377L691.925 971.941L731.422 1000.41Z" fill="#008770"/>
<path d="M631.998 971.494L676.758 967.373L607.583 929.261L631.998 971.494Z" fill="#008770"/>
<path d="M548.114 855.67L553.22 904.381L595.633 918.875L548.114 855.67Z" fill="#008770"/>
<path d="M508.703 810.634L541.437 841.259L523.778 763.895L508.703 810.634Z" fill="#008770"/>
<circle cx="750.129" cy="750" r="225" fill="white"/>
</svg>
