<svg width="1500" height="1501" viewBox="0 0 1500 1501" fill="none" xmlns="http://www.w3.org/2000/svg">
<circle cx="749.629" cy="750.629" r="585.5" fill="#DAD7CB" fill-opacity="0.5"/>
<circle cx="749.629" cy="750.629" r="225" fill="white"/>
<path d="M743.96 265.029C774.81 283.479 795.08 309.219 804.22 341.529C814.27 377.039 805.34 415.809 780.35 445.239C755.59 474.399 750.8 502.489 750.46 518.489C761.26 481.629 783.04 459.439 800.34 446.969C831.88 424.249 851.16 388.459 851.9 351.219C853.44 274.199 801.57 241.239 785.64 232.969C779.49 229.779 774.25 226.319 769.6 222.399C769.04 221.929 768.47 221.429 767.89 220.929C761.94 220.729 755.98 220.629 750 220.629C732.96 220.629 716.04 221.429 699.28 223.009C703.96 229.649 709.31 236.259 715.43 242.729C723.11 250.849 732.45 258.139 743.96 265.029Z" fill="#AA9C8F"/>
<path d="M867.43 279.408C892.58 305.088 905.66 335.128 906.3 368.698C907 405.588 888.53 440.828 856.89 462.948C825.54 484.868 813.77 510.818 809.38 526.208C829.19 493.298 855.88 477.368 875.78 469.698C912.06 455.728 939.79 425.998 949.96 390.178C971 316.068 929.2 271.028 915.88 258.988C910.75 254.338 906.55 249.668 903.05 244.688C902.57 244.008 902.09 243.308 901.61 242.588C879.71 236.058 857.44 230.968 834.85 227.348C837.69 234.988 841.2 242.758 845.49 250.598C850.86 260.398 858.03 269.828 867.42 279.408H867.43Z" fill="#AA9C8F"/>
<path d="M989.92 328.399C1007.23 359.899 1011.74 392.349 1003.32 424.849C994.07 460.569 966.79 489.529 930.36 502.319C894.27 514.989 875.95 536.819 867.58 550.459C895.51 524.089 925.51 515.929 946.74 513.909C985.44 510.219 1020.15 489.049 1039.58 457.289C1079.79 391.579 1051.66 336.949 1042.07 321.769C1038.38 315.909 1035.59 310.279 1033.56 304.549C1033.29 303.799 1033.03 303.029 1032.77 302.229C1013.47 290.039 993.38 279.099 972.54 269.449C973.22 277.579 974.51 286.019 976.54 294.739C979.07 305.629 983.45 316.639 989.91 328.389L989.92 328.399Z" fill="#AA9C8F"/>
<path d="M1090.2 404.067C1098.85 438.957 1094.89 471.477 1078.41 500.727C1060.3 532.877 1026.51 553.877 988.02 556.897C949.88 559.887 926.58 576.287 914.99 587.327C948.75 569.007 979.84 568.817 1000.88 572.307C1039.23 578.667 1078.21 567.107 1105.14 541.397C1160.86 488.197 1147.68 428.177 1142.31 411.047C1140.24 404.437 1138.99 398.277 1138.5 392.217C1138.44 391.477 1138.39 390.727 1138.34 389.957C1133.91 385.187 1129.38 380.497 1124.75 375.867C1113.12 364.237 1101.02 353.207 1088.5 342.777C1087.08 350.767 1086.17 359.217 1085.9 368.117C1085.56 379.287 1086.96 391.047 1090.19 404.077L1090.2 404.067Z" fill="#AA9C8F"/>
<path d="M1165.11 498.579C1164.9 534.519 1153.04 565.069 1129.87 589.359C1104.4 616.059 1066.48 628.079 1028.43 621.519C990.73 615.019 964.11 625.169 950.16 633.019C987.39 623.589 1017.57 631.059 1037.1 639.619C1072.7 655.229 1113.32 653.639 1145.76 635.349C1212.87 597.519 1214.89 536.099 1213.9 518.179C1213.52 511.259 1213.83 504.989 1214.85 498.989C1214.98 498.189 1215.13 497.379 1215.29 496.549C1204.32 476.479 1192.08 457.169 1178.6 438.699C1175.25 446.119 1172.28 454.099 1169.81 462.669C1166.72 473.409 1165.19 485.159 1165.11 498.579Z" fill="#AA9C8F"/>
<path d="M1217.71 619.918C1207.81 654.478 1188.15 680.688 1159.28 697.828C1127.55 716.668 1087.79 718.018 1052.92 701.428C1018.38 684.998 990 687.588 974.45 691.378C1012.85 692.338 1039.89 707.678 1056.39 721.188C1086.46 745.828 1126.01 755.248 1162.18 746.398C1237.01 728.078 1255.52 669.478 1259.41 651.958C1260.91 645.198 1262.9 639.238 1265.5 633.738C1265.85 632.998 1266.22 632.238 1266.6 631.468C1261.49 609.218 1254.92 587.318 1246.92 565.828C1241.67 572.088 1236.63 578.988 1231.93 586.618C1226.06 596.128 1221.41 607.028 1217.72 619.928L1217.71 619.918Z" fill="#AA9C8F"/>
<path d="M1235.51 739.671C1217.37 770.701 1191.84 791.241 1159.63 800.701C1124.23 811.101 1085.37 802.571 1055.69 777.881C1026.28 753.411 998.14 748.911 982.14 748.731C1019.11 759.161 1041.52 780.711 1054.16 797.891C1077.2 829.201 1113.19 848.111 1150.42 848.481C1227.45 849.241 1259.88 797.041 1267.99 781.021C1271.12 774.841 1274.52 769.561 1278.4 764.871C1278.87 764.301 1279.35 763.731 1279.86 763.151C1279.96 758.981 1280.01 754.811 1280.01 750.621C1280.01 731.771 1279.03 713.071 1277.1 694.551C1270.5 699.291 1263.95 704.721 1257.54 710.911C1249.5 718.681 1242.3 728.081 1235.53 739.661L1235.51 739.671Z" fill="#AA9C8F"/>
<path d="M1249.97 846.48C1240.16 851.84 1230.73 859.01 1221.14 868.39C1195.44 893.52 1165.39 906.58 1131.83 907.19C1094.93 907.87 1059.71 889.37 1037.61 857.71C1015.71 826.34 989.77 814.56 974.38 810.16C1007.28 829.99 1023.19 856.7 1030.84 876.6C1044.78 912.89 1074.49 940.64 1110.31 950.84C1184.4 971.94 1229.48 930.16 1241.53 916.86C1246.18 911.73 1250.86 907.53 1255.84 904.04C1256.52 903.56 1257.22 903.08 1257.94 902.6C1264.49 880.71 1269.59 858.44 1273.23 835.85C1265.59 838.69 1257.82 842.19 1249.97 846.48Z" fill="#AA9C8F"/>
<path d="M1173.18 988.868C1141.75 1006.31 1109.31 1010.95 1076.78 1002.66C1041.02 993.548 1011.95 966.388 999.02 930.008C986.21 893.968 964.3 875.738 950.63 867.418C977.11 895.248 985.39 925.208 987.5 946.438C991.34 985.118 1012.65 1019.75 1044.49 1039.06C1110.36 1079.01 1164.88 1050.66 1180.02 1041.01C1185.86 1037.29 1191.48 1034.48 1197.21 1032.43C1197.96 1032.16 1198.74 1031.89 1199.53 1031.62C1211.64 1012.28 1222.5 992.138 1232.06 971.258C1223.93 971.968 1215.49 973.288 1206.78 975.358C1195.9 977.938 1184.91 982.348 1173.18 988.858V988.868Z" fill="#AA9C8F"/>
<path d="M1097.7 1089.67C1062.84 1098.44 1030.31 1094.58 1001 1078.21C968.79 1060.21 947.68 1026.49 944.53 988.008C941.42 949.878 924.93 926.638 913.86 915.078C932.29 948.778 932.59 979.868 929.17 1000.92C922.94 1039.29 934.63 1078.23 960.43 1105.08C1013.81 1160.62 1073.79 1147.24 1090.9 1141.81C1097.5 1139.72 1103.66 1138.45 1109.72 1137.94C1110.45 1137.88 1111.2 1137.82 1111.97 1137.77C1116.29 1133.72 1120.56 1129.6 1124.77 1125.39C1136.83 1113.33 1148.24 1100.78 1159 1087.77C1151 1086.38 1142.54 1085.5 1133.64 1085.25C1122.47 1084.94 1110.71 1086.39 1097.7 1089.66V1089.67Z" fill="#AA9C8F"/>
<path d="M998.53 1167.85C962.59 1167.34 932.15 1155.22 908.05 1131.84C881.57 1106.14 869.86 1068.12 876.74 1030.13C883.56 992.488 873.63 965.778 865.91 951.758C875.03 989.068 867.3 1019.19 858.57 1038.64C842.66 1074.11 843.91 1114.74 861.92 1147.34C899.18 1214.77 960.58 1217.3 978.51 1216.47C985.43 1216.15 991.7 1216.51 997.69 1217.58C998.48 1217.72 999.3 1217.87 1000.13 1218.04C1020.3 1207.24 1039.71 1195.15 1058.29 1181.84C1050.9 1178.42 1042.95 1175.39 1034.39 1172.85C1023.67 1169.67 1011.94 1168.04 998.53 1167.85Z" fill="#AA9C8F"/>
<path d="M881.38 1218.16C846.81 1208.31 820.57 1188.69 803.39 1159.84C784.51 1128.14 783.1 1088.38 799.64 1053.49C816.02 1018.92 813.39 990.55 809.58 975C808.67 1013.4 793.37 1040.46 779.88 1056.98C755.28 1087.08 745.92 1126.64 754.82 1162.8C773.24 1237.6 831.87 1256.03 849.4 1259.89C856.16 1261.38 862.13 1263.37 867.63 1265.96C868.37 1266.31 869.13 1266.67 869.89 1267.06C892.13 1261.92 914.03 1255.32 935.51 1247.29C929.25 1242.05 922.34 1237.02 914.7 1232.33C905.18 1226.47 894.28 1221.84 881.37 1218.16H881.38Z" fill="#AA9C8F"/>
<path d="M754.02 1236.25C723.25 1217.67 703.08 1191.85 694.08 1159.5C684.18 1123.95 693.27 1085.22 718.38 1055.89C743.26 1026.84 748.17 998.76 748.57 982.77C737.61 1019.59 715.74 1041.68 698.39 1054.08C666.75 1076.67 647.33 1112.38 646.43 1149.61C644.57 1226.63 696.3 1259.8 712.2 1268.13C718.33 1271.35 723.57 1274.83 728.2 1278.77C728.76 1279.25 729.34 1279.75 729.91 1280.26C736.58 1280.51 743.28 1280.63 750 1280.63C766.3 1280.63 782.48 1279.9 798.52 1278.45C793.87 1271.79 788.55 1265.16 782.45 1258.67C774.8 1250.52 765.5 1243.19 754.01 1236.25H754.02Z" fill="#AA9C8F"/>
<path d="M626.84 1220.39C602 1194.41 589.29 1164.21 589.06 1130.64C588.81 1093.74 607.71 1058.73 639.62 1037C671.24 1015.47 683.32 989.66 687.89 974.32C667.68 1006.99 640.8 1022.59 620.81 1030.02C584.36 1043.55 556.27 1072.94 545.67 1108.63C523.73 1182.48 564.98 1228.03 578.15 1240.23C583.23 1244.94 587.37 1249.67 590.81 1254.68C591.28 1255.36 591.75 1256.07 592.22 1256.8C614.05 1263.61 636.26 1268.96 658.79 1272.86C656.04 1265.19 652.63 1257.37 648.43 1249.48C643.18 1239.61 636.12 1230.1 626.85 1220.4L626.84 1220.39Z" fill="#AA9C8F"/>
<path d="M510.75 1173.25C493.39 1141.78 488.83 1109.33 497.19 1076.82C506.39 1041.08 533.61 1012.08 570.02 999.228C606.09 986.498 624.37 964.638 632.72 950.988C604.83 977.398 574.84 985.608 553.62 987.668C514.93 991.418 480.25 1012.65 460.87 1044.44C420.76 1110.21 448.99 1164.8 458.6 1179.97C462.3 1185.82 465.1 1191.45 467.14 1197.18C467.41 1197.93 467.67 1198.7 467.94 1199.5C487.26 1211.66 507.37 1222.57 528.22 1232.18C527.53 1224.05 526.23 1215.61 524.18 1206.89C521.63 1196.01 517.24 1185.01 510.76 1173.26L510.75 1173.25Z" fill="#AA9C8F"/>
<path d="M409.3 1096.71C400.7 1061.81 404.71 1029.29 421.22 1000.06C439.37 967.929 473.19 946.979 511.69 944.019C549.83 941.089 573.16 924.719 584.76 913.699C550.97 931.969 519.88 932.119 498.85 928.599C460.51 922.189 421.52 933.689 394.54 959.359C338.74 1012.48 351.84 1072.52 357.18 1089.66C359.24 1096.27 360.48 1102.43 360.96 1108.5C361.02 1109.23 361.07 1109.99 361.12 1110.76C365.72 1115.72 370.42 1120.6 375.22 1125.41C386.68 1136.87 398.58 1147.73 410.9 1158.02C412.33 1150.03 413.25 1141.58 413.53 1132.69C413.89 1121.52 412.5 1109.75 409.29 1096.73L409.3 1096.71Z" fill="#AA9C8F"/>
<path d="M331.37 996.778C332.09 960.838 344.38 930.468 367.89 906.508C393.74 880.168 431.82 868.688 469.78 875.778C507.38 882.808 534.15 873.038 548.21 865.388C510.85 874.298 480.78 866.398 461.37 857.558C425.99 841.438 385.35 842.468 352.66 860.288C285.02 897.158 282.14 958.548 282.87 976.488C283.15 983.408 282.75 989.678 281.65 995.658C281.5 996.458 281.34 997.268 281.17 998.108C291.86 1018.35 303.83 1037.82 317.04 1056.47C320.5 1049.1 323.58 1041.16 326.17 1032.61C329.41 1021.91 331.11 1010.19 331.38 996.768L331.37 996.778Z" fill="#AA9C8F"/>
<path d="M281.99 880.298C291.97 845.768 311.68 819.598 340.59 802.518C372.36 783.748 412.12 782.488 446.95 799.148C481.46 815.658 509.84 813.128 525.4 809.368C487 808.318 460 792.928 443.53 779.368C413.52 754.658 373.99 745.148 337.8 753.928C262.93 772.078 244.29 830.638 240.36 848.158C238.84 854.918 236.84 860.868 234.23 866.368C233.88 867.108 233.51 867.868 233.12 868.638C238.18 890.898 244.7 912.818 252.66 934.318C257.93 928.078 262.98 921.178 267.7 913.568C273.59 904.068 278.27 893.188 281.99 880.298Z" fill="#AA9C8F"/>
<path d="M264.37 753.29C283.04 722.57 308.91 702.48 341.28 693.56C376.86 683.76 415.56 692.95 444.82 718.15C473.81 743.11 501.86 748.1 517.86 748.55C481.08 737.49 459.04 715.56 446.69 698.17C424.19 666.47 388.53 646.95 351.31 645.94C274.3 643.86 240.98 695.5 232.61 711.38C229.38 717.5 225.88 722.73 221.93 727.35C221.45 727.91 220.95 728.48 220.44 729.06C220.16 736.23 220.01 743.42 220.01 750.63C220.01 766.43 220.69 782.12 222.05 797.68C228.73 793.05 235.37 787.74 241.88 781.67C250.05 774.04 257.41 764.76 264.38 753.3L264.37 753.29Z" fill="#AA9C8F"/>
<path d="M279.71 629.521C305.59 604.571 335.73 591.731 369.3 591.351C406.2 590.941 441.29 609.681 463.16 641.501C484.83 673.021 510.69 684.991 526.05 689.501C493.29 669.441 477.57 642.621 470.06 622.661C456.37 586.271 426.86 558.311 391.12 547.861C317.18 526.241 271.81 567.691 259.66 580.911C254.97 586.011 250.26 590.171 245.26 593.631C244.58 594.101 243.88 594.581 243.15 595.061C236.44 616.911 231.19 639.151 227.39 661.701C235.05 658.921 242.85 655.471 250.72 651.241C260.57 645.951 270.05 638.851 279.7 629.531L279.71 629.521Z" fill="#AA9C8F"/>
<path d="M327.04 511.979C358.49 494.569 390.93 489.959 423.45 498.289C459.2 507.439 488.24 534.619 501.14 571.009C513.92 607.069 535.81 625.319 549.47 633.639C523.02 605.789 514.77 575.809 512.68 554.589C508.87 515.899 487.6 481.259 455.78 461.919C389.95 421.909 335.4 450.209 320.25 459.839C314.4 463.549 308.78 466.349 303.05 468.399C302.3 468.669 301.53 468.939 300.73 469.199C288.6 488.529 277.72 508.659 268.14 529.529C276.27 528.829 284.71 527.509 293.42 525.459C304.3 522.889 315.29 518.489 327.03 511.989L327.04 511.979Z" fill="#AA9C8F"/>
<path d="M404.83 409.02C439.75 400.51 472.26 404.61 501.45 421.2C533.53 439.44 554.39 473.31 557.25 511.82C560.08 549.97 576.39 573.34 587.38 584.97C569.2 551.13 569.13 520.04 572.71 499.02C579.23 460.7 567.83 421.67 542.22 394.63C489.25 338.69 429.17 351.63 412.02 356.93C405.4 358.97 399.24 360.19 393.17 360.66C392.44 360.72 391.69 360.77 390.92 360.81C385.61 365.71 380.38 370.73 375.24 375.86C364.12 386.98 353.55 398.52 343.54 410.46C351.53 411.91 359.97 412.85 368.87 413.16C380.04 413.55 391.81 412.19 404.84 409.02H404.83Z" fill="#AA9C8F"/>
<path d="M502.1 333.028C538.04 333.598 568.46 345.758 592.52 369.178C618.97 394.918 630.61 432.958 623.67 470.938C616.79 508.568 626.68 535.298 634.38 549.318C625.32 511.988 633.09 481.888 641.85 462.448C657.82 427.008 656.63 386.368 638.67 353.748C601.52 286.258 540.12 283.638 522.18 284.438C515.26 284.748 508.99 284.378 503 283.298C502.21 283.158 501.39 282.998 500.56 282.828C480.37 293.598 460.94 305.648 442.34 318.938C449.72 322.368 457.67 325.418 466.23 327.968C476.94 331.158 488.67 332.818 502.09 333.028H502.1Z" fill="#AA9C8F"/>
<path d="M618.58 283.107C653.15 292.957 679.39 312.567 696.57 341.417C715.46 373.117 716.86 412.877 700.34 447.767C683.96 482.337 686.6 510.717 690.41 526.257C691.31 487.857 706.61 460.787 720.1 444.277C744.69 414.167 754.06 374.607 745.15 338.457C726.72 263.657 668.09 245.237 650.56 241.367C643.8 239.877 637.83 237.897 632.33 235.307C631.59 234.957 630.84 234.597 630.07 234.207C607.83 239.347 585.93 245.947 564.46 253.987C570.72 259.227 577.64 264.257 585.27 268.947C594.79 274.807 605.69 279.437 618.6 283.107H618.58Z" fill="#AA9C8F"/>
</svg>
