<svg width="1500" height="1501" viewBox="0 0 1500 1501" fill="none" xmlns="http://www.w3.org/2000/svg">
<circle cx="749.629" cy="750.625" r="585.5" fill="#DAD7CB" fill-opacity="0.5"/>
<circle cx="749.629" cy="750.625" r="225" fill="white"/>
<path d="M780.35 445.224C755.59 474.384 750.8 502.474 750.46 518.474C761.26 481.614 783.04 459.424 800.34 446.954C831.29 424.654 850.42 389.764 851.83 353.294C836.42 349.364 820.78 346.344 804.94 344.234C813.79 378.994 804.7 416.544 780.35 445.224Z" fill="#AA9C8F"/>
<path d="M856.89 462.934C825.54 484.854 813.77 510.804 809.38 526.194C829.19 493.284 855.88 477.354 875.78 469.684C911.36 455.984 938.71 427.114 949.34 392.214C936.46 385.044 923.19 378.524 909.51 372.744C908.44 372.294 907.37 371.854 906.3 371.414C906.07 407.314 887.74 441.364 856.88 462.944L856.89 462.934Z" fill="#AA9C8F"/>
<path d="M930.37 502.326C894.28 514.996 875.96 536.826 867.59 550.466C895.52 524.096 925.52 515.936 946.75 513.916C984.66 510.296 1018.73 489.906 1038.38 459.216C1026.98 447.936 1015.04 437.376 1002.57 427.586C992.66 462.046 965.86 489.856 930.37 502.326Z" fill="#AA9C8F"/>
<path d="M988.03 556.895C949.89 559.885 926.59 576.285 915 587.325C948.76 569.005 979.85 568.815 1000.89 572.305C1038.5 578.545 1076.71 567.535 1103.58 542.855C1095.5 529.135 1086.63 515.905 1076.98 503.195C1058.56 533.955 1025.53 553.955 988.03 556.895Z" fill="#AA9C8F"/>
<path d="M1028.42 621.527C990.72 615.027 964.1 625.177 950.15 633.027C987.38 623.587 1017.56 631.067 1037.09 639.627C1072.03 654.947 1111.8 653.687 1143.93 636.347C1139.51 621.077 1134.18 606.047 1127.95 591.297C1102.51 616.637 1065.53 627.917 1028.42 621.527Z" fill="#AA9C8F"/>
<path d="M1052.93 701.428C1018.39 684.998 990.01 687.588 974.46 691.378C1012.86 692.338 1039.9 707.678 1056.4 721.188C1085.86 745.328 1124.42 754.848 1159.98 746.898C1159.84 730.838 1158.8 714.928 1156.85 699.218C1125.54 716.708 1086.92 717.588 1052.94 701.428H1052.93Z" fill="#AA9C8F"/>
<path d="M1055.69 777.884C1026.28 753.414 998.14 748.914 982.14 748.734C1019.11 759.164 1041.52 780.714 1054.16 797.894C1076.77 828.624 1111.84 847.394 1148.33 848.434C1152.1 832.994 1154.97 817.324 1156.91 801.454C1122.24 810.654 1084.61 801.944 1055.68 777.884H1055.69Z" fill="#AA9C8F"/>
<path d="M1129.1 907.194C1093.2 906.934 1059.16 888.584 1037.61 857.714C1015.71 826.344 989.77 814.564 974.38 810.164C1007.28 829.994 1023.19 856.704 1030.84 876.604C1044.52 912.194 1073.36 939.564 1108.26 950.224C1115.49 937.264 1122.05 923.914 1127.87 910.144C1128.28 909.164 1128.69 908.184 1129.09 907.204L1129.1 907.194Z" fill="#AA9C8F"/>
<path d="M999.02 930.004C986.21 893.964 964.3 875.734 950.63 867.414C977.11 895.244 985.39 925.204 987.5 946.434C991.27 984.324 1011.79 1018.31 1042.56 1037.83C1053.8 1026.39 1064.3 1014.41 1074.04 1001.9C1039.55 992.124 1011.63 965.444 999.03 930.004H999.02Z" fill="#AA9C8F"/>
<path d="M944.52 988.008C941.41 949.878 924.92 926.638 913.85 915.078C932.28 948.778 932.58 979.868 929.16 1000.92C923.05 1038.55 934.18 1076.72 958.96 1103.51C972.65 1095.39 985.85 1086.47 998.52 1076.77C967.7 1058.45 947.59 1025.49 944.52 988.008Z" fill="#AA9C8F"/>
<path d="M876.75 1030.13C883.57 992.488 873.64 965.778 865.92 951.758C875.04 989.068 867.31 1019.19 858.58 1038.64C842.96 1073.45 843.89 1113.23 860.96 1145.5C876.27 1141.21 891.34 1136 906.14 1129.9C881.02 1104.25 870.05 1067.17 876.76 1030.12L876.75 1030.13Z" fill="#AA9C8F"/>
<path d="M799.63 1053.48C816.01 1018.91 813.38 990.542 809.57 974.992C808.66 1013.39 793.36 1040.45 779.87 1056.97C755.77 1086.46 746.3 1125.03 754.31 1160.59C770.37 1160.43 786.27 1159.36 801.99 1157.39C784.46 1126.1 783.53 1087.48 799.64 1053.48H799.63Z" fill="#AA9C8F"/>
<path d="M718.37 1055.89C743.25 1026.84 748.16 998.763 748.56 982.773C737.6 1019.59 715.73 1041.68 698.38 1054.08C667.33 1076.25 648.06 1111.05 646.5 1147.53C661.9 1151.53 677.53 1154.63 693.36 1156.8C684.65 1122 693.89 1084.49 718.37 1055.91V1055.89Z" fill="#AA9C8F"/>
<path d="M639.62 1036.98C671.24 1015.45 683.32 989.645 687.89 974.305C667.68 1006.97 640.8 1022.57 620.81 1030C585.06 1043.27 557.35 1071.81 546.3 1106.59C560.09 1114.49 574.37 1121.59 589.09 1127.88C589.76 1091.99 608.5 1058.17 639.62 1036.97V1036.98Z" fill="#AA9C8F"/>
<path d="M570.03 999.217C606.1 986.487 624.38 964.627 632.73 950.977C604.84 977.387 574.85 985.597 553.63 987.657C515.73 991.337 481.69 1011.78 462.09 1042.5C473.5 1053.76 485.46 1064.3 497.95 1074.07C507.81 1039.6 534.56 1011.74 570.03 999.227V999.217Z" fill="#AA9C8F"/>
<path d="M511.7 944.015C549.84 941.085 573.17 924.715 584.77 913.695C550.98 931.965 519.89 932.115 498.86 928.595C461.26 922.305 423.03 933.255 396.13 957.905C404.19 971.635 413.04 984.885 422.67 997.605C441.13 966.875 474.19 946.915 511.7 944.025V944.015Z" fill="#AA9C8F"/>
<path d="M469.78 875.784C507.38 882.814 534.15 873.044 548.21 865.394C510.85 874.304 480.78 866.404 461.37 857.564C426.65 841.754 386.87 842.454 354.5 859.324C358.71 874.664 363.82 889.774 369.83 904.594C395.62 879.624 432.76 868.854 469.78 875.774V875.784Z" fill="#AA9C8F"/>
<path d="M446.96 799.154C481.47 815.664 509.85 813.124 525.41 809.374C487.01 808.324 460.01 792.934 443.54 779.374C414.13 755.174 375.6 745.564 340.02 753.434C340.13 769.494 341.14 785.404 343.05 801.124C374.4 783.704 413.02 782.914 446.96 799.154Z" fill="#AA9C8F"/>
<path d="M444.82 718.143C473.81 743.103 501.86 748.093 517.86 748.543C481.08 737.483 459.04 715.553 446.69 698.163C424.61 667.053 389.86 647.683 353.39 646.023C349.35 661.413 346.21 677.033 344 692.853C378.82 684.243 416.31 693.583 444.82 718.143Z" fill="#AA9C8F"/>
<path d="M463.16 641.494C484.83 673.014 510.69 684.984 526.05 689.494C493.29 669.434 477.57 642.614 470.06 622.654C456.64 586.964 427.98 559.394 393.16 548.484C385.36 562.234 378.33 576.444 372.13 591.114C372.09 591.194 372.06 591.284 372.03 591.364C407.93 591.874 441.83 610.464 463.17 641.494H463.16Z" fill="#AA9C8F"/>
<path d="M501.15 571.005C513.93 607.065 535.82 625.315 549.48 633.635C523.03 605.785 514.78 575.805 512.69 554.585C508.96 516.685 488.47 482.685 457.72 463.125C446.47 474.555 435.96 486.525 426.21 499.025C460.69 508.835 488.59 535.545 501.15 570.995V571.005Z" fill="#AA9C8F"/>
<path d="M557.24 511.805C560.07 549.955 576.38 573.325 587.37 584.955C569.19 551.115 569.12 520.025 572.7 499.005C579.09 461.415 568.24 423.165 543.66 396.195C529.9 404.215 516.63 413.035 503.89 422.625C534.58 441.175 554.46 474.285 557.24 511.795V511.805Z" fill="#AA9C8F"/>
<path d="M623.68 470.928C616.8 508.558 626.69 535.288 634.39 549.308C625.33 511.978 633.1 481.878 641.86 462.438C657.53 427.658 656.66 387.878 639.65 355.578C624.33 359.848 609.25 365.028 594.44 371.108C619.52 396.798 630.44 433.888 623.67 470.938L623.68 470.928Z" fill="#AA9C8F"/>
<path d="M700.34 447.766C683.96 482.336 686.6 510.716 690.41 526.256C691.31 487.856 706.61 460.786 720.1 444.276C744.2 414.776 753.66 376.206 745.65 340.656C729.59 340.816 713.69 341.896 697.97 343.866C715.51 375.156 716.44 413.766 700.33 447.776L700.34 447.766Z" fill="#AA9C8F"/>
</svg>
