<svg width="1501" height="1501" viewBox="0 0 1501 1501" fill="none" xmlns="http://www.w3.org/2000/svg">
<circle cx="750" cy="750.5" r="585.5" fill="#DAD7CB" fill-opacity="0.5"/>
<path d="M520.794 143.478L452.104 239.171L646.715 166.623L520.794 143.478Z" fill="#008770"/>
<path d="M585.468 1386.66L697.307 1349.59L497.186 1293.9L585.468 1386.66Z" fill="#008770"/>
<path d="M343.02 1263.01L460.265 1274.65L300.102 1142.37L343.02 1263.01Z" fill="#008770"/>
<path d="M171.837 1051.44L274.202 1109.75L181.698 923.798L171.837 1051.44Z" fill="#008770"/>
<path d="M101.501 788.561L171.297 883.456L162.441 675.954L101.501 788.561Z" fill="#008770"/>
<path d="M245.65 441.678L144.187 519.788L169.34 634.866L245.65 441.678Z" fill="#008770"/>
<path d="M292.482 291.613L268.668 406.975L416.937 261.518L292.482 291.613Z" fill="#008770"/>
<path d="M427.596 253.614L385.013 350.748L542.808 250.447L427.596 253.614Z" fill="#008770"/>
<path d="M656.32 165.928L577.925 237.343L762.856 209.874L656.32 165.928Z" fill="#008770"/>
<path d="M717.209 1336.07L808.734 1282.52L622.13 1270.94L717.209 1336.07Z" fill="#008770"/>
<path d="M480.606 1272.59L586.009 1260.87L420.232 1174.4L480.606 1272.59Z" fill="#008770"/>
<path d="M290.294 1118.35L391.319 1150.53L275.078 1004.12L290.294 1118.35Z" fill="#008770"/>
<path d="M179.15 900.061L258.369 970.55L211.718 789.488L179.15 900.061Z" fill="#008770"/>
<path d="M241.145 567.673L166.431 655.436L210.121 752.055L241.145 567.673Z" fill="#008770"/>
<path d="M254.301 426.772L254.919 532.814L358.262 377.008L254.301 426.772Z" fill="#008770"/>
<path d="M385.45 384.628L366.449 476.64L484.699 360.634L385.45 384.628Z" fill="#008770"/>
<path d="M567.523 266.486L512.736 342.819L667.956 284.945L567.523 266.486Z" fill="#008770"/>
<path d="M619.091 1257.94L708.273 1228.38L548.702 1183.97L619.091 1257.94Z" fill="#008770"/>
<path d="M425.742 1159.34L519.25 1168.6L391.526 1063.13L425.742 1159.34Z" fill="#008770"/>
<path d="M289.238 990.605L370.877 1037.1L297.09 888.811L289.238 990.605Z" fill="#008770"/>
<path d="M281.72 691.144L233.138 780.941L288.8 856.63L281.72 691.144Z" fill="#008770"/>
<path d="M267.173 566.617L287.229 658.396L348.092 504.315L267.173 566.617Z" fill="#008770"/>
<path d="M361.248 496.514L361.737 579.747L442.836 457.434L361.248 496.514Z" fill="#008770"/>
<path d="M497.261 360.609L463.843 436.838L587.68 358.086L497.261 360.609Z" fill="#008770"/>
<path d="M676.787 291.767L615.255 347.813L760.434 326.265L676.787 291.767Z" fill="#008770"/>
<path d="M724.57 1210.23L796.426 1168.19L649.933 1159.1L724.57 1210.23Z" fill="#008770"/>
<path d="M538.867 1160.39L621.588 1151.23L491.495 1083.34L538.867 1160.39Z" fill="#008770"/>
<path d="M389.49 1039.34L468.786 1064.59L377.544 949.671L389.49 1039.34Z" fill="#008770"/>
<path d="M327.829 781.224L302.263 867.984L364.439 923.334L327.829 781.224Z" fill="#008770"/>
<path d="M292.274 675.98L326.568 751.824L350.923 607.113L292.274 675.98Z" fill="#008770"/>
<path d="M373.606 603.509L388.976 675.285L437.12 554.44L373.606 603.509Z" fill="#008770"/>
<path d="M466.781 460.601L451.591 532.711L544.507 441.472L466.781 460.601Z" fill="#008770"/>
<path d="M609.617 367.457L566.494 427.416L688.09 381.539L609.617 367.457Z" fill="#008770"/>
<path d="M646.279 1143.4L716.152 1119.95L591.492 1085.76L646.279 1143.4Z" fill="#008770"/>
<path d="M495.436 1066.91L568.528 1073.84L469.021 991.738L495.436 1066.91Z" fill="#008770"/>
<path d="M395.826 855.626L389.286 935.357L452.981 971.451L395.826 855.626Z" fill="#008770"/>
<path d="M346.188 771.415L389.466 830.474L384.523 700.952L346.188 771.415Z" fill="#008770"/>
<path d="M461.98 558.327L462.349 621.073L523.487 528.865L461.98 558.327Z" fill="#008770"/>
<path d="M564.516 455.872L539.324 513.339L632.68 453.97L564.516 455.872Z" fill="#008770"/>
<path d="M699.855 403.975L653.468 446.226L762.914 429.981L699.855 403.975Z" fill="#008770"/>
<path d="M735.877 1096.38L790.047 1064.68L679.611 1057.83L735.877 1096.38Z" fill="#008770"/>
<path d="M595.881 1058.8L658.242 1051.89L560.169 1000.71L595.881 1058.8Z" fill="#008770"/>
<path d="M483.271 967.545L543.05 986.585L474.265 899.947L483.271 967.545Z" fill="#008770"/>
<path d="M436.787 772.96L417.514 838.365L464.386 880.093L436.787 772.96Z" fill="#008770"/>
<path d="M409.983 693.62L435.836 750.796L454.197 641.704L409.983 693.62Z" fill="#008770"/>
<path d="M480.034 646.332L491.117 698.085L525.831 610.951L480.034 646.332Z" fill="#008770"/>
<path d="M547.217 543.29L536.264 595.284L603.26 529.497L547.217 543.29Z" fill="#008770"/>
<path d="M650.208 476.129L619.114 519.362L706.789 486.283L650.208 476.129Z" fill="#008770"/>
<path d="M676.642 1035.61L727.023 1018.7L637.138 994.051L676.642 1035.61Z" fill="#008770"/>
<path d="M567.878 980.463L620.58 985.457L548.832 926.26L567.878 980.463Z" fill="#008770"/>
<path d="M496.056 828.118L491.341 885.607L537.267 911.632L496.056 828.118Z" fill="#008770"/>
<path d="M460.265 767.399L491.47 809.982L487.906 716.592L460.265 767.399Z" fill="#008770"/>
<path d="M506.163 706.507L523.548 747.948L538.812 669.785L506.163 706.507Z" fill="#008770"/>
<path d="M546.018 609.965L545.055 655.071L590.612 589.645L546.018 609.965Z" fill="#008770"/>
<path d="M621.393 537.732L602.246 578.695L670.201 537.308L621.393 537.732Z" fill="#008770"/>
<path d="M719.24 502.276L685.228 532.022L763.841 521.827L719.24 502.276Z" fill="#008770"/>
<path d="M731.422 1000.41L770.802 978.377L691.926 971.941L731.422 1000.41Z" fill="#008770"/>
<path d="M631.998 971.494L676.758 967.373L607.583 929.261L631.998 971.494Z" fill="#008770"/>
<path d="M548.115 855.67L553.22 904.38L595.633 918.874L548.115 855.67Z" fill="#008770"/>
<path d="M508.704 810.634L541.437 841.259L523.779 763.895L508.704 810.634Z" fill="#008770"/>
<circle cx="750.129" cy="750" r="225" fill="white"/>
</svg>
