<svg width="1500" height="1501" viewBox="0 0 1500 1501" fill="none" xmlns="http://www.w3.org/2000/svg">
<circle cx="749.629" cy="750.629" r="585.5" fill="#DAD7CB" fill-opacity="0.5"/>
<circle cx="749.629" cy="750.629" r="225" fill="white"/>
<path d="M645.035 130.039C796.214 74.2893 954.435 136.186 1075.3 214.687C1126.61 248.014 1172.54 294.897 1215.27 335.871L1219.39 339.817L1220.89 341.261C1251.16 370.77 1272.14 410.406 1290.69 451.151L1292.51 455.162C1297.39 465.983 1306.39 477.943 1315.52 491.074C1324.3 503.7 1333.26 517.52 1336.15 530.844C1336.96 534.557 1336.63 540.073 1336.08 545.458C1335.51 551.138 1334.55 557.778 1333.64 564.23C1332.71 570.76 1331.83 577.109 1331.34 582.465C1330.86 587.788 1330.87 591.218 1331.19 592.822L1331.25 593.118V593.12C1334.42 605.205 1340.1 612.621 1346.72 620.684C1353.39 628.795 1361.14 637.686 1366.44 651.984C1391.01 718.302 1397.84 774.991 1378.75 844.105C1376.24 853.2 1373.68 864.382 1370.88 876.676C1368.09 888.915 1365.08 902.196 1361.71 915.285C1355.04 941.198 1346.71 967.403 1335.19 983.702L1335.19 983.703C1318.95 1006.66 1302.2 1032.77 1291.18 1057.96C1286.66 1068.3 1281.76 1074.84 1277.76 1080.8C1273.84 1086.66 1270.48 1092.33 1268 1101.7C1264.34 1115.59 1258.44 1123.09 1252.12 1129.98C1245.99 1136.67 1239.96 1142.34 1234.21 1153.36C1203.84 1211.47 1144.41 1249.38 1098.13 1279.02C1031.5 1321.7 954.661 1371.02 868.117 1383.51C851.432 1385.91 834.772 1386.92 818.2 1386.92H815.716L815.715 1386.92C794.622 1387.07 774.864 1389.11 754.54 1390.36C733.601 1391.64 712.441 1392.05 690.163 1388.34L557.314 1366.2C519.975 1359.97 476.073 1345.35 436.244 1325.03C396.505 1304.76 360.202 1278.51 338.656 1248.65C335.892 1244.82 331.83 1241.05 326.829 1237.12C321.814 1233.18 316.282 1229.41 310.547 1225.32C304.929 1221.31 299.189 1217.05 294.308 1212.44C289.589 1207.98 285.372 1202.92 282.845 1197.05L282.605 1196.48C278.798 1187.15 274.13 1182.87 268.558 1178.69C262.814 1174.39 255.234 1169.71 247.967 1160.22L247.965 1160.21C244.089 1155.15 241.488 1148.97 239.455 1142.76C237.431 1136.59 235.792 1129.8 234.149 1123.62C232.463 1117.28 230.736 1111.44 228.46 1106.41C226.191 1101.4 223.54 1097.58 220.229 1095.01L220.229 1095.01C195.328 1075.65 167.953 1054.54 154.604 1022.56C148.143 1007.08 145.63 988.453 143.666 970.663C141.659 952.486 140.223 935.262 136.244 921.091C126.697 887.09 121.855 846.106 118.899 811.261C117.419 793.808 116.404 777.78 115.521 764.894C114.623 751.808 113.88 742.343 112.981 737.517V737.515C101.911 677.948 115.09 609.453 138.153 547.25C161.244 484.973 194.526 428.244 224.527 391.983C238.601 374.974 254.415 359.464 271.373 343.212C288.382 326.911 306.569 309.841 325.741 289.467L326.408 288.764C340.601 273.954 365.363 256.51 390.18 239.891C415.746 222.77 441.507 206.436 457.938 193.828C492.966 166.948 520.612 158.158 549.313 152.465C577.916 146.791 606.332 144.311 645.035 130.039ZM1068.76 224.75C949.295 147.155 796.09 88.0319 650.895 140.674L649.187 141.298C609.3 156.006 579.091 158.792 551.648 164.235C524.305 169.659 498.485 177.839 465.243 203.349C448.404 216.27 421.95 233.057 396.856 249.861C371.805 266.637 348.205 283.368 335.097 297.041L334.48 297.69C315.043 318.346 296.579 335.676 279.676 351.875C263.251 367.616 248.322 382.268 235.053 398.098L233.773 399.634C204.725 434.743 172.082 490.264 149.405 551.422C126.702 612.654 114.271 678.777 124.779 735.32C125.836 740.999 126.617 751.312 127.492 764.072C128.381 777.032 129.387 792.919 130.856 810.246C133.801 844.96 138.574 884.998 147.797 917.847C152.118 933.236 153.657 951.817 155.593 969.347C157.571 987.264 159.968 1004.25 165.678 1017.94L166.246 1019.27C178.377 1047.12 202.609 1066.11 227.592 1085.53L228.093 1085.93C233.224 1090.09 236.754 1095.63 239.393 1101.46C242.109 1107.46 244.043 1114.13 245.746 1120.54C247.494 1127.11 248.974 1133.28 250.857 1139.03C252.731 1144.74 254.827 1149.43 257.495 1152.92L258.056 1153.64C263.849 1160.97 269.475 1164.38 275.754 1169.09C282.406 1174.07 288.823 1179.95 293.716 1191.94C295.306 1195.84 298.307 1199.71 302.551 1203.72C306.784 1207.72 311.937 1211.57 317.513 1215.55C322.971 1219.44 328.934 1223.52 334.241 1227.68C339.396 1231.73 344.33 1236.17 348.03 1241.14L348.385 1241.63L348.386 1241.63C368.35 1269.29 402.763 1294.48 441.697 1314.34C480.544 1334.16 523.277 1348.35 559.288 1354.36L692.137 1376.5C713.069 1379.99 733.16 1379.65 753.804 1378.38C774.269 1377.12 795.678 1374.91 818.19 1374.91H820.676L820.677 1374.91C835.939 1374.81 851.192 1373.82 866.404 1371.63C949.94 1359.58 1024.6 1311.86 1091.65 1268.92L1100.54 1263.21C1145.44 1234.31 1196.73 1199.18 1223.57 1147.8C1230.22 1135.08 1237.52 1128.15 1243.28 1121.87C1248.85 1115.8 1253.41 1109.97 1256.4 1098.64L1256.68 1097.6C1259.6 1087.06 1263.6 1080.37 1267.8 1074.12C1272.06 1067.77 1276.2 1062.27 1280.18 1053.15C1291.7 1026.83 1309.01 999.936 1325.39 976.773C1335.48 962.502 1343.38 938.348 1350.09 912.292C1353.41 899.397 1356.38 886.289 1359.18 874.011C1361.96 861.787 1364.59 850.321 1367.19 840.911C1385.46 774.746 1379.09 720.676 1355.18 656.153C1350.69 644.022 1344.27 636.596 1337.45 628.301C1330.6 619.956 1323.49 610.872 1319.65 596.157C1318.65 592.359 1318.9 586.76 1319.39 581.377C1319.91 575.671 1320.84 569.02 1321.76 562.549C1322.68 556 1323.6 549.637 1324.14 544.248C1324.68 538.92 1324.76 535.406 1324.49 533.709L1324.43 533.394C1322.11 522.757 1314.63 510.812 1305.67 497.923C1297.06 485.54 1287.04 472.233 1281.57 460.095C1262.32 417.39 1241.37 377.371 1211.11 348.5C1166.65 306.082 1120.52 258.367 1068.76 224.75Z" fill="#003F72"/>
<path d="M650.824 165.983C793.476 113.382 942.33 172.274 1056.16 246.204C1106.13 278.657 1150.68 324.606 1192 364.027C1221.41 392.09 1241.95 429.829 1259.73 468.787L1261.44 472.561V472.562C1265.29 481.113 1271.85 490.552 1279 500.933C1285.94 511.009 1293.4 521.926 1298.06 532.624C1299.72 536.412 1301.07 540.287 1301.91 544.184L1302.03 544.791C1302.59 547.888 1302.47 551.858 1302.19 555.664C1301.88 559.951 1301.29 564.916 1300.64 569.927L1300.64 569.926C1299.73 576.992 1298.74 584.133 1298.15 590.324C1297.86 593.404 1297.68 596.111 1297.66 598.337C1297.64 600.679 1297.8 602.026 1297.96 602.617L1297.97 602.639C1300.41 611.903 1304.43 618.284 1309.19 624.503C1313.67 630.355 1319.61 636.94 1324.51 645.194L1324.98 645.998L1324.99 646C1326.93 649.371 1328.74 653.077 1330.34 657.249L1330.66 658.09L1330.66 658.093C1353.81 720.548 1360.71 774.273 1342.75 839.305C1339.32 851.737 1335.75 867.82 1331.52 885.212C1327.34 902.434 1322.55 920.717 1316.79 936.903C1312.24 949.749 1306.94 961.634 1300.57 970.67C1291.16 984.022 1281.57 998.49 1273.21 1013.22L1273.21 1013.23C1268.03 1022.33 1263.35 1031.52 1259.44 1040.54L1259.44 1040.55C1256.3 1047.79 1253.01 1053.05 1249.99 1057.64C1246.92 1062.3 1244.4 1065.89 1242.16 1070.44L1242.16 1070.44C1240.61 1073.57 1239.19 1077.19 1237.99 1081.76C1234.51 1094.92 1228.96 1102.22 1223.05 1108.88C1217.5 1115.13 1212.15 1120.34 1206.98 1129.92L1206.48 1130.86C1177.81 1185.71 1121.72 1221.46 1078.15 1249.38C1015.44 1289.54 942.9 1336.12 861.237 1347.9H861.235C845.469 1350.17 829.719 1351.12 814.058 1351.11C793.344 1351.11 774.08 1353 754.111 1354.09C734.343 1355.17 714.322 1355.43 693.269 1351.92L568.969 1331.2C547.706 1327.66 522.125 1320.8 498.582 1311.89C445.506 1292.15 391.445 1260.51 363.124 1222.35C360.546 1218.88 356.786 1215.42 352.125 1211.77C347.444 1208.1 342.323 1204.6 336.95 1200.75C331.707 1196.99 326.316 1192.97 321.706 1188.6C317.107 1184.24 312.948 1179.22 310.496 1173.34L310.493 1173.33C306.954 1164.82 302.691 1160.8 297.552 1156.8C292.247 1152.67 285.119 1148.03 278.301 1138.98L278.296 1138.98L278.292 1138.97C276.754 1136.92 275.447 1134.73 274.303 1132.47L274.299 1132.46L274.294 1132.45C269.542 1123.02 266.916 1110.49 264.092 1100.67C261.022 1090.01 257.668 1082.07 252.166 1077.69L252.159 1077.68C250.679 1076.5 249.187 1075.32 247.686 1074.13L247.679 1074.12C230.02 1060.07 211.289 1044.84 198.317 1024.9C195.136 1020.01 192.289 1014.83 189.872 1009.31C181.928 991.302 179.538 968.761 177.15 948.557V948.555C175.651 935.824 174.165 923.998 171.433 913.854C168.167 901.794 165.564 888.869 163.439 875.717C160.736 859.061 158.778 841.951 157.196 825.688L156.885 822.445C155.087 803.493 153.836 785.751 152.76 771.392C151.666 756.803 150.778 746.152 149.745 740.808L149.744 740.804C140.817 694.49 148.058 641.166 163.468 590.208C178.903 539.166 202.709 489.92 227.538 451.516C236.472 437.685 245.613 425.151 254.538 414.368L255.791 412.864C268.788 397.358 283.325 383.034 298.801 368.132C313.746 353.74 329.584 338.788 346.134 321.443L346.125 321.43L349.738 317.591C359.333 307.396 373.91 296.028 389.803 284.696C405.768 273.312 423.484 261.673 439.502 251.006L439.505 251.004C452.934 242.071 465.105 233.841 474.264 226.877C507.221 201.741 533.526 193.203 560.764 187.557C587.925 181.926 614.668 179.315 650.824 165.983ZM1048.94 257.333C936.088 184.043 791.984 128.075 655.415 178.434C618.021 192.222 589.334 195.186 563.458 200.55C537.66 205.898 513.322 213.775 482.304 237.434L482.296 237.439C472.755 244.695 460.246 253.143 446.856 262.05L446.857 262.051C430.726 272.793 413.251 284.275 397.507 295.501C382.747 306.025 369.871 316.073 361.199 324.825L359.423 326.715C341.277 346.005 323.916 362.369 308.006 377.69C292.038 393.067 277.549 407.376 264.762 422.828L264.761 422.829C256.206 433.165 247.369 445.27 238.684 458.718L238.682 458.721C214.491 496.137 191.226 544.256 176.169 594.049C161.087 643.924 154.412 694.904 162.773 738.289C163.99 744.585 164.928 756.199 165.992 770.4C167.074 784.831 168.313 802.404 170.095 821.19C171.617 837.218 173.474 854.002 176.021 870.335L176.539 873.596L176.54 873.601C178.485 885.642 180.818 897.34 183.667 908.228L184.244 910.395L184.246 910.402C187.273 921.638 188.849 934.432 190.329 947L191.255 954.803C193.436 972.906 195.921 990.154 202.02 1003.97L202.027 1003.99C204.13 1008.79 206.622 1013.33 209.44 1017.66L209.441 1017.66C221.068 1035.54 238.094 1049.54 255.933 1063.73C257.431 1064.92 258.941 1066.12 260.44 1067.31C269.584 1074.6 273.808 1086.45 276.845 1097C280.128 1108.41 282.138 1118.53 286.146 1126.48C287.016 1128.2 287.923 1129.69 288.898 1131L289.411 1131.67C294.709 1138.48 299.827 1141.75 305.705 1146.33C311.937 1151.18 318.032 1156.91 322.742 1168.23C324.201 1171.73 326.925 1175.26 330.838 1178.97C334.74 1182.67 339.491 1186.24 344.677 1189.96C349.733 1193.58 355.327 1197.42 360.306 1201.32C364.991 1204.98 369.542 1209.01 373.081 1213.52L373.775 1214.43L373.778 1214.43C399.445 1249.03 449.496 1279.12 500.799 1298.55L503.242 1299.47L503.26 1299.48L503.277 1299.48C526.054 1308.1 550.794 1314.72 571.151 1318.11L695.45 1338.83C715.067 1342.1 733.947 1341.91 753.386 1340.84C772.625 1339.79 792.875 1337.84 814.062 1337.84H814.064C828.237 1337.85 842.402 1337.04 856.521 1335.15L859.344 1334.76C937.68 1323.46 1007.82 1278.66 1070.99 1238.2C1115.18 1209.89 1167.97 1175.9 1194.72 1124.71C1200.98 1112.74 1207.83 1106.03 1213.13 1100.06C1218.25 1094.3 1222.4 1088.81 1225.15 1078.38L1225.43 1077.37C1226.8 1072.4 1228.43 1068.26 1230.26 1064.56C1232.97 1059.08 1236.09 1054.62 1238.9 1050.35C1241.57 1046.29 1244.21 1042.06 1246.75 1036.42L1247.26 1035.27C1251.4 1025.72 1256.31 1016.1 1261.67 1006.67C1270.33 991.424 1280.18 976.572 1289.73 963.025L1289.73 963.024C1295.07 955.443 1299.89 944.874 1304.29 932.465L1304.29 932.453C1309.81 916.949 1314.46 899.223 1318.63 882.077C1322.76 865.102 1326.46 848.459 1329.96 835.771C1347 774.065 1340.65 723.25 1318.22 662.707L1317.95 662.003C1316.62 658.513 1315.11 655.436 1313.5 652.639L1313.08 651.929C1308.77 644.662 1303.98 639.519 1298.66 632.571C1293.3 625.582 1288.19 617.613 1285.14 606.038C1284.51 603.67 1284.37 600.869 1284.39 598.219C1284.42 595.452 1284.63 592.322 1284.94 589.067C1285.56 582.59 1286.6 575.068 1287.48 568.235L1287.48 568.23C1288.12 563.231 1288.68 558.586 1288.96 554.7C1289.26 550.588 1289.18 548.1 1288.95 547.014L1288.95 547.003C1288.33 544.163 1287.3 541.141 1285.9 537.952L1285.9 537.943L1285.9 537.936C1281.84 528.619 1275.17 518.762 1268.07 508.459C1261.18 498.455 1253.8 487.905 1249.34 478.016C1231.57 438.608 1211.86 401.886 1184.17 374.906L1182.84 373.629C1140.92 333.631 1097.57 288.92 1048.94 257.333Z" fill="#003F72"/>
<path d="M658.205 201.338C791.842 152.895 930.681 208.613 1037.05 277.707C1084.02 308.211 1125.88 351.261 1164.62 388.225L1165.96 389.512C1193.88 416.688 1213.6 452.76 1230.37 489.947C1233.98 497.942 1239.96 506.754 1246.53 516.542C1252.89 526.016 1259.75 536.353 1264.08 546.535C1265.61 550.117 1266.88 553.791 1267.69 557.502L1267.81 558.104C1268.37 561.16 1268.29 564.973 1268.07 568.548C1267.82 572.582 1267.32 577.222 1266.78 581.868L1266.78 581.867C1266.02 588.449 1265.19 595.046 1264.72 600.79C1264.49 603.645 1264.36 606.146 1264.37 608.203C1264.38 610.367 1264.55 611.592 1264.69 612.115C1266.96 620.583 1270.61 626.51 1274.97 632.357C1279.05 637.833 1284.56 644.17 1289.11 651.958L1289.55 652.717L1289.56 652.727L1289.56 652.735C1291.37 655.938 1293.08 659.441 1294.59 663.378L1294.89 664.172L1294.89 664.182C1316.59 722.759 1323.61 773.524 1306.76 834.496C1300.4 857.509 1292.54 895.909 1281.46 925.881L1281.46 925.88C1277.09 937.853 1272.01 949.008 1265.96 957.62L1265.96 957.621C1257.15 970.16 1248.22 983.703 1240.45 997.522C1235.65 1006.06 1231.32 1014.66 1227.7 1023.12L1227.69 1023.13C1224.77 1029.94 1221.73 1034.94 1218.94 1039.3C1216.11 1043.72 1213.82 1047.11 1211.77 1051.34C1210.35 1054.28 1209.05 1057.63 1207.94 1061.84L1207.94 1061.85C1204.66 1074.27 1199.48 1081.34 1193.98 1087.76C1188.65 1093.98 1183.64 1099.01 1178.74 1108.39C1151.77 1159.99 1099.01 1193.57 1058.14 1219.75C999.361 1257.41 931.123 1301.24 854.339 1312.32C839.473 1314.47 824.639 1315.35 809.886 1315.34C790.472 1315.33 772.45 1316.97 753.624 1317.85C735.024 1318.73 716.148 1318.83 696.332 1315.52L580.594 1296.23C561.435 1293.04 536.171 1286.49 514.876 1278.45L512.552 1277.6C463.741 1259.47 414.24 1230.91 387.589 1196.08L387.126 1195.49C384.754 1192.56 381.457 1189.59 377.402 1186.43C373.049 1183.03 368.339 1179.8 363.325 1176.19C353.946 1169.43 343.024 1161.12 338.361 1150.23L338.352 1150.21C335.081 1142.5 331.208 1138.73 326.484 1134.89C321.605 1130.93 314.948 1126.33 308.598 1117.73L308.585 1117.71L308.572 1117.7C307.138 1115.73 305.896 1113.63 304.81 1111.47L304.806 1111.46L304.801 1111.45C300.323 1102.48 297.744 1090.63 295.07 1081.56C292.134 1071.61 288.998 1064.38 284.061 1060.34C282.678 1059.21 281.291 1058.09 279.896 1056.95C263.511 1043.64 245.821 1029.27 233.344 1010.66L232.769 1009.8C229.911 1005.46 227.355 1000.89 225.121 996.083L225.12 996.08C217.244 979.102 214.414 958.148 211.964 939.159C210.414 927.186 209.037 916.139 206.573 906.549C203.624 895.16 201.321 882.965 199.457 870.589L198.991 867.452C196.705 851.743 195.065 835.696 193.646 820.52C191.992 802.924 190.736 786.402 189.619 772.99C188.483 759.351 187.515 749.3 186.466 744.046L186.08 742.057C178.206 700.173 184.74 651.002 198.769 603.633C213.051 555.405 235.308 508.348 259.06 471.608C267.381 458.73 276.008 446.938 284.494 436.681L284.495 436.68C297.045 421.517 311.18 407.496 326.174 392.979C341.231 378.4 357.169 363.306 373.731 345.703L386.305 332.34V333.914C405.847 317.228 434.043 298.585 457.94 282.574L457.943 282.573C469.711 274.697 480.473 267.43 488.949 261.149L490.614 259.906C521.495 236.515 546.453 228.233 572.218 222.635C597.94 217.046 623.013 214.309 656.633 201.913L658.205 201.338ZM1029.13 289.909C923.374 221.215 789.086 168.58 661.666 215.564C626.777 228.428 599.614 231.571 575.307 236.853C551.046 242.124 528.183 249.699 499.383 271.518L499.374 271.524L499.365 271.53C490.277 278.372 478.525 286.303 466.038 294.661L466.039 294.662C435.529 315.103 400.992 337.975 384.328 355.684L371.755 369.046V368.717C359.39 381.261 347.467 392.614 336.295 403.432C321.314 417.936 307.694 431.469 295.704 445.955C287.611 455.737 279.319 467.066 271.28 479.507L271.279 479.508C248.271 515.098 226.602 560.888 212.72 607.765C199.023 654.014 193.104 700.652 200.377 739.354L200.733 741.191V741.193C201.984 747.45 203.01 758.464 204.119 771.782C205.106 783.636 206.179 797.623 207.534 812.654L208.133 819.157V819.162C209.546 834.284 211.158 850.03 213.388 865.35L213.843 868.408L213.844 868.415C215.659 880.471 217.874 892.15 220.662 902.914L220.664 902.921L220.666 902.929C223.06 912.246 224.494 922.638 225.827 932.905L226.395 937.295V937.298C228.904 956.749 231.555 975.375 238.319 989.957C240.248 994.109 242.451 998.047 244.918 1001.79L245.415 1002.54L245.423 1002.55C256.483 1019.05 272.387 1032.1 289.077 1045.66L289.083 1045.67L293.259 1049.06L293.278 1049.08C302.02 1056.24 306.11 1067.56 309.026 1077.45C312.205 1088.23 314.106 1097.52 317.818 1104.95C318.608 1106.52 319.442 1107.91 320.322 1109.11C325.284 1115.83 330.027 1119.02 335.663 1123.6C341.458 1128.31 347.22 1133.86 351.737 1144.5C354.555 1151.08 361.879 1157.21 371.829 1164.38C376.48 1167.73 381.707 1171.33 386.351 1174.95C390.731 1178.37 395.044 1182.14 398.46 1186.37L399.131 1187.22L399.138 1187.23C423.341 1218.86 469.823 1246.2 517.588 1263.95L519.863 1264.78L519.941 1264.81C540.33 1272.52 564.708 1278.84 582.985 1281.88L698.726 1301.17C717.029 1304.23 734.705 1304.18 752.939 1303.32C770.948 1302.47 790.047 1300.78 809.894 1300.79C824.059 1300.8 838.187 1299.95 852.26 1297.92C925.395 1287.37 990.998 1245.49 1050.29 1207.5C1091.84 1180.89 1140.97 1149.23 1165.84 1101.65C1171.7 1090.44 1178.09 1083.94 1182.93 1078.29C1187.6 1072.84 1191.35 1067.69 1193.88 1058.13C1195.23 1053.01 1196.85 1048.78 1198.67 1045.01L1198.67 1045C1201.19 1039.79 1204.1 1035.49 1206.68 1031.46C1209.29 1027.37 1211.86 1023.13 1214.33 1017.39C1218.19 1008.35 1222.77 999.289 1227.77 990.395L1229.3 987.699C1237.01 974.253 1245.65 961.22 1254.06 949.258L1254.52 948.584C1259.33 941.542 1263.74 931.999 1267.81 920.861L1267.81 920.85L1267.82 920.837C1278.64 891.549 1285.93 855.249 1292.74 830.621C1308.55 773.376 1302.21 725.824 1281.25 669.246L1280.76 667.96C1279.59 665.005 1278.29 662.355 1276.9 659.901C1272.85 652.799 1268.4 647.897 1263.3 641.05C1258.34 634.392 1253.55 626.784 1250.63 615.882L1250.63 615.881C1250 613.528 1249.83 610.81 1249.82 608.273C1249.81 605.629 1249.97 602.668 1250.22 599.615C1250.71 593.544 1251.59 586.532 1252.32 580.195L1252.32 580.188C1252.86 575.545 1253.32 571.255 1253.55 567.654C1253.78 563.832 1253.68 561.576 1253.47 560.614L1253.47 560.61C1252.9 558.003 1251.97 555.218 1250.7 552.262L1250.69 552.244C1247 543.542 1240.95 534.337 1234.45 524.648C1228.16 515.269 1221.33 505.295 1217.11 495.93C1200.27 458.588 1181.12 424.075 1154.58 398.753L1154.58 398.752C1115.2 361.176 1074.64 319.465 1029.13 289.909Z" fill="#003F72"/>
<path d="M662.424 237.868C788.016 191.558 918.178 244.451 1017.92 309.236C1061.88 337.79 1101.06 377.938 1137.23 412.446C1164.13 438.101 1183.38 472.062 1199.29 507.356C1202.65 514.809 1208.07 523.011 1214.04 532.206C1219.82 541.09 1226.07 550.846 1230.08 560.499L1230.6 561.767C1231.69 564.523 1232.62 567.342 1233.29 570.202L1233.44 570.863L1233.44 570.866C1234.12 573.97 1234.09 577.871 1233.92 581.448C1233.74 585.233 1233.32 589.546 1232.88 593.837C1232.26 599.927 1231.59 605.979 1231.25 611.267C1230.88 616.919 1231.02 620.304 1231.37 621.623L1231.57 622.337C1233.67 629.653 1236.88 634.964 1240.72 640.272C1244.41 645.375 1249.49 651.456 1253.7 658.771L1254.1 659.482L1254.11 659.497L1254.12 659.512C1255.91 662.739 1257.6 666.294 1259.09 670.312L1260.03 672.871C1279.55 726.492 1286.21 773.694 1270.75 829.715L1270.74 829.716C1264.69 851.613 1256.83 886.815 1246.12 914.889C1241.9 925.949 1237.08 936.4 1231.34 944.604L1231.34 944.607C1223.13 956.333 1214.85 968.948 1207.68 981.843L1207.68 981.846C1203.26 989.797 1199.28 997.816 1195.96 1005.71L1195.96 1005.72L1195.95 1005.73C1193.25 1012.09 1190.45 1016.82 1187.9 1020.94C1185.32 1025.13 1183.25 1028.31 1181.39 1032.24C1180.1 1034.98 1178.92 1038.09 1177.91 1041.93L1177.91 1041.94C1174.82 1053.6 1170.01 1060.44 1164.94 1066.61C1160 1072.62 1155.48 1077.33 1150.99 1085.92C1125.73 1134.25 1076.3 1165.69 1038.14 1190.13C983.696 1225 920.331 1265.72 849.113 1276.49L847.43 1276.74C834.35 1278.62 821.293 1279.47 808.302 1279.56L805.704 1279.57C787.575 1279.55 770.81 1280.93 753.116 1281.61C735.683 1282.28 717.955 1282.22 699.378 1279.12L592.2 1261.26H592.197C575.131 1258.41 550.11 1252.18 531.026 1244.96C485.038 1228.55 437.857 1202.38 412.055 1169.85C407.304 1163.89 399.197 1158.55 389.653 1151.64C381.015 1145.38 370.751 1137.51 366.212 1127.13C363.336 1120.55 359.843 1117.02 355.403 1113.19C350.865 1109.27 344.683 1104.59 338.846 1096.46L338.83 1096.44C337.478 1094.55 336.307 1092.53 335.279 1090.46C331.082 1081.97 328.554 1070.8 326.036 1062.47C323.24 1053.23 320.325 1046.7 315.928 1043L315.919 1043C314.669 1041.94 313.405 1040.89 312.11 1039.82L312.104 1039.81L312.098 1039.81C297.008 1027.24 280.347 1013.73 268.383 996.472L267.83 995.667C265.081 991.631 262.596 987.39 260.396 982.929C252.543 967.005 249.315 947.614 246.789 929.843L246.788 929.841C245.194 918.614 243.907 908.336 241.712 899.271C239.068 888.536 237.076 877.086 235.475 865.48C233.306 849.855 231.811 833.779 230.413 818.646C229.656 810.515 228.965 802.641 228.318 795.245C227.671 787.838 227.068 780.922 226.487 774.666C225.31 761.985 224.262 752.525 223.194 747.362L223.195 747.361C215.246 709.044 221.039 662.407 234.114 617.139C247.229 571.732 267.911 526.866 290.598 491.784C298.304 479.862 306.407 468.799 314.468 459.064C326.252 444.829 339.543 431.556 353.555 417.904C367.636 404.185 382.45 390.079 397.709 373.859L397.792 373.771L397.821 373.741C415.137 355.383 448.691 332.82 476.368 314.161L476.372 314.158C488.057 306.291 498.706 299.12 506.958 292.961C535.813 271.394 559.409 263.368 583.675 257.801C607.935 252.234 631.325 249.336 662.424 237.868ZM1009.3 322.503C910.623 258.408 786.165 209.101 667.896 252.711C635.536 264.643 609.945 268.005 587.213 273.221C564.487 278.435 543.079 285.714 516.426 305.636L516.422 305.639C507.794 312.079 496.783 319.488 485.208 327.281C456.776 346.449 425.022 367.916 409.251 384.68L409.169 384.768L409.134 384.801C393.606 401.299 378.489 415.698 364.595 429.235C350.602 442.868 337.849 455.629 326.653 469.153L326.652 469.154C319.014 478.379 311.276 488.937 303.883 500.374L303.882 500.375C282.058 534.123 262.011 577.567 249.313 621.528C236.577 665.625 231.476 709.41 238.685 744.152L238.686 744.157C239.968 750.354 241.085 760.755 242.24 773.203C242.826 779.512 243.432 786.478 244.078 793.867C244.563 799.416 245.072 805.21 245.613 811.172L246.166 817.187L246.167 817.192C247.482 831.429 248.851 846.137 250.757 860.454L251.145 863.312L251.146 863.318C252.605 873.897 254.371 884.12 256.623 893.626L257.08 895.518L257.084 895.532L257.088 895.548C259.513 905.562 260.925 916.864 262.451 927.616C265.005 945.585 267.997 962.574 274.584 975.931C276.577 979.971 278.846 983.803 281.377 987.447L281.381 987.453C291.877 1002.59 306.674 1014.7 322.223 1027.65C323.502 1028.71 324.809 1029.8 326.111 1030.9C334.434 1037.9 338.385 1048.66 341.179 1057.89C344.155 1067.73 345.925 1075.99 349.145 1082.79L349.461 1083.44C350.173 1084.88 350.922 1086.15 351.709 1087.25C356.177 1093.47 360.54 1096.73 365.741 1101.22C371.047 1105.8 376.494 1111.15 380.708 1120.79C383.259 1126.63 389.766 1132.19 398.935 1138.83C406.94 1144.63 417.267 1151.41 423.805 1159.23L424.425 1159.99L424.438 1160C447.178 1188.68 490.108 1213.29 534.339 1229.34L536.446 1230.1L536.518 1230.12L536.589 1230.15C554.561 1236.95 578.579 1242.95 594.803 1245.66L701.98 1263.52H701.982C718.995 1266.36 735.478 1266.46 752.51 1265.8C769.28 1265.16 787.235 1263.73 805.716 1263.75C818.927 1263.76 832.082 1262.97 845.17 1261.08L846.762 1260.85C914.061 1250.67 974.606 1212.03 1029.6 1176.81C1068.51 1151.89 1113.99 1122.55 1136.97 1078.59L1136.97 1078.58C1142.42 1068.16 1148.34 1061.89 1152.72 1056.57C1156.95 1051.42 1160.31 1046.59 1162.61 1037.9C1163.88 1033.09 1165.39 1029.09 1167.08 1025.5L1167.08 1025.49L1167.09 1025.48C1169.42 1020.55 1172.1 1016.43 1174.44 1012.63C1176.83 1008.77 1179.15 1004.82 1181.39 999.547C1184.97 991.046 1189.21 982.513 1193.86 974.153C1201.39 960.609 1209.99 947.505 1218.38 935.531C1223.02 928.895 1227.3 919.848 1231.34 909.251L1232.3 906.688C1242.16 880.022 1249.31 847.903 1255.5 825.503C1270.06 772.734 1263.74 728.443 1244.25 675.807L1244.25 675.801C1243.08 672.634 1241.74 669.819 1240.3 667.217C1236.61 660.63 1232.61 656.064 1227.9 649.536C1223.33 643.221 1218.89 635.988 1216.11 625.776L1216.11 625.772C1214.95 621.529 1215.12 615.549 1215.46 610.244C1215.83 604.576 1216.55 598.075 1217.14 592.223L1217.14 592.213L1217.14 592.202C1217.59 587.923 1217.96 583.991 1218.12 580.681C1218.29 577.164 1218.17 575.119 1217.98 574.253C1217.46 571.862 1216.61 569.31 1215.48 566.58V566.578C1212.1 558.472 1206.67 549.898 1200.78 540.825C1195.09 532.063 1188.85 522.679 1184.87 513.862L1184.87 513.86C1169.26 479.235 1151.01 447.458 1126.31 423.894C1089.46 388.742 1051.68 350.029 1009.3 322.503Z" fill="#003F72"/>
<path d="M668.225 273.802C785.304 230.645 906.109 280.545 998.795 340.743C1039.76 367.346 1076.25 404.588 1109.85 436.646C1134.98 460.614 1153.42 491.92 1168.22 524.745L1168.83 526.052C1171.96 532.628 1176.55 539.813 1181.6 547.879C1186.8 556.175 1192.43 565.336 1196.11 574.446L1196.12 574.457C1197.3 577.386 1198.34 580.437 1199.07 583.57L1199.21 584.198L1199.21 584.205C1199.87 587.231 1199.9 590.928 1199.79 594.27C1199.67 597.798 1199.35 601.779 1199.01 605.699C1198.54 611.301 1198.03 616.806 1197.81 621.643C1197.59 626.497 1197.74 629.486 1198.04 630.835L1198.1 631.083C1200.01 638.011 1202.96 643.06 1206.53 648.182C1209.83 652.921 1214.48 658.735 1218.32 665.571L1218.69 666.236L1218.7 666.246L1218.7 666.256C1220.37 669.311 1221.94 672.647 1223.32 676.402C1242.12 727.171 1249.36 772.02 1234.76 824.895C1229.01 845.695 1221.19 877.77 1210.78 903.901C1206.73 914.083 1202.14 923.778 1196.73 931.542L1196.73 931.549C1189.12 942.456 1181.5 954.15 1174.94 966.104L1174.94 966.105C1170.9 973.492 1167.27 980.921 1164.23 988.24L1164.22 988.273C1161.75 994.176 1159.19 998.638 1156.88 1002.51C1154.54 1006.45 1152.7 1009.43 1151.04 1013.05C1149.88 1015.59 1148.82 1018.46 1147.88 1021.99L1147.88 1021.99C1145 1032.86 1140.58 1039.45 1135.93 1045.37C1131.4 1051.16 1127.35 1055.57 1123.26 1063.4L1123.26 1063.4C1099.7 1108.48 1053.63 1137.75 1018.16 1160.46L1018.16 1160.47C967.216 1193.09 907.574 1231.45 840.56 1241.11C827.527 1242.98 814.501 1243.76 801.57 1243.74C784.688 1243.72 769.209 1244.85 752.63 1245.32C736.365 1245.78 719.801 1245.57 702.485 1242.68L603.865 1226.24C588.967 1223.75 564.273 1217.84 547.406 1211.48C504.935 1196.74 461.159 1173.3 436.594 1143.57C432.15 1138.24 424.857 1133.45 416.045 1127.02C408.134 1121.25 398.556 1113.84 394.129 1104.01L394.128 1104.01C391.34 1097.81 388.168 1094.51 384.213 1090.95C380.137 1087.28 374.499 1082.8 369.135 1075.12L369.129 1075.11L369.124 1075.11C367.852 1073.28 366.76 1071.35 365.81 1069.41L365.805 1069.41C361.898 1061.42 359.418 1050.95 357.054 1043.37C354.398 1034.85 351.698 1028.97 347.802 1025.58L347.795 1025.57C346.661 1024.58 345.532 1023.62 344.3 1022.57C330.52 1010.77 314.906 998.12 303.476 982.242C300.616 978.283 298.038 974.128 295.744 969.771L295.021 968.369C287.673 953.804 284.18 936.577 281.658 920.493V920.49C280.109 910.591 278.998 901.682 277.249 893.543L276.891 891.926C274.586 881.856 272.873 871.143 271.53 860.3C269.718 845.769 268.491 830.766 267.221 816.729C264.453 786.522 262.235 761.216 259.967 750.649L259.63 749.033C252.732 714.968 257.829 672.358 269.528 630.611C281.462 588.031 300.546 545.346 322.176 511.908C329.273 500.935 336.861 490.612 344.491 481.406C355.506 468.103 367.951 455.58 380.982 442.794C392.997 431.005 405.501 418.998 418.257 405.65L421.729 401.963C438.208 384.454 469.056 363.238 494.785 345.743L494.791 345.739C505.618 338.39 515.499 331.757 523.314 325.985C550.087 306.199 572.312 298.433 595.079 292.911C617.894 287.377 639.625 284.346 668.225 273.802ZM989.486 355.076C897.873 295.575 783.257 249.614 674.137 289.837C644.316 300.832 620.272 304.386 599.107 309.52C577.895 314.665 557.936 321.649 533.47 339.731L533.467 339.733C525.304 345.761 515.045 352.646 504.395 359.875C478.888 377.219 450.886 396.59 435.613 412.176L434.193 413.686C419.927 428.846 405.88 442.307 392.951 454.992C379.946 467.753 368.056 479.744 357.652 492.31L357.649 492.312C350.91 500.444 344.167 509.546 337.795 519.243L336.525 521.19C315.895 553.082 297.489 594.173 285.984 635.223C274.613 675.799 270.257 715.371 276.375 745.616L276.674 747.05L276.675 747.055C278.588 755.962 280.373 773.304 282.281 793.808L284.24 815.17L284.241 815.18C285.45 828.545 286.574 842.205 288.165 855.531L288.49 858.191V858.199C289.788 868.676 291.414 878.783 293.55 888.113L293.942 889.881C295.856 898.786 297.111 908.698 298.543 917.849C301.039 933.771 304.234 948.682 310.264 960.641L310.856 961.789L310.862 961.801C312.545 964.998 314.407 968.06 316.45 970.995L317.337 972.245L317.341 972.251L317.346 972.257C326.051 984.35 337.616 994.398 350.044 1005L355.418 1009.59L355.422 1009.59C356.567 1010.57 357.815 1011.63 359.019 1012.68L359.744 1013.33C367.12 1020.16 370.775 1029.96 373.369 1038.28C376.335 1047.79 378.011 1055.46 381.151 1061.88L381.396 1062.37C381.964 1063.49 382.548 1064.47 383.146 1065.34L383.518 1065.86C387.35 1071.2 391.047 1074.11 395.647 1078.25C400.517 1082.63 405.571 1087.79 409.713 1096.99C412.016 1102.11 417.742 1107.11 426.116 1113.22C433.577 1118.66 443.541 1125.2 449.749 1132.66L449.758 1132.67L449.768 1132.69C471.052 1158.44 510.428 1180.3 551.132 1194.68L553.183 1195.4L553.293 1195.44C568.842 1201.32 592.501 1207.02 606.677 1209.38L705.296 1225.82L706.769 1226.06C721.976 1228.46 736.811 1228.67 752.144 1228.23C767.656 1227.79 784.503 1226.63 801.591 1226.65H801.594C813.058 1226.67 824.492 1226.02 835.852 1224.51L838.123 1224.19C900.848 1215.15 957.386 1179.09 1008.94 1146.07C1045.22 1122.85 1087.02 1095.84 1108.12 1055.48C1113.14 1045.87 1118.57 1039.82 1122.48 1034.83C1126.29 1029.98 1129.28 1025.47 1131.36 1017.61C1132.55 1013.14 1133.94 1009.37 1135.5 1005.95C1137.63 1001.29 1140.07 997.358 1142.19 993.78C1144.36 990.136 1146.44 986.473 1148.46 981.666C1151.76 973.696 1155.67 965.717 1159.96 957.894L1159.96 957.889C1166.92 945.205 1174.9 932.961 1182.71 921.77C1187.02 915.576 1191.05 907.276 1194.9 897.584L1194.9 897.578C1204.85 872.59 1212.31 841.964 1218.28 820.344C1231.62 772.059 1225.34 731.048 1207.3 682.337L1207.29 682.33C1206.23 679.436 1205.02 676.861 1203.71 674.463L1203.08 673.345C1199.93 667.85 1196.55 663.758 1192.5 657.949C1188.35 651.984 1184.25 645.138 1181.62 635.637L1181.52 635.24C1180.47 631.1 1180.52 625.64 1180.74 620.861C1180.98 615.596 1181.54 609.604 1181.99 604.245L1181.99 604.232L1181.99 604.221C1182.33 600.311 1182.61 596.731 1182.71 593.702C1182.81 590.496 1182.68 588.638 1182.51 587.841C1182.04 585.698 1181.29 583.385 1180.27 580.853L1179.98 580.147C1176.93 572.846 1172.24 565.135 1167.12 556.95C1162.02 548.809 1156.36 540.025 1152.64 531.774V531.772C1138.27 499.898 1120.92 470.825 1098.05 449.013L1098.05 449.012C1063.75 416.291 1028.74 380.573 989.486 355.076Z" fill="#003F72"/>
<path d="M674.016 309.746C782.58 269.73 894.043 316.658 979.66 372.25L981.437 373.413C1018.68 397.973 1051.9 431.697 1082.46 460.846L1083.55 461.895C1106.36 484.008 1123.65 512.208 1137.15 542.135C1140.05 548.57 1144.38 555.582 1149.18 563.594C1153.8 571.307 1158.81 579.862 1162.14 588.424C1163.14 590.984 1164.03 593.627 1164.69 596.337L1164.97 597.503L1164.97 597.524C1165.61 600.465 1165.69 603.949 1165.64 607.049C1165.59 610.312 1165.37 613.961 1165.14 617.502V617.505C1164.81 622.611 1164.46 627.592 1164.36 631.977C1164.25 636.65 1164.48 639.412 1164.8 640.548C1166.53 646.731 1169.15 651.353 1172.34 656.124C1175.37 660.655 1179.75 666.4 1183.29 673.024L1183.29 673.032L1183.3 673.041C1184.63 675.555 1185.9 678.252 1187.05 681.207L1187.54 682.49L1187.54 682.492C1204.87 729.31 1212.24 771.228 1198.75 820.083L1198.75 820.084C1193.3 839.819 1185.5 868.8 1175.41 892.957L1175.41 892.961C1171.54 902.224 1167.19 911.181 1162.12 918.492L1162.12 918.496C1155.11 928.592 1148.15 939.352 1142.2 950.377L1142.2 950.384C1138.54 957.159 1135.28 964.023 1132.5 970.808L1132.5 970.809C1130.27 976.251 1127.96 980.441 1125.9 984.069C1123.8 987.761 1122.16 990.546 1120.69 993.86L1120.7 993.861C1119.65 996.248 1118.69 998.88 1117.84 1002.06L1117.84 1002.06C1115.18 1012.12 1111.17 1018.45 1106.96 1024.12C1102.82 1029.71 1099.24 1033.81 1095.53 1040.91L1095.53 1040.91C1073.67 1082.73 1030.92 1109.86 998.161 1130.84C951.132 1160.96 895.796 1196.56 833.662 1205.52L833.663 1205.53C821.527 1207.28 809.417 1207.99 797.396 1207.97H797.394C781.685 1207.94 767.61 1208.81 752.083 1209.07C736.986 1209.32 721.596 1208.95 705.552 1206.27L615.481 1191.26C602.734 1189.14 578.325 1183.53 563.633 1178.01C525.318 1165.14 485.755 1144.85 462.268 1118.68L461.16 1117.43C457.014 1112.67 450.504 1108.41 442.401 1102.45C435.206 1097.16 426.34 1090.22 422.03 1080.97L421.546 1079.96C419.106 1075.08 416.386 1072.15 413.014 1068.92C409.322 1065.38 404.233 1060.98 399.377 1053.8L399.369 1053.79C398.174 1052.02 397.175 1050.19 396.307 1048.41L396.301 1048.39L396.294 1048.38C392.69 1040.92 390.258 1031.16 388.046 1024.31C385.534 1016.53 383.044 1011.27 379.619 1008.17C378.577 1007.24 377.526 1006.3 376.464 1005.37L376.452 1005.36C364.033 994.384 349.453 982.578 338.586 968.135C335.817 964.483 333.328 960.665 331.084 956.712C323.249 942.955 319.192 926.709 316.487 911.218L316.486 911.211C314.744 901.186 313.753 892.81 312.009 884.544C310.014 875.13 308.613 865.164 307.544 855.1L307.278 852.586C305.974 839.984 305.061 826.874 303.988 814.814L303.524 809.736C301.206 784.612 298.867 763.663 296.692 753.956C289.892 723.601 294.242 683.635 304.921 644.104C315.658 604.357 333.12 563.847 353.703 532.032C360.191 522.006 367.265 512.416 374.452 503.742L375.416 502.585C385.42 490.644 396.666 479.236 408.341 467.685C420.475 455.679 433.047 443.541 445.715 430.078L461.581 413.216V415.374C476.882 402.535 496.14 389.031 513.201 377.337L513.207 377.333C523.172 370.514 532.289 364.395 539.672 359.012C564.35 341.017 585.188 333.517 606.442 328.044C627.811 322.541 647.891 319.382 674.014 309.746H674.016ZM969.661 387.648C885.099 332.741 780.322 290.13 680.366 326.973L680.365 326.972C653.108 337.026 630.62 340.777 611.021 345.824C591.616 350.822 573.361 357.383 551.531 373.092L550.489 373.847C542.814 379.443 533.313 385.821 523.58 392.48C499.362 409.08 473.114 427.763 459.086 442.67L443.221 459.53V458.999C435.682 466.565 428.294 473.771 421.254 480.736C409.614 492.253 398.897 503.147 389.495 514.369L388.59 515.456C381.857 523.582 375.21 532.593 369.118 542.007L369.117 542.006C349.691 572.031 332.949 610.751 322.646 648.892C312.284 687.247 308.758 723.827 314.608 749.942L314.856 751.084C317.247 762.477 319.596 784.059 321.816 808.146L322.273 813.164L322.274 813.176C323.395 825.769 324.254 838.277 325.535 850.646L325.797 853.119L325.799 853.129L325.8 853.14C326.766 862.238 327.986 870.984 329.636 879.125L329.972 880.745L329.973 880.754C331.768 889.265 333.077 899.447 334.574 908.061L335.073 910.835C337.548 924.175 340.948 936.499 346.46 946.59L347.038 947.626L347.041 947.632L347.045 947.639C348.685 950.528 350.458 953.291 352.382 955.923L353.216 957.042L353.227 957.058L353.238 957.072C362.666 969.612 375.251 979.796 388.599 991.59L390.257 993.058L391.901 994.526L391.912 994.535L391.922 994.545C399.287 1001.19 402.952 1010.73 405.518 1018.67C408.379 1027.54 409.946 1034.42 412.814 1040.37L413.268 1041.27C413.714 1042.13 414.149 1042.87 414.585 1043.52L415.24 1044.46C418.511 1049.06 421.707 1051.81 425.721 1055.66C430.095 1059.86 434.746 1064.79 438.671 1073.21L438.673 1073.21C440.734 1077.64 445.712 1082.09 453.277 1087.66C459.937 1092.55 469.106 1098.6 475 1105.37C494.877 1128.17 530.671 1147.36 567.85 1160.06L569.621 1160.66L569.784 1160.71L569.944 1160.77C583.072 1165.73 606.338 1171.13 618.5 1173.15L708.57 1188.16H708.572C723.027 1190.58 737.151 1190.96 751.773 1190.71C765.966 1190.47 781.815 1189.58 797.426 1189.61C808.704 1189.63 819.915 1188.96 831.038 1187.35H831.04C888.566 1179.06 940.57 1145.92 988.261 1115.38C1021.9 1093.84 1060.05 1069.15 1079.25 1032.41C1083.83 1023.65 1088.77 1017.83 1092.21 1013.19C1095.59 1008.63 1098.23 1004.41 1100.1 997.354C1101.19 993.216 1102.47 989.689 1103.89 986.477L1103.89 986.467L1103.89 986.457C1105.83 982.09 1108.03 978.354 1109.93 975.004C1111.88 971.582 1113.72 968.198 1115.51 963.85L1115.51 963.848C1118.55 956.433 1122.09 948.979 1126.04 941.654C1132.44 929.802 1139.82 918.424 1147.04 908.022C1151.03 902.275 1154.78 894.695 1158.47 885.881C1168.02 863.019 1175.5 835.28 1181.05 815.194C1193.14 771.41 1186.91 733.668 1170.32 688.867C1169.35 686.236 1168.26 683.876 1167.09 681.673C1164.12 676.107 1160.99 672.173 1157.08 666.331C1153.33 660.73 1149.59 654.287 1147.12 645.511L1147.12 645.506C1145.98 641.429 1145.9 636.133 1146 631.555C1146.11 626.682 1146.5 621.207 1146.82 616.313C1147.05 612.746 1147.24 609.516 1147.28 606.76C1147.33 603.84 1147.19 602.164 1147.03 601.435C1146.6 599.481 1145.93 597.384 1145.04 595.101L1145.04 595.094C1142.34 588.165 1138.11 580.845 1133.43 573.031C1128.93 565.516 1123.87 557.348 1120.41 549.684C1107.29 520.586 1090.86 494.226 1069.79 474.133C1038.53 444.318 1006.81 412.139 971.353 388.755L969.661 387.648Z" fill="#003F72"/>
<path d="M679.814 345.676C779.876 308.795 882.005 352.757 960.538 403.754L962.174 404.824C996.468 427.434 1027.03 458.298 1055.08 485.043L1056.08 486.01C1077.14 506.391 1093.64 531.944 1106.08 559.521C1108.78 565.495 1112.58 571.939 1116.79 579.365C1120.84 586.51 1125.2 594.445 1128.19 602.44L1128.56 603.446C1129.28 605.472 1129.95 607.586 1130.48 609.759L1130.73 610.851C1131.35 613.667 1131.49 616.908 1131.5 619.78C1131.52 622.784 1131.4 626.1 1131.26 629.284C1131.07 633.876 1130.88 638.318 1130.9 642.245C1130.91 646.419 1131.18 648.926 1131.5 650.024C1133.06 655.491 1135.35 659.71 1138.17 664.138C1140.83 668.316 1144.73 673.751 1147.88 679.835C1149.11 682.2 1150.26 684.707 1151.31 687.408L1151.75 688.577L1151.76 688.585L1151.76 688.592C1167.61 731.431 1175.14 770.426 1162.75 815.275C1157.58 833.97 1149.79 859.916 1140.02 882.058C1136.32 890.442 1132.21 898.609 1127.5 905.432L1127.5 905.433C1121.09 914.707 1114.79 924.542 1109.45 934.621L1109.44 934.624C1106.16 940.81 1103.26 947.092 1100.75 953.316L1100.75 953.317C1098.77 958.273 1096.72 962.171 1094.91 965.54C1093.07 968.976 1091.63 971.591 1090.34 974.633C1089.41 976.83 1088.56 979.254 1087.79 982.146C1085.34 991.347 1081.76 997.383 1078 1002.79C1074.26 1008.19 1071.12 1011.99 1067.76 1018.41L1067.76 1018.41C1047.6 1056.98 1008.19 1081.94 978.136 1101.19C935.033 1128.79 883.987 1161.65 826.742 1169.91C815.519 1171.53 804.317 1172.18 793.212 1172.16H793.206C765.749 1172.09 737.604 1174.68 708.602 1169.84L627.09 1156.25C616.569 1154.48 592.49 1149.22 579.926 1144.52C544.572 1133.12 507.854 1115.17 485.761 1091.28C481.858 1087.06 476.107 1083.31 468.724 1077.82C462.218 1072.99 454.109 1066.54 449.925 1057.92C447.579 1053.08 445.013 1050.15 441.744 1046.78C438.414 1043.35 433.896 1039.05 429.566 1032.39C428.46 1030.69 427.546 1028.95 426.763 1027.32L426.756 1027.3L426.749 1027.29C423.472 1020.39 421.085 1011.37 419.028 1005.25C416.664 998.221 414.377 993.514 411.376 990.678L411.37 990.672L411.364 990.667C410.479 989.828 409.594 989.024 408.561 988.075L406.466 986.168C395.863 976.584 383.328 966.15 373.717 954.015C371.077 950.698 368.678 947.252 366.485 943.717L366.482 943.711C358.667 931.094 354.152 916.425 351.332 901.981L351.331 901.974C350.468 897.535 349.766 893.124 349.11 888.97C348.446 884.759 347.834 880.848 347.125 877.125C345.45 868.371 344.354 859.126 343.549 849.844C342.994 843.635 342.551 837.347 342.119 831.164C341.686 824.957 341.265 818.863 340.749 812.887L340.335 808.341C338.235 785.838 335.657 766.83 333.427 757.271C327.273 730.878 330.899 694.243 340.351 657.61C349.872 620.708 365.68 582.362 385.226 552.155C391.109 543.06 397.661 534.218 404.412 526.08C413.878 514.66 424.619 503.647 435.692 492.587C446.857 481.437 458.311 470.284 469.688 458.191L476.625 450.817L476.899 451.092C491.889 437.115 512.974 421.836 531.597 408.929L531.603 408.925C540.758 402.589 549.054 397.045 556.048 392.017L556.053 392.013C578.613 375.815 598.047 368.584 617.774 363.163C637.701 357.688 656.134 354.41 679.812 345.677L679.814 345.676ZM949.843 420.226C872.316 369.883 777.386 330.644 686.607 364.103L686.608 364.104C661.947 373.2 641.009 377.147 622.979 382.102C604.748 387.111 587.637 393.515 567.508 407.967L567.507 407.966C560.344 413.115 551.543 419.009 542.783 425.07L542.784 425.071C520.71 440.371 497.185 457.668 484.013 471.669L477.075 479.042L476.999 478.966C467.65 488.612 458.326 497.74 449.571 506.483C438.543 517.498 428.365 527.958 419.531 538.616L419.528 538.619C413.239 546.201 407.152 554.419 401.716 562.823L401.715 562.824C383.51 590.958 368.459 627.281 359.368 662.517C350.208 698.02 347.468 730.992 352.554 752.809L352.809 753.933C355.282 765.089 357.852 784.653 359.896 806.584L360.313 811.164V811.175C360.847 817.351 361.281 823.625 361.712 829.796C362.145 835.998 362.576 842.104 363.111 848.096L363.113 848.121C363.839 856.492 364.785 864.509 366.139 871.953L366.415 873.435L366.417 873.442C367.197 877.537 367.861 881.789 368.511 885.908C369.17 890.084 369.822 894.17 370.608 898.219L370.854 899.454C373.435 912.187 377.282 923.848 383.175 933.363L383.866 934.461C385.262 936.645 386.735 938.753 388.296 940.778L389.084 941.784L389.092 941.795L389.1 941.805C398.065 953.131 409.518 962.296 421.84 973.604L421.843 973.607C422.765 974.454 423.834 975.426 424.864 976.402C431.673 982.836 435.187 991.685 437.645 998.996C440.409 1007.22 441.868 1013.34 444.488 1018.86C445.041 1020.01 445.543 1020.93 446.032 1021.69L446.034 1021.69C449.095 1026.4 452.046 1029.19 455.844 1033.11C459.703 1037.09 463.921 1041.77 467.596 1049.34C469.431 1053.13 473.702 1057.06 480.435 1062.06C486.288 1066.41 494.632 1071.94 500.18 1077.94L501.068 1078.89C519.637 1098.39 551.4 1114.52 584.534 1125.37L586.139 1125.89L586.374 1125.97L586.604 1126.05C597.276 1130.09 620.119 1135.17 630.325 1136.87L711.835 1150.46H711.839C738.734 1154.96 763.348 1152.45 793.248 1152.52C803.563 1152.54 813.802 1151.93 823.938 1150.47C876.253 1142.93 923.728 1112.71 967.545 1084.65C998.548 1064.8 1033.04 1042.44 1050.36 1009.31L1050.36 1009.31C1054.47 1001.45 1058.9 995.873 1061.87 991.588C1064.84 987.314 1067.14 983.368 1068.81 977.086L1068.81 977.074C1069.82 973.306 1070.97 970.029 1072.24 967.006L1072.25 966.996C1073.97 962.923 1075.92 959.396 1077.61 956.253C1079.33 953.04 1080.96 949.917 1082.53 946.002L1082.53 945.996C1085.29 939.142 1088.48 932.228 1092.1 925.416C1097.93 914.416 1104.69 903.892 1111.34 894.268C1115.03 888.93 1118.56 882.057 1122.04 874.142L1122.05 874.136C1131.21 853.359 1138.7 828.548 1143.82 810.044C1154.66 770.798 1148.49 736.357 1133.35 695.422C1132.46 693.034 1131.49 690.882 1130.46 688.885L1130.45 688.882C1127.82 683.807 1125.09 680.163 1121.6 674.68C1118.27 669.45 1114.9 663.427 1112.61 655.411L1112.61 655.403L1112.6 655.396C1111.49 651.464 1111.27 646.56 1111.26 642.327C1111.24 637.851 1111.46 632.891 1111.64 628.468V628.455C1111.77 625.25 1111.88 622.366 1111.87 619.888C1111.85 617.278 1111.7 615.753 1111.55 615.049C1111.17 613.312 1110.58 611.417 1109.79 609.319V609.317C1107.41 602.943 1103.77 596.224 1099.71 589.055C1095.8 582.166 1091.35 574.635 1088.18 567.599C1076.51 541.725 1061.31 518.399 1042.43 500.123L1041.52 499.257C1012.32 471.407 982.864 441.667 949.843 420.226Z" fill="#003F72"/>
<path d="M685.615 381.619C775.763 348.398 867.098 387.63 938.052 433.101L941.415 435.271C973.358 456.015 1001.75 484.511 1027.68 509.251C1047.37 528.015 1063.42 551.242 1075 576.921L1075.48 577.968C1077.92 583.223 1081.02 588.8 1084.43 595.221C1087.92 601.803 1091.62 609.092 1094.24 616.488L1094.56 617.414C1095.3 619.578 1095.97 621.843 1096.48 624.187L1096.58 624.644C1097.53 629.424 1097.43 635.965 1097.38 640.949C1097.33 645.045 1097.29 648.95 1097.42 652.427C1097.54 655.63 1097.79 657.766 1098.07 658.984L1098.18 659.451L1098.19 659.458C1099.59 664.263 1101.58 668.113 1104.04 672.221C1106.34 676.066 1109.74 681.165 1112.5 686.689L1112.5 686.693C1113.74 689.166 1114.9 691.806 1115.97 694.69C1130.33 733.509 1138.02 769.597 1126.74 810.471L1126.74 810.474C1121.84 828.189 1114.03 851.161 1104.59 871.234L1104.59 871.238C1101.09 878.692 1097.24 886.055 1092.9 892.374L1092.9 892.377C1087.1 900.829 1081.46 909.721 1076.72 918.861C1073.82 924.454 1071.26 930.166 1069.05 935.833L1069.05 935.838C1067.31 940.283 1065.53 943.875 1063.98 946.981C1062.39 950.151 1061.13 952.609 1060.01 955.388C1059.2 957.425 1058.44 959.65 1057.75 962.231C1055.53 970.538 1052.4 976.254 1049.11 981.389C1045.75 986.62 1043.06 990.12 1040.03 995.93L1040.03 995.933C1022.72 1029.04 989.93 1051.16 963.37 1068.22L958.148 1071.56C918.974 1096.65 872.229 1126.78 819.862 1134.33H819.858C809.54 1135.81 799.255 1136.41 789.049 1136.37C763.878 1136.3 738.21 1137.86 711.681 1133.43L638.731 1121.27L638.729 1121.27C630.466 1119.89 606.75 1114.96 596.251 1111.08C564.494 1101.37 531.285 1086.19 510.468 1065.25L509.752 1064.55C506.102 1061.09 501.307 1057.94 495.052 1053.23C489.214 1048.84 481.924 1042.9 477.884 1034.96L477.882 1034.96C475.706 1030.68 473.385 1027.88 470.438 1024.58C467.459 1021.24 463.546 1017.09 459.764 1010.99C458.758 1009.37 457.936 1007.74 457.258 1006.3L457.234 1006.25C454.298 999.951 451.954 991.684 450.056 986.292C447.844 980.011 445.749 975.811 443.115 973.188L443.106 973.18L443.098 973.172C442.348 972.422 441.557 971.666 440.662 970.812L440.653 970.804L440.645 970.795C431.138 961.679 418.449 951.32 408.921 940.004L407.983 938.88C405.822 936.249 403.834 933.559 401.977 930.849L401.969 930.838L401.962 930.827C394.177 919.405 389.178 906.304 386.202 892.847L386.2 892.838L386.198 892.828C384.446 884.841 383.351 876.319 382.238 869.649V869.647C380.887 861.537 380.098 853.026 379.557 844.512C378.792 832.846 378.451 822.091 377.524 810.975C375.673 789.459 372.637 770.731 370.182 760.629L369.933 759.569C364.818 737.15 367.752 704.359 375.83 671.177C384.119 637.129 398.246 600.93 416.774 572.308C422.056 564.148 428.097 556.047 434.393 548.455C451.318 528.041 474.132 507.114 493.676 486.336L496.771 483.044H496.907C510.924 469.045 531.499 453.514 549.982 440.533L549.991 440.527L550 440.521C558.619 434.493 565.548 429.88 572.46 425.012C592.874 410.621 610.876 403.664 629.058 398.303C647.553 392.849 664.325 389.47 685.615 381.619ZM930.026 452.807C859.523 407.023 774.447 371.168 692.846 401.239L692.845 401.238C670.826 409.357 651.423 413.508 634.972 418.359C618.207 423.303 602.489 429.426 584.505 442.104L584.502 442.106C578.154 446.578 569.523 452.385 561.982 457.657C542.092 471.627 521.282 487.546 508.934 500.665L505.838 503.954H505.786C485.591 525.135 466.235 542.811 450.489 561.802C444.645 568.849 439.105 576.289 434.327 583.67C417.356 609.887 404.018 643.788 396.146 676.123C388.317 708.286 386.299 737.239 390.305 754.858L390.5 755.688C393.198 766.789 396.251 785.766 398.175 807.109L398.357 809.183L398.359 809.21C399.174 818.981 399.612 829.551 400.174 839.127L400.424 843.164V843.175L400.425 843.186C400.944 851.35 401.675 859.079 402.863 866.208L403.334 869.106C404.392 875.782 405.214 881.922 406.619 888.331C409.163 899.834 413.285 910.313 419.24 919.051C421.033 921.665 422.894 924.147 424.881 926.494L424.9 926.518C433.53 936.772 443.71 944.764 455.117 955.702C455.973 956.519 456.928 957.431 457.867 958.369L458.44 958.954C464.281 965.053 467.496 972.866 469.778 979.346C472.441 986.907 473.788 992.262 476.171 997.389C476.686 998.478 477.119 999.299 477.525 999.951L477.531 999.962L477.538 999.972C480.175 1004.23 482.747 1006.96 486.044 1010.66C489.371 1014.39 493.114 1018.78 496.519 1025.48L496.677 1025.78C498.376 1028.89 501.947 1032.25 507.631 1036.53C512.664 1040.32 520.156 1045.34 525.294 1050.51C541.997 1067.31 570.106 1080.94 599.755 1090.28L602.629 1091.17L602.957 1091.27L603.277 1091.39C611.494 1094.49 633.894 1099.26 642.174 1100.65L715.12 1112.81L715.121 1112.81C739.432 1116.86 762.204 1115.38 789.113 1115.46C797.882 1115.49 806.565 1115.01 815.164 1113.87L816.884 1113.63C863.995 1106.84 906.929 1079.53 946.873 1053.95C975.231 1035.8 1006.06 1015.77 1021.5 986.245C1025.1 979.346 1029.01 974.001 1031.51 970.099C1034.07 966.1 1036.07 962.393 1037.55 956.834L1037.55 956.826C1038.46 953.427 1039.48 950.411 1040.61 947.609L1040.61 947.601L1040.61 947.593C1042.12 943.848 1043.81 940.55 1045.28 937.611C1046.79 934.603 1048.2 931.724 1049.57 928.22C1052.04 921.909 1054.9 915.522 1058.16 909.236L1058.16 909.235C1063.44 899.056 1069.59 889.388 1075.66 880.54C1079.07 875.58 1082.36 869.383 1085.67 862.339C1094.48 843.593 1101.92 821.787 1106.58 804.904C1116.16 770.199 1110.09 739.068 1096.36 701.947L1096.35 701.93C1095.57 699.823 1094.72 697.889 1093.8 696.048L1093.37 695.198C1091.2 691.013 1088.96 687.742 1086.09 682.954C1083.2 678.109 1080.22 672.534 1078.12 665.319C1077.02 661.567 1076.67 657.087 1076.53 653.201C1076.37 649.13 1076.43 644.687 1076.47 640.735V640.729C1076.53 634.533 1076.48 630.597 1076.06 628.671L1076.05 628.636C1075.71 627.068 1075.21 625.378 1074.54 623.51L1074.54 623.5L1074.54 623.489C1072.47 617.652 1069.4 611.523 1065.95 605.014C1062.85 599.155 1059.29 592.742 1056.49 586.717L1055.94 585.517C1045.38 562.095 1030.83 541.142 1013.26 524.386L1013.25 524.384C986.629 498.985 959.923 472.222 930.026 452.807Z" fill="#003F72"/>
<path d="M691.416 417.562C774.518 386.94 858.01 425.051 922.29 466.787L923.645 467.673C952.027 486.373 977.266 511.492 1000.3 533.46C1018.06 550.388 1033.38 570.928 1043.93 594.318L1044.84 596.292C1046.99 600.911 1049.43 605.644 1052.12 611.182C1054.87 616.855 1057.7 623.041 1059.89 629.378L1060.32 630.647L1060.32 630.654C1061.04 632.816 1061.71 635.117 1062.24 637.521L1062.42 638.379C1063.02 641.586 1063.25 645.42 1063.37 648.886L1063.49 652.473L1063.49 652.483V652.495C1063.7 659.95 1063.98 665.598 1064.79 668.61L1064.87 668.894L1064.88 668.899C1066.13 673.091 1067.84 676.605 1069.95 680.404C1071.79 683.721 1074.43 688.079 1076.7 692.682L1077.15 693.605L1077.15 693.612C1078.22 695.855 1079.24 698.236 1080.19 700.803L1081.38 704.054C1093.31 737.067 1100.39 768.849 1091.21 803.942L1090.74 805.671C1086.1 822.467 1078.2 842.554 1069.14 860.483L1069.13 860.487C1065.82 867.038 1062.23 873.539 1058.33 879.297L1058.32 879.306L1058.31 879.313C1053.12 886.94 1048.16 894.881 1044.03 903.06L1044.03 903.064C1041.51 908.061 1039.3 913.177 1037.36 918.31L1037.36 918.312C1035.88 922.22 1034.39 925.484 1033.09 928.315C1031.76 931.212 1030.69 933.534 1029.73 936.075C1029.01 937.994 1028.34 940.024 1027.73 942.298L1027.74 942.299C1025.77 949.657 1023.11 955.018 1020.28 959.872C1017.27 965.041 1015.11 968.074 1012.3 973.443L1012.3 973.446C995.542 1005.5 962.792 1026.16 938.16 1041.93L938.159 1041.93C902.901 1064.5 860.461 1091.88 812.976 1098.73C803.562 1100.09 794.178 1100.63 784.881 1100.59C761.922 1100.5 738.741 1101.02 714.768 1097.02L650.378 1086.29C647.016 1085.73 639.522 1084.28 632.03 1082.65C625.111 1081.14 617.133 1079.26 612.637 1077.65C584.512 1069.64 554.826 1057.26 535.301 1039.29C531.616 1035.9 527.388 1033.21 521.378 1028.61C516.173 1024.63 509.765 1019.24 505.893 1012.07C503.735 1008.07 501.598 1005.34 499.004 1002.13C496.383 998.891 493.146 995 489.933 989.471L489.932 989.469C489.089 988.018 488.364 986.556 487.733 985.177L487.73 985.169C485.167 979.546 482.853 972.009 481.123 967.358C479.069 961.837 477.148 958.079 474.819 955.614C474.157 954.917 473.506 954.257 472.702 953.433C468.323 949.002 463.69 944.83 458.76 940.304C453.937 935.875 448.882 931.152 444.233 926.036L444.224 926.026C441.868 923.428 439.669 920.766 437.594 918.046L437.593 918.043C429.857 907.899 424.307 896.339 421.137 883.759L421.133 883.741C419.245 876.2 418.283 868.526 417.387 862.088C416.381 854.867 415.884 846.845 415.618 839.137C415.223 828.675 415.132 818.877 414.339 809.049L414.189 807.319C412.594 789.506 409.478 773.799 406.983 764.006L406.984 764.005C402.273 745.513 404.437 715.532 411.376 684.778C418.411 653.597 430.827 619.518 448.363 592.448L448.364 592.447C453.046 585.222 458.576 577.851 464.412 570.811L464.415 570.808C479.227 552.951 498.998 534.166 515.676 516.612L517.704 514.458C530.747 500.598 550.269 485.043 568.367 472.154L568.385 472.143C575.637 466.999 582.897 462.133 588.88 458.002L588.888 457.997C607.122 445.431 623.664 438.756 640.285 433.46C657.391 428.01 672.424 424.564 691.414 417.562H691.416ZM910.211 485.39C846.691 444.146 771.483 411.696 699.086 438.373L699.087 438.374C679.807 445.482 661.855 449.867 647.019 454.594C631.697 459.475 617.339 465.326 601.474 476.26L601.473 476.259C595.118 480.646 588.342 485.179 581.217 490.233C563.927 502.547 546.204 516.747 534.625 528.851L533.869 529.655C515.273 549.429 496.428 566.955 481.488 584.965C476.085 591.483 471.095 598.152 466.978 604.507L466.979 604.508C451.255 628.778 439.655 660.219 433.013 689.66C426.379 719.061 425.137 744.467 428.322 757.899L428.478 758.53C431.323 769.701 434.786 787.331 436.442 807.207L436.443 807.222L436.444 807.235C437.184 816.39 437.375 825.921 437.655 834.624L437.783 838.3V838.318L437.784 838.337C438.039 845.738 438.501 852.902 439.354 859.029C440.317 865.944 441.115 872.225 442.645 878.338L442.879 879.247C445.36 888.607 449.528 897.116 455.228 904.591L455.878 905.435C457.401 907.391 458.984 909.285 460.647 911.12C464.559 915.425 468.959 919.557 473.761 923.966C478.455 928.276 483.618 932.924 488.479 937.843L488.506 937.87L488.532 937.897C488.884 938.258 489.278 938.66 489.686 939.078L490.924 940.362L490.933 940.372L490.942 940.382C496.483 946.247 499.653 953.554 501.911 959.625C504.492 966.563 505.713 971.146 507.907 975.96L508.224 976.635C508.534 977.281 508.828 977.841 509.11 978.327C511.337 982.157 513.498 984.781 516.25 988.183C519.029 991.618 522.237 995.654 525.409 1001.53C526.866 1004.23 529.893 1007.2 534.863 1011C538.765 1013.99 544.885 1018.17 549.429 1022.17L550.315 1022.96L550.32 1022.97C565.576 1037.01 590.279 1048 616.522 1055.69L619.067 1056.42L619.516 1056.55L619.953 1056.71C622.52 1057.68 629.15 1059.32 636.744 1060.97C644.035 1062.56 651.146 1063.93 654.023 1064.41L718.414 1075.14L718.418 1075.14C740.18 1078.77 761.156 1078.32 784.974 1078.41H784.98C793.363 1078.45 801.638 1077.96 809.805 1076.78H809.807C851.72 1070.73 890.119 1046.35 926.2 1023.25L926.201 1023.25C951.93 1006.78 979.099 989.077 992.643 963.17C995.657 957.401 999.128 952.125 1001.12 948.707C1003.29 944.974 1005 941.47 1006.31 936.578L1006.31 936.568C1007.12 933.551 1008.01 930.829 1008.97 928.274L1008.97 928.268L1008.97 928.261C1010.25 924.852 1011.67 921.8 1012.94 919.051C1014.23 916.237 1015.44 913.586 1016.62 910.464C1018.66 905.058 1021 899.585 1023.69 894.157L1024.23 893.072C1028.95 883.713 1034.48 874.894 1039.99 866.822C1043.13 862.184 1046.23 856.63 1049.35 850.469C1057.84 833.68 1065.16 814.968 1069.36 799.766L1069.74 798.355C1077.49 768.771 1071.54 741.346 1059.39 708.494L1059.39 708.491C1058.7 706.622 1057.94 704.866 1057.13 703.171C1055.15 699.012 1053.16 695.859 1050.55 691.157C1048.09 686.717 1045.53 681.625 1043.63 675.258C1041.71 668.858 1041.5 659.605 1041.32 653.144C1041.15 647.704 1041.01 644.249 1040.58 642.296L1040.58 642.278C1040.26 640.851 1039.82 639.32 1039.26 637.609L1038.92 636.604C1037.18 631.562 1034.81 626.324 1032.16 620.857C1029.46 615.304 1026.23 609.022 1023.71 603.438L1023.71 603.438C1014.46 582.928 1000.92 564.687 984.999 549.516L984.997 549.514C960.939 526.571 936.995 502.781 910.211 485.39Z" fill="#003F72"/>
<path d="M697.217 453.498C771.864 425.994 846.064 461.226 903.163 498.284L903.164 498.285C929.087 515.114 952.045 537.744 972.921 557.653C988.643 572.643 1003.32 590.532 1012.87 611.697C1017.07 621.002 1022.82 632.897 1026.43 644.832C1027.01 646.739 1027.57 648.773 1028.03 650.866C1028.92 654.918 1029.27 659.984 1029.58 663.811L1029.77 666.15C1030.2 671.075 1030.68 675.039 1031.4 677.703L1031.57 678.295L1031.57 678.303C1032.69 681.949 1034.15 685.179 1035.91 688.692C1037.44 691.752 1039.59 695.724 1041.45 699.77L1041.82 700.58L1041.82 700.583C1042.73 702.603 1043.59 704.695 1044.4 706.88L1044.41 706.889L1044.41 706.896C1055.69 737.437 1063.86 767.829 1054.73 800.854L1054.73 800.854C1050.32 816.797 1042.28 834.137 1033.59 849.836L1033.59 849.841C1030.48 855.451 1027.19 861.064 1023.71 866.226L1023.71 866.23C1019.12 873.02 1014.83 880.015 1011.32 887.221L1011.31 887.227C1009.18 891.594 1007.33 896.112 1005.66 900.717C1004.45 904.04 1003.25 906.949 1002.21 909.503C1001.27 911.787 1000.47 913.769 999.737 915.795L999.43 916.667C998.815 918.443 998.231 920.34 997.662 922.425L997.661 922.424C994.363 934.694 988.83 942.749 984.537 950.948C970.417 977.947 943.69 995.891 922.337 1009.6L918.143 1012.28C886.817 1032.34 848.663 1056.99 806.062 1063.12L806.062 1063.12C797.56 1064.35 789.082 1064.83 780.69 1064.78C759.837 1064.68 739.13 1064.14 717.821 1060.58L662.002 1051.28C659.721 1050.9 652.859 1049.62 646.031 1048.23C642.6 1047.53 639.089 1046.79 636.103 1046.09C633.697 1045.54 631.015 1044.87 629.034 1044.2C604.607 1037.9 578.486 1028.36 560.267 1013.43C558.631 1012.09 556.756 1010.7 554.551 1009.1C552.432 1007.55 549.989 1005.79 547.628 1003.94C543.019 1000.32 537.573 995.527 533.924 989.226C531.926 985.781 529.959 983.069 527.591 979.738C525.253 976.451 522.626 972.692 520.019 967.833L520.017 967.829C519.318 966.527 518.708 965.237 518.167 964.013C516.061 959.261 513.688 952.266 512.177 948.463C510.285 943.703 508.508 940.302 506.408 937.903L506.385 937.876L506.361 937.85C505.884 937.298 505.362 936.734 504.667 935.987L504.657 935.977L504.647 935.967C501.012 932.041 497.009 928.328 492.69 924.401C488.484 920.578 483.86 916.449 479.583 912.124C477.366 909.894 475.286 907.627 473.33 905.383L473.318 905.369C465.726 896.629 459.502 886.56 456.065 874.788L455.691 873.46C453.889 866.819 453.086 860.185 452.479 854.403C451.775 847.692 451.626 840.484 451.625 833.608L451.621 826.736C451.62 819.983 451.582 813.521 451.091 807.087C449.855 791.602 446.492 777.641 443.737 767.394L443.738 767.393C441.676 759.736 441.177 749.251 441.727 737.853C442.289 726.187 443.999 712.636 446.896 698.409C452.659 670.105 463.326 638.112 479.891 612.553C483.973 606.245 489.003 599.606 494.378 593.131L495.696 591.556C509.457 575.233 527.475 557.666 541.69 542.556L555.153 528.244L555.453 529.146C565.092 520.377 575.986 511.581 586.711 503.792L586.718 503.787L586.726 503.781C593.222 499.079 599.642 494.776 605.353 490.949L605.354 490.948C621.354 480.23 636.395 473.85 651.437 468.63C658.869 466.05 666.43 463.713 673.935 461.338C681.511 458.941 689.176 456.462 697.215 453.498H697.217ZM890.396 517.954C833.816 481.233 768.496 452.226 705.324 475.502L705.323 475.501C696.748 478.662 688.655 481.276 681.009 483.695C673.291 486.137 666.164 488.341 659.126 490.784C645.225 495.609 632.187 501.199 618.406 510.431C612.657 514.284 606.577 518.36 600.475 522.777C585.052 533.978 569.595 547.158 558.779 558.654L545.316 572.964L545.237 572.727C533.597 584.721 522.009 596.556 512.422 608.107C507.439 614.11 503.01 619.99 499.573 625.3L499.569 625.306C485.123 647.596 475.281 676.535 469.874 703.088C467.186 716.29 465.647 728.649 465.149 738.981C464.639 749.577 465.27 757.175 466.381 761.298L466.383 761.306C469.177 771.701 472.827 786.645 474.329 803.582L474.468 805.228L474.47 805.246L474.471 805.266C475.213 814.972 475.046 824.89 475.075 833.53V833.569C475.075 840.242 475.226 846.48 475.801 851.956C476.394 857.612 477.055 862.644 478.314 867.288L478.574 868.212L478.575 868.215C480.858 876.036 485.109 883.181 491.01 889.977L492.289 891.425C493.361 892.621 494.45 893.791 495.562 894.93L496.231 895.609L496.257 895.635C499.98 899.4 504.011 903.001 508.465 907.05C512.799 910.99 517.455 915.286 521.833 920.012C522.478 920.705 523.296 921.581 524.099 922.51C528.861 927.969 531.808 934.364 533.969 939.802C536.516 946.211 537.525 949.819 539.608 954.517L539.613 954.526C539.991 955.38 540.34 956.109 540.682 956.746C542.554 960.237 544.462 962.999 546.702 966.148C548.772 969.059 551.233 972.443 553.717 976.622L554.214 977.469L554.217 977.474C555.548 979.772 558.061 982.319 562.095 985.481C564.055 987.018 566.104 988.5 568.36 990.144C570.259 991.527 572.321 993.038 574.294 994.613L575.808 995.838C589.645 1006.89 610.645 1015.1 633.162 1021.04L635.381 1021.62L636.009 1021.78L636.615 1022.01C636.571 1021.99 636.661 1022.03 636.942 1022.12C637.206 1022.2 637.558 1022.3 638.007 1022.42C638.908 1022.66 640.053 1022.94 641.402 1023.25C644.097 1023.88 647.379 1024.57 650.711 1025.25C656.573 1026.45 662.32 1027.53 664.924 1027.99L665.839 1028.14L665.849 1028.14L721.679 1037.45C741.029 1040.68 760.161 1041.24 780.807 1041.33H780.81C788.238 1041.37 795.541 1040.95 802.718 1039.91C839.416 1034.63 873.283 1013.16 905.497 992.535C928.609 977.736 952.1 962.375 963.76 940.076L963.763 940.071C969.464 929.181 972.622 925.266 975.025 916.304L975.031 916.279L975.038 916.255C975.729 913.72 976.466 911.316 977.271 908.992L977.668 907.866C978.603 905.268 979.589 902.86 980.51 900.611C981.586 897.986 982.597 895.528 983.604 892.741L983.607 892.733L983.609 892.727C985.494 887.537 987.662 882.22 990.245 876.933C994.409 868.401 999.338 860.417 1004.27 853.108C1007.21 848.752 1010.12 843.806 1013.07 838.479C1021.33 823.56 1028.42 808.041 1032.13 794.606V794.604C1039.18 769.11 1033.39 744.742 1022.41 715.022C1021.78 713.334 1021.13 711.731 1020.44 710.196C1018.75 706.45 1017.09 703.477 1014.95 699.21C1012.93 695.192 1010.82 690.634 1009.15 685.184C1007.55 679.977 1006.85 673.384 1006.39 667.942L1006.2 665.688C1005.83 661.069 1005.58 657.977 1005.12 655.896L1005.12 655.874L1005.11 655.854C1004.83 654.551 1004.45 653.15 1003.99 651.641L1003.99 651.627C1000.94 641.563 996.094 631.538 991.493 621.343L991.492 621.342C983.581 603.807 971.097 588.316 956.739 574.626L956.738 574.624C935.275 554.154 914.073 533.325 890.396 517.954Z" fill="#003F72"/>
<path d="M703.016 489.436C769.251 465.039 834.18 497.435 884.041 529.797L885.112 530.497C907.576 545.276 927.452 564.615 945.541 581.858L946.812 583.075C959.743 595.518 973.057 610.206 981.394 628.204L981.8 629.092L981.801 629.096C985.951 638.299 989.737 648.546 992.55 659.152H992.552C992.994 660.799 993.406 662.474 993.778 664.152C994.545 667.598 995.106 671.689 995.591 674.839C996.376 679.938 997.2 684.369 998.252 687.681C1000.49 694.705 1003.08 699.325 1006.54 707.657L1006.55 707.668C1007.09 708.972 1007.62 710.297 1008.13 711.643L1008.64 712.995L1008.64 713.005L1008.65 713.015C1018.33 739.242 1026.81 766.901 1018.75 796.071C1014.54 811.292 1006.18 826.049 997.974 839.357C995.082 844.048 992.127 848.688 989.169 853.141L989.164 853.147L989.16 853.153C985.177 859.132 981.567 865.136 978.682 871.342C976.922 875.127 975.4 879.058 974.026 883.096C972.082 888.82 970.639 892.573 969.211 897.186L969.209 897.191C968.677 898.908 968.173 900.648 967.688 902.471L967.683 902.489L967.678 902.509C964.873 912.906 961.076 920.405 956.849 928.495L956.847 928.498C943.491 954.043 917.398 970.4 898.195 982.692C870.801 1000.23 836.937 1022.14 799.214 1027.58L799.205 1027.58C791.604 1028.67 784.034 1029.09 776.568 1029.04L776.564 1029.04C757.785 1028.93 739.35 1027.29 720.948 1024.23H720.946L673.666 1016.35L673.657 1016.34L673.647 1016.34C672.503 1016.15 666.313 1015.05 660.143 1013.9C657.05 1013.32 653.897 1012.72 651.345 1012.19C650.075 1011.94 648.89 1011.68 647.908 1011.46C647.448 1011.35 646.628 1011.16 645.77 1010.91C625.073 1006.35 602.465 999.667 585.552 987.787L585.55 987.786C579.395 983.461 568.423 976.524 562.118 966.619C558.114 960.335 554.035 954.285 550.102 946.13L550.08 946.085C549.566 945.007 549.096 943.947 548.66 942.935L548.655 942.924L548.651 942.913C547.657 940.589 546.726 938.207 545.875 936.034C544.998 933.796 544.189 931.74 543.331 929.75C541.603 925.742 539.925 922.602 537.97 920.143L537.966 920.139C537.548 919.613 537.087 919.059 536.561 918.438C530.458 911.294 523.495 905.915 515.22 898.451C513.199 896.633 511.237 894.79 509.345 892.93C502.009 885.725 494.952 877.086 491.141 866.043V866.041C488.833 859.352 488.027 852.611 487.648 846.63C487.253 840.378 487.465 833.954 487.726 827.935C488.066 819.785 488.443 812.419 487.918 805.152L487.825 803.993C486.791 792.049 483.563 781.115 480.592 770.962L480.591 770.957C478.877 765.093 478.447 756.251 478.751 746.824C479.069 736.938 480.256 724.988 482.508 712.183C486.978 686.768 495.855 656.817 511.474 632.723C514.974 627.311 519.512 621.395 524.4 615.515C535.137 602.589 549.058 588.238 560.588 576.133L565.692 570.707C576.707 558.996 590.535 546.218 605.021 535.446L605.036 535.435C610.729 531.215 616.445 527.369 621.871 523.871L623.135 523.062C649.689 506.234 676.605 499.17 703.013 489.437L703.016 489.436ZM870.577 550.54C820.878 518.283 765.488 492.779 711.563 512.642L711.562 512.641C682.01 523.532 659.203 529.2 635.287 544.646L635.278 544.651C630.127 547.972 624.886 551.505 619.763 555.303C607.747 564.24 596.054 574.848 586.353 584.88L583.724 587.674C570.726 601.483 555.154 617.193 543.421 631.319L543.418 631.323C538.85 636.818 534.991 641.898 532.232 646.163L532.225 646.175C519.094 666.431 511.026 692.799 506.863 716.467C504.799 728.203 503.747 738.985 503.469 747.62C503.176 756.715 503.792 762.184 504.328 764.021C507.208 773.862 511.182 787.069 512.465 801.886L512.58 803.325L512.582 803.345C513.234 812.346 512.753 821.328 512.434 828.984L512.433 828.993V829.003C512.173 835.003 512.025 840.259 512.329 845.067C512.65 850.145 513.265 854.344 514.518 857.975L514.714 858.524C516.666 863.828 520.274 868.812 525.557 874.172L526.677 875.29C527.897 876.489 529.156 877.686 530.451 878.877L531.758 880.065L531.771 880.077C538.193 885.87 547.297 893.143 554.686 901.591L555.395 902.412L555.406 902.426L555.418 902.438C556.01 903.136 556.668 903.922 557.329 904.755L558.053 905.688C561.599 910.382 564.09 915.437 566.04 919.96C567.086 922.386 568.038 924.812 568.899 927.01C569.786 929.271 570.571 931.276 571.386 933.181C571.744 934.013 572.069 934.741 572.39 935.413C574.745 940.292 577.074 944.092 579.926 948.563L582.978 953.334L582.979 953.338C585.994 958.073 591.664 961.857 599.769 967.552C612.148 976.246 630.085 982.042 649.7 986.447L651.604 986.87L652.479 987.062L652.916 987.226C653.024 987.253 653.202 987.298 653.464 987.358C654.155 987.518 655.111 987.722 656.294 987.964C658.647 988.444 661.644 989.02 664.688 989.589C670.79 990.73 676.816 991.798 677.751 991.955L725.012 999.832C742.169 1002.69 759.294 1004.21 776.715 1004.31C782.765 1004.35 788.704 1004.03 794.529 1003.26L795.693 1003.1C827.187 998.555 856.52 980.007 884.863 961.864C905.02 948.961 924.548 936.122 934.467 917.911L934.932 917.039C939.043 909.171 941.745 903.689 943.801 896.068C944.372 893.925 944.965 891.877 945.589 889.865C947.12 884.92 949.037 879.775 950.611 875.141L950.613 875.136C952.199 870.476 954.038 865.688 956.257 860.915C959.871 853.141 964.221 845.984 968.578 839.443C971.357 835.26 974.159 830.864 976.924 826.379L976.925 826.378C985.036 813.227 991.717 801.043 994.911 789.484C1000.67 768.661 995.126 747.785 985.457 721.602C984.89 720.074 984.307 718.59 983.709 717.149C981.316 711.403 977.31 703.427 974.686 695.177V695.175C972.998 689.867 971.943 683.76 971.148 678.601V678.599C970.553 674.728 970.172 671.919 969.64 669.525L969.637 669.513C969.349 668.216 969.024 666.893 968.667 665.564L968.662 665.545L968.656 665.525C966.23 656.367 962.922 647.388 959.259 639.265C952.917 625.215 942.143 612.909 929.688 600.918L928.478 599.759C909.614 581.776 891.153 563.895 870.577 550.54Z" fill="#003F72"/>
<path d="M708.798 525.38C765.749 504.407 820.641 532.807 862.896 560.02L864.898 561.314L864.899 561.315C884.758 574.207 902.23 590.911 918.129 606.067L922.393 610.139C932.564 619.917 944.033 631.719 950.693 646.479C954.278 654.402 956.299 662.808 957.986 670.476L958.692 673.713L958.693 673.716C959.462 677.249 960.205 680.651 961.041 683.973L961.405 685.392L961.406 685.394C963.619 693.838 966.654 702.354 969.891 711.123L971.289 714.897L971.29 714.899C979.743 737.695 990.146 764.428 982.73 791.26L982.731 791.261C979.184 804.101 971.895 815.19 965.042 824.952L962.144 829.057C955.706 838.156 949.973 846.324 946.032 855.337L946.029 855.343C943.048 862.152 941.109 869.399 938.97 877.499C936.679 886.175 934.14 895.997 929.533 905.113L929.08 905.994C917.418 928.292 894.646 942.492 878.169 953.038L878.166 953.04C854.702 968.05 825.133 987.222 792.296 991.955L792.297 991.956C768.738 995.355 744.777 991.246 723.984 987.782H723.982L663.232 977.652H663.23C650.538 975.534 636.662 972.901 624.092 968.169C611.446 963.408 599.101 956.154 590.414 944.134L590.409 944.127C585.189 936.894 581.859 928.564 579.039 921.672L579.035 921.664C575.627 913.317 572.772 906.536 568.314 900.71L567.897 900.174C563.544 894.673 557.894 890.199 550.988 884.838C542.975 878.622 531.546 870.153 526.254 857.479L526.021 856.907C521.228 844.892 522.848 831.591 523.794 822.056V822.053C524.492 815.033 525.065 809.031 524.67 803.151L524.669 803.144C524.054 793.917 521.085 785.15 517.51 774.854L517.511 774.853C516.578 772.166 516.233 768.855 516.048 766.392C515.827 763.454 515.723 759.876 515.762 755.844C515.839 747.764 516.49 737.427 518.087 726.039C521.244 703.522 528.282 675.55 543.003 652.856L543.456 652.167C553.178 637.52 576.206 613.165 589.695 598.838L589.698 598.835C599.447 588.487 610.596 576.902 623.3 567.163C639.142 555.015 656.971 546.019 674.84 538.5L673.963 538.209L708.798 525.38ZM850.743 583.123C808.383 555.63 763.561 533.903 719.483 549.172L717.815 549.787C688.992 560.407 661.477 570.652 639.121 587.795L639.119 587.797C628.265 596.117 618.395 606.29 608.625 616.66C593.988 632.206 572.637 654.943 564.818 667.002L564.816 667.004C553.038 685.16 546.748 708.872 543.835 729.649C542.397 739.909 541.827 749.122 541.761 756.092C541.727 759.584 541.822 762.406 541.975 764.442C542.087 765.934 542.204 766.62 542.218 766.747C545.596 776.47 549.737 788.327 550.61 801.407C551.175 809.807 550.329 817.966 549.667 824.625C548.564 835.738 548.208 842.117 550.061 846.993L550.247 847.46C552.26 852.281 556.84 856.407 565.205 862.955L566.929 864.298L566.933 864.301C573.454 869.364 581.644 875.65 588.307 884.067L588.947 884.889L588.953 884.897C595.849 893.906 599.872 903.918 603.102 911.826C606.18 919.35 608.41 924.639 611.487 928.904L611.929 929.501C616.573 935.613 623.65 940.222 633.252 943.837C643.239 947.597 654.912 949.904 667.508 952.006L728.256 962.136C749.843 965.732 769.723 968.944 788.584 966.223H788.586C814.867 962.435 839.657 946.809 864.152 931.14L867.48 929.004C883.727 918.53 898.167 908.408 905.666 894.647L906.041 893.944C909.345 887.626 911.316 880.384 913.831 870.86L913.832 870.859C915.892 863.059 918.293 853.865 922.212 844.915C927.391 833.071 934.735 822.781 940.917 814.042L942.423 811.91C949.817 801.411 955.208 793.249 957.67 784.338L957.671 784.335C962.433 767.108 956.139 748.824 946.912 723.941L945.521 720.184C942.242 711.309 938.802 701.705 936.255 691.984C935.104 687.597 934.149 683.203 933.287 679.242C931.317 670.197 929.769 663.303 927.007 657.198L927.003 657.19L927 657.183C921.85 645.761 912.05 636.189 900.192 624.891L900.19 624.889C883.97 609.425 868.224 594.471 850.743 583.123Z" fill="#003F72"/>
</svg>
