<svg width="1500" height="1500" viewBox="0 0 1500 1500" fill="none" xmlns="http://www.w3.org/2000/svg">
<circle cx="749.629" cy="750" r="585.5" fill="#DAD7CB" fill-opacity="0.5"/>
<circle cx="749.629" cy="750" r="225" fill="white"/>
<path d="M735.111 525.436C733.202 484.993 728.596 441.336 734.183 406.95C734.504 404.965 737.34 404.909 737.768 406.869C741.389 423.171 740.393 408.842 743.362 394.263C751.463 370.983 727.227 304.65 757.302 300.366C781.741 311.005 755.687 349.647 753.511 367.498C747.529 394.732 743.565 423.206 743.692 450.559C745.735 478.788 766.056 342.292 769.418 333.848C779.856 312.202 776.837 144.758 809.586 142.062C828.332 154.988 808.767 182.061 803.992 198.257C790.472 262.169 761.146 452.282 750.079 524.955C745.096 524.949 740.104 525.109 735.111 525.436Z" fill="#0088CE"/>
<path d="M719.245 527.044C712.727 427.56 712.645 326.899 706.395 227.71C704.632 217.011 697.248 200.914 706.595 192.806C711.695 188.383 716.144 196.816 716.859 200.596C720.82 221.524 717.032 246.159 716.188 267.388C715.252 290.797 715.667 313.632 717.848 336.941C720.16 361.644 723.309 313.395 724.612 307.988C728.322 254.362 759.591 196.408 736.758 145.388C733.021 135.536 729.834 126.179 732.37 115.354C739.084 86.4116 769.992 100.926 769.295 125.384C758.491 186.751 741.33 248.139 734.355 310.438C722.682 381.718 722.862 454.092 729.336 525.889C725.97 526.197 722.606 526.582 719.245 527.044Z" fill="#0088CE"/>
<path d="M690.581 532.924C678.9 490.232 666.824 447.51 666.424 441.287C656.439 380.185 635.161 323.434 591.061 276.288C587.929 265.137 511.698 225.98 538.202 225.048C548.144 225.052 571.781 250.162 576.614 244.826C568.689 230.435 560.775 210.831 550.181 197.401C538.36 183.539 520.284 174.068 516.468 154.979C512.048 138.967 528.873 119.345 545.058 129.481C568.433 143.737 558.881 174.323 564.274 196.621C580.814 251.191 624.454 303.63 652.5 352.642C654.133 309.662 608.231 202.714 580.388 166.387C566.493 155.784 563.604 118.676 589.083 132.136C603.353 145.041 597.611 167.136 604.025 183.773C613.967 213.318 630.315 240.758 639.034 270.884C639.824 272.994 640.485 274.262 640.876 274.292C638.359 241.449 626.283 206.833 620.346 174.005C614.066 134.342 621.891 143.704 589.631 120.127C586.804 118.066 584.428 115.414 582.772 112.321C562.35 74.2397 618.588 61.2872 623.492 109.038C623.598 110.116 623.767 111.198 624.013 112.254C654.311 240.891 661.38 340.466 685.227 470.319C687.013 478.213 689.548 490.011 693.054 496.668C693.892 497.799 694.111 496.018 693.85 492.392C684.238 407.954 688.361 325.779 666.12 242.617C662.327 213.147 625.539 133.438 655.164 117.04C674.788 113.317 670.059 139.607 666.097 151.447C655.292 181.914 667.687 212.605 675.2 242.263C678.861 254.052 687.113 308.412 686.371 264.706C688.962 225.697 679.637 184.529 686.5 145.828C688.793 130.775 714.862 119.881 713.185 142.379C709.696 162.048 691.566 179.055 694.641 200.76C701.185 309.407 691.442 421.027 705.852 529.305C700.742 530.328 695.648 531.533 690.581 532.924Z" fill="#0088CE"/>
<path d="M671.13 539.232C669.633 535.365 668.468 532.426 668.079 531.438C640.755 468.056 633.392 398.08 604.879 335.391C594.853 302.232 547.648 296.564 539.496 264.299C541.025 247.763 560.559 252.329 567.208 263.714C622.701 325.495 633.225 410.862 659.969 484.541C663.596 478.736 638.779 396.552 652.617 419.337C667.014 456.655 672.518 496.675 680.762 535.863C677.537 536.909 674.326 538.031 671.13 539.232Z" fill="#0088CE"/>
<path d="M654.312 546.341C650.056 537.916 646.212 529.992 643.178 523.209C599.052 429.381 527.923 323.681 507.471 221.11C498.947 178.35 471.983 208.662 467.577 178.439C468.664 149.662 502.772 158.203 507.047 181.459C530.821 265.085 548.334 336.91 595.6 405.884C595.101 396.889 585.994 370.181 583.981 351.99C583.092 343.922 594.371 341.081 597.33 348.644C604.866 367.92 603.343 392.28 608.444 411.704C618.274 457.009 642.767 499.683 664.979 541.646C661.401 543.112 657.844 544.677 654.312 546.341Z" fill="#0088CE"/>
<path d="M613.953 570.754C590.077 538.007 562.15 504.055 547.868 472.236C547.043 470.402 549.38 468.793 550.816 470.194C562.813 481.81 554.093 470.396 548.546 456.591C542.493 432.696 485.744 390.662 508.492 370.529C534.751 365.957 534.274 412.56 542.285 428.66C552.283 454.689 564.649 480.641 579.814 503.406C597.06 525.849 538.879 400.705 537.039 391.81C533.836 367.992 439.137 229.869 464.992 209.589C487.758 210.061 486.329 243.432 491.258 259.582C515.172 320.42 595.44 495.469 626.162 562.131C621.972 564.888 617.902 567.765 613.953 570.754Z" fill="#0088CE"/>
<path d="M425.996 337.899C418.634 329.938 403.607 320.564 406.947 308.65C408.77 302.15 417.127 306.741 419.804 309.503C434.633 324.794 445.032 347.445 456.014 365.632C468.119 385.689 481.036 404.525 495.69 422.782C511.219 442.133 487.286 400.119 485.397 394.888C458.974 348.077 453.173 282.482 406.024 252.459C397.481 246.292 389.669 240.234 385.826 229.802C375.498 201.943 409.292 197.044 422.175 217.845C446.938 275.024 466.406 335.721 494.88 391.57C524.394 457.544 564.42 517.901 609.385 574.306C606.728 576.427 604.129 578.599 601.59 580.822C541.35 501.328 485.845 417.298 425.996 337.899Z" fill="#0088CE"/>
<path d="M227.401 381.739C214.896 370.805 218.139 345.161 237.231 344.712C264.594 343.746 273.456 374.538 290.234 390.185C334.084 426.636 399.383 446.389 449.779 471.866C427.481 435.085 330.284 371.072 287.042 356.073C269.605 354.871 246.766 325.482 275.446 322.692C294.463 325.61 301.834 347.217 316.348 357.575C340.912 376.766 369.665 390.674 393.529 411.024C395.35 412.351 396.601 413.047 396.943 412.856C376.761 386.823 347.622 364.572 324.595 340.435C297.517 310.78 309.203 314.288 269.292 312.365C265.797 312.2 262.354 311.295 259.269 309.624C221.256 289.075 261.074 247.303 291.455 284.468C292.137 285.309 292.874 286.118 293.661 286.864C389.771 377.576 450.489 456.812 541.882 552.089C547.719 557.695 556.331 566.149 562.923 569.776C564.245 570.26 563.447 568.652 561.233 565.768C506.725 500.569 464.928 429.698 400.58 372.516C381.19 350.002 306.597 303.71 322.302 273.712C336.634 259.8 347.16 284.35 350.371 296.416C358.122 327.799 385.366 346.598 407.965 367.221C417.511 375.048 454.326 415.885 429.646 379.806C410.335 345.814 379.886 316.58 364.31 280.493C357.937 266.664 373.703 243.219 384.688 262.924C392.603 281.265 386.83 305.443 401.346 321.87C466.645 409.002 519.974 507.591 591.653 590.07C587.92 593.76 584.335 597.565 580.9 601.476C547.619 572.242 513.967 543.182 510.204 538.203C468.231 492.69 419.225 457.027 356.455 441.945C347.702 434.36 262.505 443.637 284.118 428.268C292.42 422.799 325.977 430.749 327.074 423.633C312.536 415.981 295.136 403.974 278.898 398.594C261.399 393.528 241.095 395.573 227.401 381.739Z" fill="#0088CE"/>
<path d="M306.806 460.324C298.979 445.678 317.801 438.736 329.619 444.58C409.957 465.607 465.739 531.08 528.626 577.866C528.458 571.023 462.498 516.075 486.592 527.479C519.183 550.727 545.827 581.138 574.309 609.335C572.183 611.992 570.123 614.692 568.128 617.432C564.712 615.001 562.088 613.167 561.213 612.552C503.51 574.682 458.842 520.316 400.527 483.678C373.903 461.516 331.374 482.772 306.806 460.324Z" fill="#0088CE"/>
<path d="M199.5 428.237C184.565 403.615 217.741 391.969 234.113 409.03C299.997 465.756 354.158 516.076 431.587 547.636C426.219 540.401 403.913 523.12 392.218 509.041C387.035 502.795 394.887 494.214 401.521 498.9C418.424 510.843 430.562 532.017 445.514 545.425C478.682 577.856 522.655 600.005 564.323 622.824C562.126 626.037 560.017 629.302 557.996 632.614C549.778 627.909 542.18 623.395 535.895 619.391C447.404 565.353 329.835 516.269 256.295 441.898C225.639 410.893 219.816 451.043 199.5 428.237Z" fill="#0088CE"/>
<path d="M378.294 561.399C362.838 542.997 208.905 477.035 219.885 446.064C239.366 434.274 256.026 463.226 268.835 474.227C321.627 512.825 483.253 617.773 544.833 657.591C542.791 662.135 540.901 666.741 539.167 671.402C501.44 656.51 459.624 642.777 430.498 623.53C428.819 622.423 429.932 619.813 431.895 620.227C448.246 623.615 434.771 618.643 422.695 609.953C404.79 593.012 334.354 587.891 342.789 558.708C362.521 540.787 387.067 580.405 402.453 589.715C424.833 606.346 449.172 621.645 474.168 632.754C500.749 642.476 384.611 567.928 378.294 561.399Z" fill="#0088CE"/>
<path d="M163.843 505.52C140.205 487.519 166.124 465.289 188.141 475.961C239.669 510.997 288.607 551.84 342.557 583.766C402.841 623.711 469.003 653.273 537.221 676.847C536.121 680.052 535.091 683.281 534.136 686.531C440.653 651.63 348.743 610.352 255.642 575.315C245.162 572.532 227.451 572.659 223.894 560.808C221.954 554.342 231.471 553.746 235.21 554.645C255.922 559.621 276.831 573.186 295.844 582.668C316.806 593.127 337.8 602.119 359.951 609.695C383.428 617.725 340.72 595.054 336.324 591.646C288.945 566.256 248.927 513.958 193.032 513.843C182.514 513.208 172.674 512.274 163.843 505.52Z" fill="#0088CE"/>
<path d="M111.376 718.665C94.9611 716.124 83.9717 692.73 99.8565 682.129C122.45 666.663 146.421 687.926 168.969 692.159C225.52 699.47 291.248 681.193 347.452 675.731C308.927 656.604 192.563 654.575 148.01 665.057C132.639 673.377 97.6149 660.783 120.345 643.071C137.97 635.355 155.762 649.657 173.566 650.635C204.588 653.693 236.32 650.048 267.37 654.459C269.62 654.605 271.048 654.522 271.235 654.178C240.251 642.995 203.728 639.803 171.356 631.745C132.609 621.194 144.357 617.901 109.618 637.644C106.578 639.376 103.185 640.455 99.6849 640.695C56.5774 643.69 67.8445 587.091 113.401 602.215C114.428 602.56 115.484 602.849 116.548 603.058C246.288 628.219 339.993 662.637 468.194 694.179C476.126 695.79 487.926 698.319 495.435 697.854C496.81 697.554 495.274 696.623 491.861 695.373C410.917 669.487 337.672 632.005 252.709 618.159C224.279 609.524 136.492 610.361 133.697 576.616C138.355 557.192 160.388 572.293 169.56 580.766C192.909 603.122 225.983 604.413 256.111 609.733C268.364 611.233 321.323 626.015 281.162 608.756C246.653 590.384 205.283 581.994 172.808 559.854C160.022 551.585 160.786 523.343 180.614 534.105C197.118 545.358 205.187 568.87 226.241 574.973C328.088 613.624 425.953 668.373 530.704 699.654C529.535 704.74 528.543 709.867 527.728 715.026C483.922 708.143 439.854 701.604 434.003 699.411C374.186 683.442 313.702 679.556 252.611 700.424C241.157 698.703 174.165 752.152 184.191 727.6C188.275 718.536 220.875 707.284 217.992 700.687C201.615 702.008 180.491 701.181 163.896 705.33C146.404 710.421 130.349 723.018 111.376 718.665Z" fill="#0088CE"/>
<path d="M220.517 742.527C206.065 734.347 218.244 718.408 231.355 717.017C310.467 691.766 392.634 717.2 470.798 723.048C466.992 717.359 381.864 706.263 408.32 702.995C448.336 705.185 487.161 716.629 526.357 725.198C525.981 728.564 525.682 731.94 525.457 735.325C521.215 735.097 517.969 734.95 516.891 734.898C447.88 733.806 381.046 711.802 312.178 712.078C277.826 707.613 253.285 748.334 220.517 742.527Z" fill="#0088CE"/>
<path d="M112.705 772.876C86.9099 760.076 108.695 732.477 131.657 738.122C217.674 750.761 290.359 764.266 372.653 749.469C364.246 746.232 336.155 743.577 318.74 737.947C311.017 735.447 313.055 723.995 321.166 724.4C341.837 725.439 363.426 736.825 383.233 740.145C428.641 749.786 477.677 744.938 525.118 741.903C524.975 745.783 524.931 749.671 524.989 753.563C515.501 753.99 506.64 754.246 499.169 754.229C395.498 755.964 269.919 777.451 167.989 754.008C125.497 744.233 142.074 781.262 112.705 772.876Z" fill="#0088CE"/>
<path d="M335.455 794.05C312.471 787.027 147.439 815.49 139.79 783.533C149.714 763.039 179.449 778.256 196.182 780.511C261.485 784.152 454.222 784.204 527.539 784.084C528.289 788.986 529.204 793.878 530.288 798.753C490.533 806.797 447.978 818.041 413.067 817.751C411.057 817.735 410.57 814.941 412.442 814.22C428.002 808.16 413.992 811.326 399.132 810.61C374.89 806.145 313.017 840.192 304.207 811.12C311.003 785.346 353.16 805.217 371.134 804.651C398.961 806.42 427.707 806.005 454.722 801.717C482.312 795.403 344.307 796.088 335.455 794.05Z" fill="#0088CE"/>
<path d="M125.144 863.914C95.5162 861.682 105.158 828.925 129.437 825.892C191.733 827.233 255.018 834.853 317.653 832.266C389.967 832.958 461.558 821.74 531.615 804.38C532.433 807.658 533.328 810.927 534.3 814.183C436.883 835.794 337.314 851.2 240.144 872.49C229.838 875.86 215.051 885.608 205.615 877.603C200.468 873.235 208.126 867.556 211.753 866.274C231.835 859.174 256.758 859.17 277.869 856.774C301.147 854.137 323.654 850.252 346.359 844.549C370.423 838.506 322.256 842.735 316.714 842.269C263.148 846.762 201.11 824.676 154.16 855.007C144.991 860.199 136.228 864.773 125.144 863.914Z" fill="#0088CE"/>
<path d="M144.909 1012.23C110.379 1038.21 89.0197 984.598 135.468 972.485C136.517 972.217 137.56 971.884 138.567 971.48C261.096 921.961 358.436 899.823 483.148 856.495C490.678 853.529 501.953 849.227 507.999 844.749C508.99 843.749 507.196 843.803 503.652 844.612C421.66 866.961 339.815 875.391 261.006 910.027C232.456 918.26 159.272 966.749 138.558 939.964C131.891 921.135 158.595 921.809 170.901 923.923C202.657 929.966 231.104 913.044 259.273 901.106C270.368 895.694 322.839 879.267 279.755 886.65C240.807 890.025 201.536 905.507 162.242 904.613C147.015 904.637 132.282 880.53 154.773 878.764C174.743 879.22 194.311 894.55 215.295 888.209C321.771 865.189 433.673 857.841 538.573 827.057C540.356 831.931 542.318 836.769 544.461 841.564C503.959 859.641 463.418 878.15 457.315 879.496C398.445 898.662 345.592 928.328 305.706 979.088C295.161 983.88 268.06 1065.18 263.105 1039.13C261.597 1029.3 282.818 1002.12 276.808 998.155C263.79 1008.18 245.619 1018.98 233.957 1031.5C222.056 1045.29 215.446 1064.6 197.161 1071.27C182.008 1078.08 160.053 1064.43 167.609 1046.89C178.142 1021.62 209.825 1026.41 231.043 1017.69C282.461 993.036 327.648 941.924 371.822 906.747C329.094 911.673 230.376 973.315 198.709 1006.36C190.344 1021.71 154.107 1030.21 163.533 1002.98C174.117 986.911 196.828 989.224 212.295 980.353C239.983 966.031 264.616 945.699 293.064 932.497C295.03 931.395 296.183 930.548 296.153 930.157C264.075 937.643 231.7 954.847 200.158 965.709C161.912 977.951 169.974 968.793 151.58 1004.27C149.973 1007.37 147.714 1010.12 144.909 1012.23Z" fill="#0088CE"/>
<path d="M227.785 1116.02C199.179 1119.33 202.43 1084.32 224.765 1076.55C303.8 1040.33 372.123 1012.09 433.101 954.883C424.286 956.745 399.276 969.81 381.603 974.568C373.765 976.674 369.24 965.958 376.265 961.883C394.17 951.501 418.478 949.3 436.9 941.302C480.256 924.665 518.761 893.888 556.92 865.508C558.926 868.864 561.007 872.149 563.158 875.362C555.417 880.898 548.107 885.946 541.82 890.006C455.799 947.896 362.154 1034.28 263.889 1070.1C222.923 1085.03 256.987 1107.07 227.785 1116.02Z" fill="#0088CE"/>
<path d="M301.702 1031.88C285.127 1032.88 286.667 1012.88 296.908 1004.58C349.525 940.33 432.297 916.938 501.048 879.294C494.759 876.593 417.308 913.626 437.721 896.483C472.492 876.53 511.305 864.994 548.861 850.84C550.375 853.852 551.962 856.844 553.624 859.814C549.921 861.943 547.1 863.597 546.164 864.143C487.679 900.793 419.637 918.718 362.017 956.439C330.77 971.393 332.351 1018.91 301.702 1031.88Z" fill="#0088CE"/>
</svg>
