<svg width="1500" height="1501" viewBox="0 0 1500 1501" fill="none" xmlns="http://www.w3.org/2000/svg">
<circle cx="749.629" cy="750.629" r="585.5" fill="#DAD7CB" fill-opacity="0.5"/>
<circle cx="749.629" cy="750.629" r="225" fill="white"/>
<path d="M685.615 381.619C775.763 348.398 867.098 387.63 938.052 433.101L941.415 435.271C973.358 456.015 1001.75 484.511 1027.68 509.251C1047.37 528.015 1063.42 551.242 1075 576.921L1075.48 577.968C1077.92 583.223 1081.02 588.8 1084.43 595.221C1087.92 601.803 1091.62 609.092 1094.24 616.488L1094.56 617.414C1095.3 619.578 1095.97 621.843 1096.48 624.187L1096.58 624.644C1097.53 629.424 1097.43 635.965 1097.38 640.949C1097.33 645.045 1097.29 648.95 1097.42 652.427C1097.54 655.63 1097.79 657.766 1098.07 658.984L1098.18 659.451L1098.19 659.458C1099.59 664.263 1101.58 668.113 1104.04 672.221C1106.34 676.066 1109.74 681.165 1112.5 686.689L1112.5 686.693C1113.74 689.166 1114.9 691.806 1115.97 694.69C1130.33 733.509 1138.02 769.597 1126.74 810.471L1126.74 810.474C1121.84 828.189 1114.03 851.161 1104.59 871.234L1104.59 871.238C1101.09 878.692 1097.24 886.055 1092.9 892.374L1092.9 892.377C1087.1 900.829 1081.46 909.721 1076.72 918.861C1073.82 924.454 1071.26 930.166 1069.05 935.833L1069.05 935.838C1067.31 940.283 1065.53 943.875 1063.98 946.981C1062.39 950.151 1061.13 952.609 1060.01 955.388C1059.2 957.425 1058.44 959.65 1057.75 962.231C1055.53 970.538 1052.4 976.254 1049.11 981.389C1045.75 986.62 1043.06 990.12 1040.03 995.93L1040.03 995.933C1022.72 1029.04 989.93 1051.16 963.37 1068.22L958.148 1071.56C918.974 1096.65 872.229 1126.78 819.862 1134.33H819.858C809.54 1135.81 799.255 1136.41 789.049 1136.37C763.878 1136.3 738.21 1137.86 711.681 1133.43L638.731 1121.27L638.729 1121.27C630.466 1119.89 606.75 1114.96 596.251 1111.08C564.494 1101.37 531.285 1086.19 510.468 1065.25L509.752 1064.55C506.102 1061.09 501.307 1057.94 495.052 1053.23C489.214 1048.84 481.924 1042.9 477.884 1034.96L477.882 1034.96C475.706 1030.68 473.385 1027.88 470.438 1024.58C467.459 1021.24 463.546 1017.09 459.764 1010.99C458.758 1009.37 457.936 1007.74 457.258 1006.3L457.234 1006.25C454.298 999.951 451.954 991.684 450.056 986.292C447.844 980.011 445.749 975.811 443.115 973.188L443.106 973.18L443.098 973.172C442.348 972.422 441.557 971.666 440.662 970.812L440.653 970.804L440.645 970.795C431.138 961.679 418.449 951.32 408.921 940.004L407.983 938.88C405.822 936.249 403.834 933.559 401.977 930.849L401.969 930.838L401.962 930.827C394.177 919.405 389.178 906.304 386.202 892.847L386.2 892.838L386.198 892.828C384.446 884.841 383.351 876.319 382.238 869.649V869.647C380.887 861.537 380.098 853.026 379.557 844.512C378.792 832.846 378.451 822.091 377.524 810.975C375.673 789.459 372.637 770.731 370.182 760.629L369.933 759.569C364.818 737.15 367.752 704.359 375.83 671.177C384.119 637.129 398.246 600.93 416.774 572.308C422.056 564.148 428.097 556.047 434.393 548.455C451.318 528.041 474.132 507.114 493.676 486.336L496.771 483.044H496.907C510.924 469.045 531.499 453.514 549.982 440.533L549.991 440.527L550 440.521C558.619 434.493 565.548 429.88 572.46 425.012C592.874 410.621 610.876 403.664 629.058 398.303C647.553 392.849 664.325 389.47 685.615 381.619ZM930.026 452.807C859.523 407.023 774.447 371.168 692.846 401.239L692.845 401.238C670.826 409.357 651.423 413.508 634.972 418.359C618.207 423.303 602.489 429.426 584.505 442.104L584.502 442.106C578.154 446.578 569.523 452.385 561.982 457.657C542.092 471.627 521.282 487.546 508.934 500.665L505.838 503.954H505.786C485.591 525.135 466.235 542.811 450.489 561.802C444.645 568.849 439.105 576.289 434.327 583.67C417.356 609.887 404.018 643.788 396.146 676.123C388.317 708.286 386.299 737.239 390.305 754.858L390.5 755.688C393.198 766.789 396.251 785.766 398.175 807.109L398.357 809.183L398.359 809.21C399.174 818.981 399.612 829.551 400.174 839.127L400.424 843.164V843.175L400.425 843.186C400.944 851.35 401.675 859.079 402.863 866.208L403.334 869.106C404.392 875.782 405.214 881.922 406.619 888.331C409.163 899.834 413.285 910.313 419.24 919.051C421.033 921.665 422.894 924.147 424.881 926.494L424.9 926.518C433.53 936.772 443.71 944.764 455.117 955.702C455.973 956.519 456.928 957.431 457.867 958.369L458.44 958.954C464.281 965.053 467.496 972.866 469.778 979.346C472.441 986.907 473.788 992.262 476.171 997.389C476.686 998.478 477.119 999.299 477.525 999.951L477.531 999.962L477.538 999.972C480.175 1004.23 482.747 1006.96 486.044 1010.66C489.371 1014.39 493.114 1018.78 496.519 1025.48L496.677 1025.78C498.376 1028.89 501.947 1032.25 507.631 1036.53C512.664 1040.32 520.156 1045.34 525.294 1050.51C541.997 1067.31 570.106 1080.94 599.755 1090.28L602.629 1091.17L602.957 1091.27L603.277 1091.39C611.494 1094.49 633.894 1099.26 642.174 1100.65L715.12 1112.81L715.121 1112.81C739.432 1116.86 762.204 1115.38 789.113 1115.46C797.882 1115.49 806.565 1115.01 815.164 1113.87L816.884 1113.63C863.995 1106.84 906.929 1079.53 946.873 1053.95C975.231 1035.8 1006.06 1015.77 1021.5 986.245C1025.1 979.346 1029.01 974.001 1031.51 970.099C1034.07 966.1 1036.07 962.393 1037.55 956.834L1037.55 956.826C1038.46 953.427 1039.48 950.411 1040.61 947.609L1040.61 947.601L1040.61 947.593C1042.12 943.848 1043.81 940.55 1045.28 937.611C1046.79 934.603 1048.2 931.724 1049.57 928.22C1052.04 921.909 1054.9 915.522 1058.16 909.236L1058.16 909.235C1063.44 899.056 1069.59 889.388 1075.66 880.54C1079.07 875.58 1082.36 869.383 1085.67 862.339C1094.48 843.593 1101.92 821.787 1106.58 804.904C1116.16 770.199 1110.09 739.068 1096.36 701.947L1096.35 701.93C1095.57 699.823 1094.72 697.889 1093.8 696.048L1093.37 695.198C1091.2 691.013 1088.96 687.742 1086.09 682.954C1083.2 678.109 1080.22 672.534 1078.12 665.319C1077.02 661.567 1076.67 657.087 1076.53 653.201C1076.37 649.13 1076.43 644.687 1076.47 640.735V640.729C1076.53 634.533 1076.48 630.597 1076.06 628.671L1076.05 628.636C1075.71 627.068 1075.21 625.378 1074.54 623.51L1074.54 623.5L1074.54 623.489C1072.47 617.652 1069.4 611.523 1065.95 605.014C1062.85 599.155 1059.29 592.742 1056.49 586.717L1055.94 585.517C1045.38 562.095 1030.83 541.142 1013.26 524.386L1013.25 524.384C986.629 498.985 959.923 472.222 930.026 452.807Z" fill="#003F72"/>
<path d="M691.416 417.562C774.518 386.94 858.01 425.051 922.29 466.787L923.645 467.673C952.027 486.373 977.266 511.492 1000.3 533.46C1018.06 550.388 1033.38 570.928 1043.93 594.318L1044.84 596.292C1046.99 600.911 1049.43 605.644 1052.12 611.182C1054.87 616.855 1057.7 623.041 1059.89 629.378L1060.32 630.647L1060.32 630.654C1061.04 632.816 1061.71 635.117 1062.24 637.521L1062.42 638.379C1063.02 641.586 1063.25 645.42 1063.37 648.886L1063.49 652.473L1063.49 652.483V652.495C1063.7 659.95 1063.98 665.598 1064.79 668.61L1064.87 668.894L1064.88 668.899C1066.13 673.091 1067.84 676.605 1069.95 680.404C1071.79 683.721 1074.43 688.079 1076.7 692.682L1077.15 693.605L1077.15 693.612C1078.22 695.855 1079.24 698.236 1080.19 700.803L1081.38 704.054C1093.31 737.067 1100.39 768.849 1091.21 803.942L1090.74 805.671C1086.1 822.467 1078.2 842.554 1069.14 860.483L1069.13 860.487C1065.82 867.038 1062.23 873.539 1058.33 879.297L1058.32 879.306L1058.31 879.313C1053.12 886.94 1048.16 894.881 1044.03 903.06L1044.03 903.064C1041.51 908.061 1039.3 913.177 1037.36 918.31L1037.36 918.312C1035.88 922.22 1034.39 925.484 1033.09 928.315C1031.76 931.212 1030.69 933.534 1029.73 936.075C1029.01 937.994 1028.34 940.024 1027.73 942.298L1027.74 942.299C1025.77 949.657 1023.11 955.018 1020.28 959.872C1017.27 965.041 1015.11 968.074 1012.3 973.443L1012.3 973.446C995.542 1005.5 962.792 1026.16 938.16 1041.93L938.159 1041.93C902.901 1064.5 860.461 1091.88 812.976 1098.73C803.562 1100.09 794.178 1100.63 784.881 1100.59C761.922 1100.5 738.741 1101.02 714.768 1097.02L650.378 1086.29C647.016 1085.73 639.522 1084.28 632.03 1082.65C625.111 1081.14 617.133 1079.26 612.637 1077.65C584.512 1069.64 554.826 1057.26 535.301 1039.29C531.616 1035.9 527.388 1033.21 521.378 1028.61C516.173 1024.63 509.765 1019.24 505.893 1012.07C503.735 1008.07 501.598 1005.34 499.004 1002.13C496.383 998.891 493.146 995 489.933 989.471L489.932 989.469C489.089 988.018 488.364 986.556 487.733 985.177L487.73 985.169C485.167 979.546 482.853 972.009 481.123 967.358C479.069 961.837 477.148 958.079 474.819 955.614C474.157 954.917 473.506 954.257 472.702 953.433C468.323 949.002 463.69 944.83 458.76 940.304C453.937 935.875 448.882 931.152 444.233 926.036L444.224 926.026C441.868 923.428 439.669 920.766 437.594 918.046L437.593 918.043C429.857 907.899 424.307 896.339 421.137 883.759L421.133 883.741C419.245 876.2 418.283 868.526 417.387 862.088C416.381 854.867 415.884 846.845 415.618 839.137C415.223 828.675 415.132 818.877 414.339 809.049L414.189 807.319C412.594 789.506 409.478 773.799 406.983 764.006L406.984 764.005C402.273 745.513 404.437 715.532 411.376 684.778C418.411 653.597 430.827 619.518 448.363 592.448L448.364 592.447C453.046 585.222 458.576 577.851 464.412 570.811L464.415 570.808C479.227 552.951 498.998 534.166 515.676 516.612L517.704 514.458C530.747 500.598 550.269 485.043 568.367 472.154L568.385 472.143C575.637 466.999 582.897 462.133 588.88 458.002L588.888 457.997C607.122 445.431 623.664 438.756 640.285 433.46C657.391 428.01 672.424 424.564 691.414 417.562H691.416ZM910.211 485.39C846.691 444.146 771.483 411.696 699.086 438.373L699.087 438.374C679.807 445.482 661.855 449.867 647.019 454.594C631.697 459.475 617.339 465.326 601.474 476.26L601.473 476.259C595.118 480.646 588.342 485.179 581.217 490.233C563.927 502.547 546.204 516.747 534.625 528.851L533.869 529.655C515.273 549.429 496.428 566.955 481.488 584.965C476.085 591.483 471.095 598.152 466.978 604.507L466.979 604.508C451.255 628.778 439.655 660.219 433.013 689.66C426.379 719.061 425.137 744.467 428.322 757.899L428.478 758.53C431.323 769.701 434.786 787.331 436.442 807.207L436.443 807.222L436.444 807.235C437.184 816.39 437.375 825.921 437.655 834.624L437.783 838.3V838.318L437.784 838.337C438.039 845.738 438.501 852.902 439.354 859.029C440.317 865.944 441.115 872.225 442.645 878.338L442.879 879.247C445.36 888.607 449.528 897.116 455.228 904.591L455.878 905.435C457.401 907.391 458.984 909.285 460.647 911.12C464.559 915.425 468.959 919.557 473.761 923.966C478.455 928.276 483.618 932.924 488.479 937.843L488.506 937.87L488.532 937.897C488.884 938.258 489.278 938.66 489.686 939.078L490.924 940.362L490.933 940.372L490.942 940.382C496.483 946.247 499.653 953.554 501.911 959.625C504.492 966.563 505.713 971.146 507.907 975.96L508.224 976.635C508.534 977.281 508.828 977.841 509.11 978.327C511.337 982.157 513.498 984.781 516.25 988.183C519.029 991.618 522.237 995.654 525.409 1001.53C526.866 1004.23 529.893 1007.2 534.863 1011C538.765 1013.99 544.885 1018.17 549.429 1022.17L550.315 1022.96L550.32 1022.97C565.576 1037.01 590.279 1048 616.522 1055.69L619.067 1056.42L619.516 1056.55L619.953 1056.71C622.52 1057.68 629.15 1059.32 636.744 1060.97C644.035 1062.56 651.146 1063.93 654.023 1064.41L718.414 1075.14L718.418 1075.14C740.18 1078.77 761.156 1078.32 784.974 1078.41H784.98C793.363 1078.45 801.638 1077.96 809.805 1076.78H809.807C851.72 1070.73 890.119 1046.35 926.2 1023.25L926.201 1023.25C951.93 1006.78 979.099 989.077 992.643 963.17C995.657 957.401 999.128 952.125 1001.12 948.707C1003.29 944.974 1005 941.47 1006.31 936.578L1006.31 936.568C1007.12 933.551 1008.01 930.829 1008.97 928.274L1008.97 928.268L1008.97 928.261C1010.25 924.852 1011.67 921.8 1012.94 919.051C1014.23 916.237 1015.44 913.586 1016.62 910.464C1018.66 905.058 1021 899.585 1023.69 894.157L1024.23 893.072C1028.95 883.713 1034.48 874.894 1039.99 866.822C1043.13 862.184 1046.23 856.63 1049.35 850.469C1057.84 833.68 1065.16 814.968 1069.36 799.766L1069.74 798.355C1077.49 768.771 1071.54 741.346 1059.39 708.494L1059.39 708.491C1058.7 706.622 1057.94 704.866 1057.13 703.171C1055.15 699.012 1053.16 695.859 1050.55 691.157C1048.09 686.717 1045.53 681.625 1043.63 675.258C1041.71 668.858 1041.5 659.605 1041.32 653.144C1041.15 647.704 1041.01 644.249 1040.58 642.296L1040.58 642.278C1040.26 640.851 1039.82 639.32 1039.26 637.609L1038.92 636.604C1037.18 631.562 1034.81 626.324 1032.16 620.857C1029.46 615.304 1026.23 609.022 1023.71 603.438L1023.71 603.438C1014.46 582.928 1000.92 564.687 984.999 549.516L984.997 549.514C960.939 526.571 936.995 502.781 910.211 485.39Z" fill="#003F72"/>
<path d="M697.217 453.498C771.864 425.994 846.064 461.226 903.163 498.284L903.164 498.285C929.087 515.114 952.045 537.744 972.921 557.653C988.643 572.643 1003.32 590.532 1012.87 611.697C1017.07 621.002 1022.82 632.897 1026.43 644.832C1027.01 646.739 1027.57 648.773 1028.03 650.866C1028.92 654.918 1029.27 659.984 1029.58 663.811L1029.77 666.15C1030.2 671.075 1030.68 675.039 1031.4 677.703L1031.57 678.295L1031.57 678.303C1032.69 681.949 1034.15 685.179 1035.91 688.692C1037.44 691.752 1039.59 695.724 1041.45 699.77L1041.82 700.58L1041.82 700.583C1042.73 702.603 1043.59 704.695 1044.4 706.88L1044.41 706.889L1044.41 706.896C1055.69 737.437 1063.86 767.829 1054.73 800.854L1054.73 800.854C1050.32 816.797 1042.28 834.137 1033.59 849.836L1033.59 849.841C1030.48 855.451 1027.19 861.064 1023.71 866.226L1023.71 866.23C1019.12 873.02 1014.83 880.015 1011.32 887.221L1011.31 887.227C1009.18 891.594 1007.33 896.112 1005.66 900.717C1004.45 904.04 1003.25 906.949 1002.21 909.503C1001.27 911.787 1000.47 913.769 999.737 915.795L999.43 916.667C998.815 918.443 998.231 920.34 997.662 922.425L997.661 922.424C994.363 934.694 988.83 942.749 984.537 950.948C970.417 977.947 943.69 995.891 922.337 1009.6L918.143 1012.28C886.817 1032.34 848.663 1056.99 806.062 1063.12L806.062 1063.12C797.56 1064.35 789.082 1064.83 780.69 1064.78C759.837 1064.68 739.13 1064.14 717.821 1060.58L662.002 1051.28C659.721 1050.9 652.859 1049.62 646.031 1048.23C642.6 1047.53 639.089 1046.79 636.103 1046.09C633.697 1045.54 631.015 1044.87 629.034 1044.2C604.607 1037.9 578.486 1028.36 560.267 1013.43C558.631 1012.09 556.756 1010.7 554.551 1009.1C552.432 1007.55 549.989 1005.79 547.628 1003.94C543.019 1000.32 537.573 995.527 533.924 989.226C531.926 985.781 529.959 983.069 527.591 979.738C525.253 976.451 522.626 972.692 520.019 967.833L520.017 967.829C519.318 966.527 518.708 965.237 518.167 964.013C516.061 959.261 513.688 952.266 512.177 948.463C510.285 943.703 508.508 940.302 506.408 937.903L506.385 937.876L506.361 937.85C505.884 937.298 505.362 936.734 504.667 935.987L504.657 935.977L504.647 935.967C501.012 932.041 497.009 928.328 492.69 924.401C488.484 920.578 483.86 916.449 479.583 912.124C477.366 909.894 475.286 907.627 473.33 905.383L473.318 905.369C465.726 896.629 459.502 886.56 456.065 874.788L455.691 873.46C453.889 866.819 453.086 860.185 452.479 854.403C451.775 847.692 451.626 840.484 451.625 833.608L451.621 826.736C451.62 819.983 451.582 813.521 451.091 807.087C449.855 791.602 446.492 777.641 443.737 767.394L443.738 767.393C441.676 759.736 441.177 749.251 441.727 737.853C442.289 726.187 443.999 712.636 446.896 698.409C452.659 670.105 463.326 638.112 479.891 612.553C483.973 606.245 489.003 599.606 494.378 593.131L495.696 591.556C509.457 575.233 527.475 557.666 541.69 542.556L555.153 528.244L555.453 529.146C565.092 520.377 575.986 511.581 586.711 503.792L586.718 503.787L586.726 503.781C593.222 499.079 599.642 494.776 605.353 490.949L605.354 490.948C621.354 480.23 636.395 473.85 651.437 468.63C658.869 466.05 666.43 463.713 673.935 461.338C681.511 458.941 689.176 456.462 697.215 453.498H697.217ZM890.396 517.954C833.816 481.233 768.496 452.226 705.324 475.502L705.323 475.501C696.748 478.662 688.655 481.276 681.009 483.695C673.291 486.137 666.164 488.341 659.126 490.784C645.225 495.609 632.187 501.199 618.406 510.431C612.657 514.284 606.577 518.36 600.475 522.777C585.052 533.978 569.595 547.158 558.779 558.654L545.316 572.964L545.237 572.727C533.597 584.721 522.009 596.556 512.422 608.107C507.439 614.11 503.01 619.99 499.573 625.3L499.569 625.306C485.123 647.596 475.281 676.535 469.874 703.088C467.186 716.29 465.647 728.649 465.149 738.981C464.639 749.577 465.27 757.175 466.381 761.298L466.383 761.306C469.177 771.701 472.827 786.645 474.329 803.582L474.468 805.228L474.47 805.246L474.471 805.266C475.213 814.972 475.046 824.89 475.075 833.53V833.569C475.075 840.242 475.226 846.48 475.801 851.956C476.394 857.612 477.055 862.644 478.314 867.288L478.574 868.212L478.575 868.215C480.858 876.036 485.109 883.181 491.01 889.977L492.289 891.425C493.361 892.621 494.45 893.791 495.562 894.93L496.231 895.609L496.257 895.635C499.98 899.4 504.011 903.001 508.465 907.05C512.799 910.99 517.455 915.286 521.833 920.012C522.478 920.705 523.296 921.581 524.099 922.51C528.861 927.969 531.808 934.364 533.969 939.802C536.516 946.211 537.525 949.819 539.608 954.517L539.613 954.526C539.991 955.38 540.34 956.109 540.682 956.746C542.554 960.237 544.462 962.999 546.702 966.148C548.772 969.059 551.233 972.443 553.717 976.622L554.214 977.469L554.217 977.474C555.548 979.772 558.061 982.319 562.095 985.481C564.055 987.018 566.104 988.5 568.36 990.144C570.259 991.527 572.321 993.038 574.294 994.613L575.808 995.838C589.645 1006.89 610.645 1015.1 633.162 1021.04L635.381 1021.62L636.009 1021.78L636.615 1022.01C636.571 1021.99 636.661 1022.03 636.942 1022.12C637.206 1022.2 637.558 1022.3 638.007 1022.42C638.908 1022.66 640.053 1022.94 641.402 1023.25C644.097 1023.88 647.379 1024.57 650.711 1025.25C656.573 1026.45 662.32 1027.53 664.924 1027.99L665.839 1028.14L665.849 1028.14L721.679 1037.45C741.029 1040.68 760.161 1041.24 780.807 1041.33H780.81C788.238 1041.37 795.541 1040.95 802.718 1039.91C839.416 1034.63 873.283 1013.16 905.497 992.535C928.609 977.736 952.1 962.375 963.76 940.076L963.763 940.071C969.464 929.181 972.622 925.266 975.025 916.304L975.031 916.279L975.038 916.255C975.729 913.72 976.466 911.316 977.271 908.992L977.668 907.866C978.603 905.268 979.589 902.86 980.51 900.611C981.586 897.986 982.597 895.528 983.604 892.741L983.607 892.733L983.609 892.727C985.494 887.537 987.662 882.22 990.245 876.933C994.409 868.401 999.338 860.417 1004.27 853.108C1007.21 848.752 1010.12 843.806 1013.07 838.479C1021.33 823.56 1028.42 808.041 1032.13 794.606V794.604C1039.18 769.11 1033.39 744.742 1022.41 715.022C1021.78 713.334 1021.13 711.731 1020.44 710.196C1018.75 706.45 1017.09 703.477 1014.95 699.21C1012.93 695.192 1010.82 690.634 1009.15 685.184C1007.55 679.977 1006.85 673.384 1006.39 667.942L1006.2 665.688C1005.83 661.069 1005.58 657.977 1005.12 655.896L1005.12 655.874L1005.11 655.854C1004.83 654.551 1004.45 653.15 1003.99 651.641L1003.99 651.627C1000.94 641.563 996.094 631.538 991.493 621.343L991.492 621.342C983.581 603.807 971.097 588.316 956.739 574.626L956.738 574.624C935.275 554.154 914.073 533.325 890.396 517.954Z" fill="#003F72"/>
<path d="M703.016 489.436C769.251 465.039 834.18 497.435 884.041 529.797L885.112 530.497C907.576 545.276 927.452 564.615 945.541 581.858L946.812 583.075C959.743 595.518 973.057 610.206 981.394 628.204L981.8 629.092L981.801 629.096C985.951 638.299 989.737 648.546 992.55 659.152H992.552C992.994 660.799 993.406 662.474 993.778 664.152C994.545 667.598 995.106 671.689 995.591 674.839C996.376 679.938 997.2 684.369 998.252 687.681C1000.49 694.705 1003.08 699.325 1006.54 707.657L1006.55 707.668C1007.09 708.972 1007.62 710.297 1008.13 711.643L1008.64 712.995L1008.64 713.005L1008.65 713.015C1018.33 739.242 1026.81 766.901 1018.75 796.071C1014.54 811.292 1006.18 826.049 997.974 839.357C995.082 844.048 992.127 848.688 989.169 853.141L989.164 853.147L989.16 853.153C985.177 859.132 981.567 865.136 978.682 871.342C976.922 875.127 975.4 879.058 974.026 883.096C972.082 888.82 970.639 892.573 969.211 897.186L969.209 897.191C968.677 898.908 968.173 900.648 967.688 902.471L967.683 902.489L967.678 902.509C964.873 912.906 961.076 920.405 956.849 928.495L956.847 928.498C943.491 954.043 917.398 970.4 898.195 982.692C870.801 1000.23 836.937 1022.14 799.214 1027.58L799.205 1027.58C791.604 1028.67 784.034 1029.09 776.568 1029.04L776.564 1029.04C757.785 1028.93 739.35 1027.29 720.948 1024.23H720.946L673.666 1016.35L673.657 1016.34L673.647 1016.34C672.503 1016.15 666.313 1015.05 660.143 1013.9C657.05 1013.32 653.897 1012.72 651.345 1012.19C650.075 1011.94 648.89 1011.68 647.908 1011.46C647.448 1011.35 646.628 1011.16 645.77 1010.91C625.073 1006.35 602.465 999.667 585.552 987.787L585.55 987.786C579.395 983.461 568.423 976.524 562.118 966.619C558.114 960.335 554.035 954.285 550.102 946.13L550.08 946.085C549.566 945.007 549.096 943.947 548.66 942.935L548.655 942.924L548.651 942.913C547.657 940.589 546.726 938.207 545.875 936.034C544.998 933.796 544.189 931.74 543.331 929.75C541.603 925.742 539.925 922.602 537.97 920.143L537.966 920.139C537.548 919.613 537.087 919.059 536.561 918.438C530.458 911.294 523.495 905.915 515.22 898.451C513.199 896.633 511.237 894.79 509.345 892.93C502.009 885.725 494.952 877.086 491.141 866.043V866.041C488.833 859.352 488.027 852.611 487.648 846.63C487.253 840.378 487.465 833.954 487.726 827.935C488.066 819.785 488.443 812.419 487.918 805.152L487.825 803.993C486.791 792.049 483.563 781.115 480.592 770.962L480.591 770.957C478.877 765.093 478.447 756.251 478.751 746.824C479.069 736.938 480.256 724.988 482.508 712.183C486.978 686.768 495.855 656.817 511.474 632.723C514.974 627.311 519.512 621.395 524.4 615.515C535.137 602.589 549.058 588.238 560.588 576.133L565.692 570.707C576.707 558.996 590.535 546.218 605.021 535.446L605.036 535.435C610.729 531.215 616.445 527.369 621.871 523.871L623.135 523.062C649.689 506.234 676.605 499.17 703.013 489.437L703.016 489.436ZM870.577 550.54C820.878 518.283 765.488 492.779 711.563 512.642L711.562 512.641C682.01 523.532 659.203 529.2 635.287 544.646L635.278 544.651C630.127 547.972 624.886 551.505 619.763 555.303C607.747 564.24 596.054 574.848 586.353 584.88L583.724 587.674C570.726 601.483 555.154 617.193 543.421 631.319L543.418 631.323C538.85 636.818 534.991 641.898 532.232 646.163L532.225 646.175C519.094 666.431 511.026 692.799 506.863 716.467C504.799 728.203 503.747 738.985 503.469 747.62C503.176 756.715 503.792 762.184 504.328 764.021C507.208 773.862 511.182 787.069 512.465 801.886L512.58 803.325L512.582 803.345C513.234 812.346 512.753 821.328 512.434 828.984L512.433 828.993V829.003C512.173 835.003 512.025 840.259 512.329 845.067C512.65 850.145 513.265 854.344 514.518 857.975L514.714 858.524C516.666 863.828 520.274 868.812 525.557 874.172L526.677 875.29C527.897 876.489 529.156 877.686 530.451 878.877L531.758 880.065L531.771 880.077C538.193 885.87 547.297 893.143 554.686 901.591L555.395 902.412L555.406 902.426L555.418 902.438C556.01 903.136 556.668 903.922 557.329 904.755L558.053 905.688C561.599 910.382 564.09 915.437 566.04 919.96C567.086 922.386 568.038 924.812 568.899 927.01C569.786 929.271 570.571 931.276 571.386 933.181C571.744 934.013 572.069 934.741 572.39 935.413C574.745 940.292 577.074 944.092 579.926 948.563L582.978 953.334L582.979 953.338C585.994 958.073 591.664 961.857 599.769 967.552C612.148 976.246 630.085 982.042 649.7 986.447L651.604 986.87L652.479 987.062L652.916 987.226C653.024 987.253 653.202 987.298 653.464 987.358C654.155 987.518 655.111 987.722 656.294 987.964C658.647 988.444 661.644 989.02 664.688 989.589C670.79 990.73 676.816 991.798 677.751 991.955L725.012 999.832C742.169 1002.69 759.294 1004.21 776.715 1004.31C782.765 1004.35 788.704 1004.03 794.529 1003.26L795.693 1003.1C827.187 998.555 856.52 980.007 884.863 961.864C905.02 948.961 924.548 936.122 934.467 917.911L934.932 917.039C939.043 909.171 941.745 903.689 943.801 896.068C944.372 893.925 944.965 891.877 945.589 889.865C947.12 884.92 949.037 879.775 950.611 875.141L950.613 875.136C952.199 870.476 954.038 865.688 956.257 860.915C959.871 853.141 964.221 845.984 968.578 839.443C971.357 835.26 974.159 830.864 976.924 826.379L976.925 826.378C985.036 813.227 991.717 801.043 994.911 789.484C1000.67 768.661 995.126 747.785 985.457 721.602C984.89 720.074 984.307 718.59 983.709 717.149C981.316 711.403 977.31 703.427 974.686 695.177V695.175C972.998 689.867 971.943 683.76 971.148 678.601V678.599C970.553 674.728 970.172 671.919 969.64 669.525L969.637 669.513C969.349 668.216 969.024 666.893 968.667 665.564L968.662 665.545L968.656 665.525C966.23 656.367 962.922 647.388 959.259 639.265C952.917 625.215 942.143 612.909 929.688 600.918L928.478 599.759C909.614 581.776 891.153 563.895 870.577 550.54Z" fill="#003F72"/>
<path d="M708.798 525.38C765.749 504.407 820.641 532.807 862.896 560.02L864.898 561.314L864.899 561.315C884.758 574.207 902.23 590.911 918.129 606.067L922.393 610.139C932.564 619.917 944.033 631.719 950.693 646.479C954.278 654.402 956.299 662.808 957.986 670.476L958.692 673.713L958.693 673.716C959.462 677.249 960.205 680.651 961.041 683.973L961.405 685.392L961.406 685.394C963.619 693.838 966.654 702.354 969.891 711.123L971.289 714.897L971.29 714.899C979.743 737.695 990.146 764.428 982.73 791.26L982.731 791.261C979.184 804.101 971.895 815.19 965.042 824.952L962.144 829.057C955.706 838.156 949.973 846.324 946.032 855.337L946.029 855.343C943.048 862.152 941.109 869.399 938.97 877.499C936.679 886.175 934.14 895.997 929.533 905.113L929.08 905.994C917.418 928.292 894.646 942.492 878.169 953.038L878.166 953.04C854.702 968.05 825.133 987.222 792.296 991.955L792.297 991.956C768.738 995.355 744.777 991.246 723.984 987.782H723.982L663.232 977.652H663.23C650.538 975.534 636.662 972.901 624.092 968.169C611.446 963.408 599.101 956.154 590.414 944.134L590.409 944.127C585.189 936.894 581.859 928.564 579.039 921.672L579.035 921.664C575.627 913.317 572.772 906.536 568.314 900.71L567.897 900.174C563.544 894.673 557.894 890.199 550.988 884.838C542.975 878.622 531.546 870.153 526.254 857.479L526.021 856.907C521.228 844.892 522.848 831.591 523.794 822.056V822.053C524.492 815.033 525.065 809.031 524.67 803.151L524.669 803.144C524.054 793.917 521.085 785.15 517.51 774.854L517.511 774.853C516.578 772.166 516.233 768.855 516.048 766.392C515.827 763.454 515.723 759.876 515.762 755.844C515.839 747.764 516.49 737.427 518.087 726.039C521.244 703.522 528.282 675.55 543.003 652.856L543.456 652.167C553.178 637.52 576.206 613.165 589.695 598.838L589.698 598.835C599.447 588.487 610.596 576.902 623.3 567.163C639.142 555.015 656.971 546.019 674.84 538.5L673.963 538.209L708.798 525.38ZM850.743 583.123C808.383 555.63 763.561 533.903 719.483 549.172L717.815 549.787C688.992 560.407 661.477 570.652 639.121 587.795L639.119 587.797C628.265 596.117 618.395 606.29 608.625 616.66C593.988 632.206 572.637 654.943 564.818 667.002L564.816 667.004C553.038 685.16 546.748 708.872 543.835 729.649C542.397 739.909 541.827 749.122 541.761 756.092C541.727 759.584 541.822 762.406 541.975 764.442C542.087 765.934 542.204 766.62 542.218 766.747C545.596 776.47 549.737 788.327 550.61 801.407C551.175 809.807 550.329 817.966 549.667 824.625C548.564 835.738 548.208 842.117 550.061 846.993L550.247 847.46C552.26 852.281 556.84 856.407 565.205 862.955L566.929 864.298L566.933 864.301C573.454 869.364 581.644 875.65 588.307 884.067L588.947 884.889L588.953 884.897C595.849 893.906 599.872 903.918 603.102 911.826C606.18 919.35 608.41 924.639 611.487 928.904L611.929 929.501C616.573 935.613 623.65 940.222 633.252 943.837C643.239 947.597 654.912 949.904 667.508 952.006L728.256 962.136C749.843 965.732 769.723 968.944 788.584 966.223H788.586C814.867 962.435 839.657 946.809 864.152 931.14L867.48 929.004C883.727 918.53 898.167 908.408 905.666 894.647L906.041 893.944C909.345 887.626 911.316 880.384 913.831 870.86L913.832 870.859C915.892 863.059 918.293 853.865 922.212 844.915C927.391 833.071 934.735 822.781 940.917 814.042L942.423 811.91C949.817 801.411 955.208 793.249 957.67 784.338L957.671 784.335C962.433 767.108 956.139 748.824 946.912 723.941L945.521 720.184C942.242 711.309 938.802 701.705 936.255 691.984C935.104 687.597 934.149 683.203 933.287 679.242C931.317 670.197 929.769 663.303 927.007 657.198L927.003 657.19L927 657.183C921.85 645.761 912.05 636.189 900.192 624.891L900.19 624.889C883.97 609.425 868.224 594.471 850.743 583.123Z" fill="#003F72"/>
</svg>
