<svg width="1500" height="1500" viewBox="0 0 1500 1500" fill="none" xmlns="http://www.w3.org/2000/svg">
<circle cx="749.629" cy="750" r="585.5" fill="#DAD7CB" fill-opacity="0.5"/>
<circle cx="749.629" cy="750" r="225" fill="white"/>
<path d="M757.618 509.756C761.229 472.101 764.973 434.265 745.32 402.647C740.26 393.409 735.832 384.525 736.898 373.395C739.639 343.729 772.375 354.02 774.924 378.392C773.969 402.077 772.163 425.861 770.313 449.778L769.908 449.647C768.17 472.153 766.419 494.705 765.424 517.251C762.601 517.053 759.772 516.906 756.938 516.811C757.161 514.462 757.39 512.11 757.618 509.756Z" fill="#0088CE"/>
<path d="M710.386 519.998C708.89 506.1 706.103 492.118 703.345 478.041C698.839 455.347 694.286 432.562 695.295 409.863C695.562 394.525 720.008 380.226 721.331 402.86C720.954 410.935 718.245 418.852 715.491 426.903C711.427 438.778 707.273 450.698 710.793 463.312C714.411 481.585 717.556 499.998 720.432 518.5C717.08 518.924 713.731 519.423 710.386 519.998Z" fill="#0088CE"/>
<path d="M731.855 517.343C730.042 507.71 728.183 498.097 726.263 488.51C725.525 486.185 724.561 483.637 723.416 480.957C719.702 471.708 715.392 461.074 721.695 453.798C726.178 448.691 731.763 456.534 732.962 460.2C737.893 475.134 739.035 492.568 739.99 509.196C740.148 511.786 740.31 514.334 740.482 516.851C737.608 516.961 734.732 517.124 731.855 517.343Z" fill="#0088CE"/>
<path d="M693.806 523.485C691.953 518.569 690.011 513.661 687.968 508.762C685.835 500.844 680.712 489.499 674.993 476.769C659.897 443.272 640.456 400.171 660.19 385.467C679.147 379.155 678.039 405.847 675.683 418.199C670.179 444.66 680.666 469.14 690.968 493.039C693.073 497.819 695.043 502.555 696.968 507.201C698.327 510.065 700.253 515.559 702.364 521.525C699.507 522.122 696.653 522.775 693.806 523.485Z" fill="#0088CE"/>
<path d="M587.59 390.598C562.122 355.533 616.288 335.051 627.602 381.856C627.836 382.975 628.114 383.959 628.527 384.986C648.062 435.932 663.02 482.506 676.731 528.451C672.609 529.825 668.505 531.322 664.426 532.943C659.933 516.592 653.459 500.16 646.985 483.88C642.076 471.412 637.123 459.08 633.202 446.783C627.332 427.15 626.773 419.666 623.005 414.497C619.328 409.508 612.757 406.786 595.454 397.388C592.345 395.712 589.678 393.359 587.59 390.598Z" fill="#0088CE"/>
<path d="M650.537 538.996C613.476 496.784 565.706 442.125 579.381 425.424C596.435 421.999 603.908 440.363 610.233 455.822C612.16 460.693 613.994 465.161 615.998 468.641C626.315 483.903 642.957 507.033 662.54 533.703C658.513 535.345 654.511 537.109 650.537 538.996Z" fill="#0088CE"/>
<path d="M506.213 462.487C490.026 437.43 521.98 425.263 539.176 442.822C553.024 461.982 566.34 481.863 579.656 501.744C592.259 520.545 604.879 539.376 618.079 557.73C615.629 559.421 613.22 561.152 610.853 562.925C609.525 560.87 608.2 558.81 606.872 556.748C586.455 524.957 565.9 492.898 530.945 480.25C521.177 476.121 512.261 471.895 506.213 462.487Z" fill="#0088CE"/>
<path d="M562.15 555.173C553.451 550.273 543.535 544.532 544.032 534.931C544.421 528.201 553.593 530.944 556.795 533.023C569.966 541.606 581.607 554.686 592.705 567.143C594.514 569.166 596.325 571.188 598.13 573.181C595.943 575.075 593.799 577.006 591.696 578.972C584.174 572.408 576.629 565.883 569.048 559.416C567.062 557.954 564.673 556.586 562.15 555.173Z" fill="#0088CE"/>
<path d="M496.337 516.746C487.081 504.586 497.385 478.262 512.422 495.123C517.145 501.717 519.951 509.63 522.713 517.677C526.719 529.48 530.952 541.504 541.514 549.168C555.793 561.393 569.789 574.03 583.624 586.901C581.278 589.322 578.991 591.79 576.764 594.301C566.89 584.128 555.943 574.711 544.93 565.327C527.308 550.237 509.685 535.147 496.337 516.746Z" fill="#0088CE"/>
<path d="M521.895 581.944C489.233 564.97 447.335 543.146 453.76 519.367C464.777 502.587 480.485 524.286 486.19 535.446C498.199 559.599 521.585 572.305 544.476 584.702C549.027 587.218 553.533 589.644 557.995 592.205C560.879 593.637 566.029 596.892 571.557 600.38C569.689 602.641 567.868 604.934 566.093 607.258C561.438 604.445 556.714 601.7 551.912 599.031C545.367 594.156 534.329 588.425 521.895 581.944Z" fill="#0088CE"/>
<path d="M399.936 568.276C358.306 556.449 388.134 506.857 425.977 536.61C426.79 537.32 427.693 537.984 428.639 538.514C475.684 566.565 516.441 594.045 555.842 621.809C553.48 625.453 551.225 629.159 549.078 632.921C535.301 622.67 519.812 613.645 504.385 604.745C492.756 598.077 481.217 591.364 470.57 584.194C453.828 572.37 448.756 566.855 442.598 565.161C436.709 563.554 429.686 565.455 410.344 568.811C406.896 569.335 403.352 569.232 399.936 568.276Z" fill="#0088CE"/>
<path d="M437.235 607.54C419.905 610.205 391.084 586.426 418.582 577.437C430.683 576.656 439.805 583.93 448.928 591.203C454.484 595.682 460.083 600.028 466.295 602.708C479.085 608.782 492.491 613.64 505.897 618.499C520.028 623.591 534.261 628.718 547.74 635.297C546.744 637.09 545.772 638.896 544.824 640.714C505.482 623.955 462.006 610.413 437.235 607.54Z" fill="#0088CE"/>
<path d="M384.436 645.678C369.791 637.737 367.41 611.928 385.978 607.278C404.276 602.542 417.296 614.354 430 625.989C435.788 631.364 441.53 636.649 447.75 640.226C473.14 653.294 502.833 661.084 533.008 667.362C531.881 670.409 530.816 673.479 529.817 676.57C527.854 676.495 525.882 676.441 523.901 676.409C519.8 674.114 503.775 677.351 487.572 680.679C463.938 685.553 439.543 690.478 450.111 678.769C453.356 675.423 462.847 673.724 471.935 672.118C481.964 670.37 491.366 668.717 491.109 664.908C486.119 663.517 480.857 661.815 475.371 660.115C463.274 656.276 450.233 652.132 438.474 650.936C432.91 650.627 427.218 650.947 421.437 651.312C408.575 652.144 395.801 652.931 384.436 645.678Z" fill="#0088CE"/>
<path d="M479.314 705.057C468.485 692.463 485.338 681.595 498.191 684.71C507.827 685.054 517.271 686.058 526.551 687.611C524.782 694.181 523.301 700.831 522.115 707.542C507.127 710.547 492.373 712.567 479.314 705.057Z" fill="#0088CE"/>
<path d="M491.139 732.148C441.908 740.695 389.989 747.213 383.796 730.12C389.614 713.746 409.236 716.666 425.672 719.3C430.791 720.061 435.596 720.87 439.677 720.924C446.319 720.558 454.264 720.01 463.257 719.312C450.2 712.812 437.661 705.804 425.8 698.179C405.866 685.397 399.271 690.119 393.434 694.342C388.488 697.883 384.121 701.016 372.748 692.866C352.877 672.057 377.235 657.804 396.992 670.902C403.796 674.519 410.464 678.091 416.998 681.62C440.528 694.317 463.056 706.47 485.564 717.469C496.546 716.515 508.469 715.421 521.035 714.227C520.411 718.476 519.905 722.747 519.519 727.033C519.44 727.048 519.361 727.062 519.282 727.076C516.168 727.649 512.998 728.23 509.789 728.816C512.875 730.193 515.967 731.546 519.068 732.871C518.847 736.288 518.702 739.714 518.633 743.146C509.321 739.646 500.141 735.99 491.139 732.148Z" fill="#0088CE"/>
<path d="M378.151 811.381C348.385 812.409 354.363 778.723 378.258 773.04C401.827 770.902 425.762 769.702 449.608 768.548C472.797 767.384 496.048 766.188 519.178 764.184C519.392 767.161 519.664 770.14 519.996 773.117C516.925 773.229 513.848 773.33 510.772 773.43C472.98 774.618 434.964 775.809 406.115 799.339C397.561 805.514 389.359 811.057 378.151 811.381Z" fill="#0088CE"/>
<path d="M459.808 816.26C454.17 812.498 461.196 805.979 464.724 804.288C478.923 797.48 496.024 794.144 512.408 790.949C515.75 790.331 519.078 789.684 522.332 789.017C522.841 791.795 523.402 794.569 524.016 797.338C513.875 800.637 503.758 803.981 493.675 807.393C491.487 808.399 489.033 809.767 486.489 811.18C477.744 816.101 467.748 821.66 459.808 816.26Z" fill="#0088CE"/>
<path d="M419.686 847.917C404.544 849.576 387.171 827.265 409.42 822.986C417.485 822.242 425.707 824.007 434.018 825.727C446.238 828.264 458.728 830.888 470.745 825.759C489.233 819.552 507.929 813.838 526.755 808.389C527.645 811.632 528.609 814.867 529.648 818.09C515.149 821.38 500.728 826.235 486.307 831.091C464.311 838.507 442.314 845.922 419.686 847.917Z" fill="#0088CE"/>
<path d="M399.933 885.716C391.163 867.678 417.913 865.376 430.387 866.207C457.356 868.299 480.24 854.687 502.633 841.438C507.138 838.798 511.555 836.202 516.016 833.697C518.915 831.877 524.718 828.911 530.789 825.807C531.21 825.593 531.631 825.377 532.054 825.161C533.03 827.884 534.061 830.597 535.146 833.299C529.619 836.196 524.119 839.215 518.65 842.373C511.01 845.49 500.484 851.996 488.576 859.322C457.224 878.614 417.086 903.411 399.933 885.716Z" fill="#0088CE"/>
<path d="M414.424 957.022C382.895 986.763 355.67 935.706 400.584 918.49C401.611 918.078 402.639 917.665 403.532 917.209C452.581 890.728 497.74 869.607 542.503 849.753C542.971 850.701 543.447 851.647 543.93 852.591C545.456 855.578 547.039 858.517 548.676 861.408C531.985 868.075 515.511 877.183 499.175 886.223C487.483 892.649 475.837 899.166 464.226 904.65C445.512 912.978 438.171 914.478 433.547 918.869C429.055 923.079 427.188 930.002 420.131 948.361C418.86 951.601 416.914 954.623 414.424 957.022Z" fill="#0088CE"/>
</svg>
