<svg width="1500" height="1500" viewBox="0 0 1500 1500" fill="none" xmlns="http://www.w3.org/2000/svg">
<circle cx="749.629" cy="750" r="585.5" fill="#DAD7CB" fill-opacity="0.5"/>
<circle cx="749.629" cy="750" r="225" fill="white"/>
<path d="M584.967 1385.66L696.806 1348.59L496.686 1292.9L584.967 1385.66Z" fill="#008770"/>
<path d="M342.52 1262.01L459.765 1273.65L299.602 1141.37L342.52 1262.01Z" fill="#008770"/>
<path d="M171.337 1050.44L273.702 1108.75L181.198 922.798L171.337 1050.44Z" fill="#008770"/>
<path d="M101.001 787.561L170.797 882.456L161.941 674.954L101.001 787.561Z" fill="#008770"/>
<path d="M716.709 1335.07L808.234 1281.52L621.63 1269.94L716.709 1335.07Z" fill="#008770"/>
<path d="M480.106 1271.59L585.508 1259.87L419.732 1173.4L480.106 1271.59Z" fill="#008770"/>
<path d="M289.794 1117.35L390.819 1149.53L274.578 1003.12L289.794 1117.35Z" fill="#008770"/>
<path d="M178.65 899.061L257.869 969.55L211.218 788.488L178.65 899.061Z" fill="#008770"/>
<path d="M618.591 1256.94L707.773 1227.38L548.202 1182.97L618.591 1256.94Z" fill="#008770"/>
<path d="M425.242 1158.34L518.75 1167.6L391.026 1062.13L425.242 1158.34Z" fill="#008770"/>
<path d="M288.738 989.605L370.377 1036.1L296.59 887.811L288.738 989.605Z" fill="#008770"/>
<path d="M281.22 690.143L232.638 779.941L288.3 855.63L281.22 690.143Z" fill="#008770"/>
<path d="M724.07 1209.23L795.926 1167.19L649.433 1158.1L724.07 1209.23Z" fill="#008770"/>
<path d="M538.367 1159.39L621.087 1150.23L490.995 1082.34L538.367 1159.39Z" fill="#008770"/>
<path d="M388.99 1038.34L468.286 1063.59L377.044 948.671L388.99 1038.34Z" fill="#008770"/>
<path d="M327.329 780.224L301.763 866.983L363.939 922.334L327.329 780.224Z" fill="#008770"/>
<path d="M645.779 1142.4L715.652 1118.95L590.992 1084.76L645.779 1142.4Z" fill="#008770"/>
<path d="M494.936 1065.91L568.028 1072.84L468.521 990.738L494.936 1065.91Z" fill="#008770"/>
<path d="M395.326 854.626L388.786 934.357L452.481 970.451L395.326 854.626Z" fill="#008770"/>
<path d="M345.688 770.415L388.966 829.473L384.023 699.952L345.688 770.415Z" fill="#008770"/>
<path d="M735.377 1095.38L789.547 1063.68L679.111 1056.83L735.377 1095.38Z" fill="#008770"/>
<path d="M595.381 1057.8L657.742 1050.89L559.669 999.714L595.381 1057.8Z" fill="#008770"/>
<path d="M482.771 966.545L542.55 985.585L473.765 898.947L482.771 966.545Z" fill="#008770"/>
<path d="M436.287 771.96L417.014 837.365L463.886 879.093L436.287 771.96Z" fill="#008770"/>
<path d="M676.142 1034.61L726.523 1017.7L636.638 993.051L676.142 1034.61Z" fill="#008770"/>
<path d="M567.378 979.463L620.08 984.457L548.332 925.26L567.378 979.463Z" fill="#008770"/>
<path d="M495.556 827.118L490.841 884.607L536.767 910.632L495.556 827.118Z" fill="#008770"/>
<path d="M459.765 766.399L490.97 808.982L487.406 715.592L459.765 766.399Z" fill="#008770"/>
<path d="M730.922 999.409L770.302 977.377L691.426 970.941L730.922 999.409Z" fill="#008770"/>
<path d="M631.498 970.494L676.258 966.373L607.083 928.261L631.498 970.494Z" fill="#008770"/>
<path d="M547.615 854.67L552.72 903.38L595.133 917.874L547.615 854.67Z" fill="#008770"/>
<path d="M508.204 809.634L540.937 840.259L523.279 762.895L508.204 809.634Z" fill="#008770"/>
<path d="M769.453 974.169C772.171 1014.61 777.671 1058.23 772.77 1092.76C772.488 1094.75 769.654 1094.86 769.187 1092.91C765.239 1076.69 766.523 1090.99 763.848 1105.63C756.216 1129.07 781.779 1194.9 751.797 1199.79C727.149 1189.64 752.422 1150.48 754.238 1132.59C759.673 1105.24 763.063 1076.69 762.387 1049.35C759.778 1021.17 742.201 1158.05 739.01 1166.55C729.008 1188.41 735.389 1355.75 702.701 1359.11C683.701 1346.56 702.717 1319.1 707.166 1302.81C719.407 1238.6 744.934 1047.73 754.525 974.955C759.543 974.856 764.521 974.591 769.453 974.169Z" fill="#0088CE"/>
<path d="M804.152 1271.4C806.13 1282.07 813.836 1298.01 804.653 1306.31C799.643 1310.83 795.026 1302.49 794.235 1298.72C789.854 1277.88 793.147 1253.17 793.564 1231.93C794.03 1208.51 793.157 1185.69 790.508 1162.43C787.701 1137.77 785.522 1186.08 784.327 1191.51C781.694 1245.2 751.595 1303.77 775.448 1354.32C779.382 1364.09 782.757 1373.39 780.439 1384.26C774.307 1413.33 743.114 1399.44 743.319 1374.97C752.889 1313.4 768.814 1251.68 774.536 1189.25C784.782 1117.71 783.141 1045.3 775.212 973.602C778.592 973.225 781.948 972.773 785.281 972.248C793.806 1071.63 795.907 1172.31 804.152 1271.4Z" fill="#0088CE"/>
<path d="M995.501 1340.31C1000.24 1356.23 983.814 1376.18 967.429 1366.37C943.772 1352.59 952.709 1321.82 946.869 1299.63C929.236 1245.41 884.552 1193.85 855.527 1145.42C854.758 1188.42 902.798 1294.42 931.365 1330.18C945.47 1340.51 949.104 1377.55 923.359 1364.6C908.833 1351.99 914.13 1329.78 907.383 1313.28C896.849 1283.94 879.955 1256.83 870.632 1226.89C869.799 1224.79 869.113 1223.54 868.722 1223.52C871.898 1256.3 884.668 1290.67 891.263 1323.37C898.338 1362.9 890.326 1353.7 923.054 1376.62C925.921 1378.63 928.35 1381.23 930.067 1384.29C951.25 1421.95 895.284 1436.03 889.422 1388.39C889.294 1387.31 889.103 1386.23 888.835 1385.18C855.96 1257.18 846.894 1157.77 820.444 1028.42C818.5 1020.56 815.728 1008.82 812.089 1002.23C811.228 1001.12 811.045 1002.9 811.378 1006.52C822.684 1090.75 820.213 1172.99 844.119 1255.69C848.503 1285.08 886.885 1364.03 857.595 1381.02C838.05 1385.14 842.249 1358.76 845.973 1346.84C856.164 1316.17 843.155 1285.73 835.048 1256.23C831.151 1244.51 821.81 1190.33 823.429 1234.01C821.621 1273.07 831.771 1314.04 825.687 1352.87C823.696 1367.97 797.852 1379.38 799.077 1356.85C802.171 1337.12 819.956 1319.75 816.445 1298.11C807.717 1189.58 815.227 1077.74 798.62 969.732C803.748 968.603 808.811 967.298 813.801 965.825C826.347 1008.31 839.299 1050.85 839.825 1057.07C851.035 1117.96 873.449 1174.27 918.486 1220.52C921.842 1231.61 998.845 1269.22 972.365 1270.69C962.426 1270.88 938.288 1246.25 933.562 1251.69C941.775 1265.91 950.082 1285.36 960.943 1298.57C973.04 1312.19 991.302 1321.3 995.501 1340.31Z" fill="#0088CE"/>
<path d="M970.282 1231.47C969.086 1248.03 949.464 1243.86 942.588 1232.61C885.866 1171.96 873.629 1086.82 845.41 1013.69C841.902 1019.57 868.363 1101.24 854.071 1078.74C838.914 1041.68 832.609 1001.74 823.567 962.696C826.784 961.584 829.968 960.401 833.117 959.148C834.709 963.028 835.948 965.981 836.36 966.969C864.952 1029.79 873.718 1099.6 903.484 1161.71C914.174 1194.66 961.484 1199.38 970.282 1231.47Z" fill="#0088CE"/>
<path d="M1043.91 1315.87C1043.4 1344.66 1009.13 1336.81 1004.39 1313.64C978.94 1230.51 959.988 1159.05 911.347 1091.04C912.026 1100.02 921.668 1126.54 924.046 1144.69C925.096 1152.74 913.877 1155.81 910.767 1148.3C902.845 1129.18 903.878 1104.8 898.388 1085.48C887.643 1040.35 862.273 998.155 839.21 956.62C842.785 955.075 846.312 953.44 849.788 951.717C854.227 960.082 858.243 967.956 861.422 974.696C907.423 1067.62 980.661 1171.87 1003.17 1274.01C1012.55 1316.59 1038.9 1285.74 1043.91 1315.87Z" fill="#0088CE"/>
<path d="M963.762 1107.84C967.014 1131.65 1062 1269.58 1036.18 1289.92C1013.42 1289.49 1014.78 1256.12 1009.82 1239.98C985.765 1179.16 905.073 1004.14 874.246 937.612C878.397 934.858 882.451 931.969 886.403 928.952C910.363 961.682 938.405 995.616 952.768 1027.44C953.597 1029.27 951.263 1030.89 949.824 1029.49C937.803 1017.9 946.546 1029.29 952.122 1043.09C958.224 1066.97 1015.06 1108.88 992.353 1129.06C966.103 1133.69 966.485 1087.09 958.441 1071C948.389 1045 935.97 1019.07 920.758 996.335C903.466 973.928 961.904 1098.95 963.762 1107.84Z" fill="#0088CE"/>
<path d="M1115.31 1269.54C1125.69 1297.38 1091.91 1302.35 1078.98 1281.57C1054.1 1224.44 1034.51 1163.79 1005.92 1108C976.252 1042.04 936.071 981.73 890.954 925.387C893.594 923.262 896.185 921.078 898.726 918.838C959.166 998.245 1014.87 1082.21 1074.92 1161.53C1082.29 1169.47 1097.34 1178.81 1094.02 1190.74C1092.22 1197.24 1083.85 1192.66 1081.17 1189.91C1066.31 1174.65 1055.86 1152.02 1044.84 1133.85C1032.69 1113.82 1019.74 1095.01 1005.05 1076.79C989.478 1057.47 1013.5 1099.43 1015.4 1104.66C1041.92 1151.41 1047.85 1217 1095.06 1246.92C1103.62 1253.07 1111.44 1259.11 1115.31 1269.54Z" fill="#0088CE"/>
<path d="M1273.42 1117.28C1285.95 1128.19 1282.76 1153.84 1263.67 1154.32C1236.31 1155.35 1227.38 1124.57 1210.57 1108.96C1166.65 1072.6 1101.3 1052.98 1050.86 1027.61C1073.23 1064.34 1170.56 1128.16 1213.83 1143.07C1231.27 1144.23 1254.17 1173.57 1225.5 1176.42C1206.47 1173.54 1199.06 1151.95 1184.52 1141.62C1159.92 1122.48 1131.14 1108.63 1107.23 1088.33C1105.41 1087.01 1104.16 1086.32 1103.81 1086.51C1124.05 1112.5 1153.23 1134.69 1176.31 1158.78C1203.45 1188.38 1191.76 1184.9 1231.67 1186.74C1235.17 1186.89 1238.61 1187.79 1241.7 1189.46C1279.76 1209.93 1240.02 1251.78 1209.57 1214.68C1208.88 1213.84 1208.14 1213.03 1207.35 1212.29C1111.06 1121.77 1050.18 1042.66 958.588 947.574C952.74 941.98 944.111 933.544 937.512 929.931C936.189 929.45 936.99 931.056 939.209 933.935C993.852 999.022 1035.79 1069.81 1100.26 1126.86C1119.7 1149.33 1194.38 1195.47 1178.74 1225.5C1164.44 1239.44 1153.86 1214.91 1150.63 1202.85C1142.81 1171.48 1115.53 1152.74 1092.89 1132.17C1083.32 1124.36 1046.43 1083.6 1071.18 1119.62C1090.56 1153.58 1121.07 1182.75 1136.72 1218.8C1143.12 1232.62 1127.4 1256.1 1116.38 1236.42C1108.43 1218.09 1114.15 1193.9 1099.6 1177.5C1034.09 1090.46 980.532 991.925 908.627 909.567C912.328 905.888 915.902 902.082 919.341 898.154C952.724 927.358 986.518 956.418 990.296 961.396C1032.36 1006.82 1081.44 1042.38 1144.24 1057.34C1153.01 1064.9 1238.19 1055.45 1216.61 1070.86C1208.32 1076.35 1174.74 1068.47 1173.66 1075.59C1188.22 1083.21 1205.64 1095.18 1221.89 1100.53C1239.4 1105.56 1259.7 1103.47 1273.42 1117.28Z" fill="#0088CE"/>
<path d="M1193.85 1038.86C1201.71 1053.49 1182.9 1060.47 1171.07 1054.65C1090.69 1033.79 1034.78 968.427 971.791 921.771C971.975 928.613 1038.05 983.424 1013.93 972.07C981.246 948.857 954.512 918.449 925.927 890.278C928.039 887.633 930.093 884.938 932.086 882.197C935.567 884.665 938.247 886.531 939.133 887.151C996.914 924.902 1041.69 979.176 1100.08 1015.69C1126.75 1037.8 1169.24 1016.46 1193.85 1038.86Z" fill="#0088CE"/>
<path d="M1301.23 1070.72C1316.21 1095.31 1283.06 1107.03 1266.65 1090C1200.65 1033.41 1146.39 983.201 1068.89 951.8C1074.28 959.023 1096.62 976.259 1108.34 990.313C1113.54 996.549 1105.7 1005.15 1099.06 1000.47C1082.13 988.566 1069.95 967.416 1054.97 954.039C1021.7 921.645 977.631 899.576 935.88 876.819C938.072 873.613 940.182 870.347 942.209 867.024C950.475 871.734 958.118 876.254 964.437 880.261C1053.04 934.117 1170.71 982.958 1244.4 1057.18C1275.12 1088.12 1280.86 1047.96 1301.23 1070.72Z" fill="#0088CE"/>
<path d="M1124.14 933.946C1139.83 952.15 1294.59 1016.15 1284.01 1047.25C1264.68 1059.29 1247.65 1030.55 1234.7 1019.72C1181.41 981.784 1018.39 878.857 956.343 839.851C958.325 835.305 960.161 830.682 961.846 825.986C999.768 840.402 1041.77 853.604 1071.15 872.484C1072.84 873.57 1071.77 876.194 1069.8 875.806C1053.4 872.626 1066.94 877.425 1079.13 885.961C1097.25 902.673 1167.74 906.896 1159.68 936.185C1140.18 954.355 1115.13 915.053 1099.63 905.94C1077.04 889.595 1052.5 874.607 1027.37 863.817C1000.66 854.434 1117.74 927.499 1124.14 933.946Z" fill="#0088CE"/>
<path d="M1339.29 987.09C1363.15 1004.79 1337.52 1027.35 1315.37 1016.96C1263.4 982.578 1213.94 942.362 1159.59 911.125C1098.79 871.945 1032.25 843.225 963.727 820.52C964.785 817.31 965.774 814.069 966.69 810.798C1060.62 844.509 1153.06 884.618 1246.61 918.47C1257.12 921.119 1274.83 920.766 1278.54 932.57C1280.56 939.011 1271.05 939.729 1267.3 938.877C1246.53 934.165 1225.45 920.868 1206.32 911.629C1185.22 901.437 1164.12 892.713 1141.87 885.42C1118.29 877.689 1161.29 899.816 1165.72 903.167C1213.42 927.952 1254.1 979.735 1310 979.139C1320.52 979.64 1330.37 980.449 1339.29 987.09Z" fill="#0088CE"/>
<path d="M1401.72 851.108C1444.79 847.564 1434.24 904.302 1388.49 889.76C1387.46 889.427 1386.4 889.152 1385.34 888.957C1255.29 865.45 1161.15 832.228 1032.56 802.32C1024.61 800.811 1012.78 798.432 1005.27 798.993C1003.9 799.311 1005.45 800.222 1008.88 801.429C1090.15 826.282 1163.86 862.828 1249 875.591C1277.53 883.863 1365.3 881.909 1368.53 915.615C1364.12 935.097 1341.89 920.278 1332.61 911.923C1308.98 889.865 1275.89 888.996 1245.7 884.06C1233.43 882.716 1180.29 868.609 1220.66 885.356C1255.4 903.286 1296.88 911.149 1329.63 932.874C1342.52 940.979 1342.12 969.229 1322.15 958.721C1305.51 947.678 1297.14 924.271 1276.01 918.437C1173.67 881.082 1075.1 827.576 969.948 797.633C971.042 792.559 971.964 787.421 972.709 782.226C1016.62 788.552 1060.8 794.535 1066.68 796.654C1126.7 811.86 1187.23 814.976 1248.05 793.332C1259.52 794.906 1325.83 740.609 1316.11 765.287C1312.15 774.403 1279.69 786.068 1282.66 792.628C1299.02 791.098 1320.15 791.657 1336.69 787.297C1354.12 781.984 1370.01 769.182 1389.04 773.294C1405.48 775.625 1416.77 798.878 1401.02 809.68C1378.63 825.432 1354.39 804.477 1331.79 800.531C1275.15 793.941 1209.66 813.052 1153.53 819.23C1192.29 837.865 1308.67 838.414 1353.09 827.364C1368.35 818.85 1403.53 830.996 1381.03 848.995C1363.51 856.936 1345.53 842.861 1327.72 842.109C1296.66 839.447 1264.98 843.496 1233.87 839.481C1231.62 839.363 1230.2 839.465 1230.01 839.812C1261.14 850.599 1297.7 853.326 1330.17 860.971C1369.05 871.027 1357.34 874.47 1391.83 854.286C1394.84 852.516 1398.22 851.394 1401.72 851.108Z" fill="#0088CE"/>
<path d="M1279.6 750.823C1294.16 758.818 1282.18 774.911 1269.09 776.47C1190.3 802.727 1107.82 778.34 1029.59 773.488C1033.47 779.128 1118.73 789.139 1092.32 792.744C1052.25 791.063 1013.26 780.102 973.935 772.031C974.261 768.677 974.514 765.3 974.691 761.904C978.977 762.081 982.261 762.187 983.347 762.226C1052.37 762.439 1119.48 783.59 1188.33 782.438C1222.74 786.465 1246.76 745.434 1279.6 750.823Z" fill="#0088CE"/>
<path d="M1387.02 719.105C1412.97 731.575 1391.54 759.449 1368.51 754.097C1282.34 742.554 1209.49 729.976 1127.39 745.82C1135.84 748.95 1163.96 751.246 1181.44 756.653C1189.2 759.055 1187.31 770.532 1179.19 770.23C1158.51 769.455 1136.78 758.346 1116.93 755.278C1071.37 746.21 1022.37 751.696 974.938 755.334C974.979 753.561 975 751.783 975 750C975 747.883 974.97 745.774 974.912 743.671C984.432 743.12 993.325 742.75 1000.82 742.671C1104.46 739.617 1229.76 716.532 1331.98 738.675C1374.59 747.909 1357.54 711.093 1387.02 719.105Z" fill="#0088CE"/>
</svg>
